<svg width="20" height="18" viewBox="0 0 20 18" fill="none" xmlns="http://www.w3.org/2000/svg">
<path fill-rule="evenodd" clip-rule="evenodd" d="M7.70825 9.5075C10.2333 9.5075 12.2573 7.45726 12.2573 4.89956C12.2573 2.34187 10.2333 0.291626 7.70825 0.291626C5.18323 0.291626 3.15917 2.34187 3.15917 4.89956C3.15917 7.45726 5.18323 9.5075 7.70825 9.5075ZM7.70825 11.7639C3.99962 11.7639 0.833252 12.3568 0.833252 14.7259C0.833252 17.094 3.98036 17.7083 7.70825 17.7083C11.416 17.7083 14.5833 17.1153 14.5833 14.7463C14.5833 12.3773 11.4361 11.7639 7.70825 11.7639ZM17.2397 6.78883H18.3425C18.7965 6.78883 19.1666 7.16416 19.1666 7.62448C19.1666 8.08481 18.7965 8.46013 18.3425 8.46013H17.2397V9.53931C17.2397 9.99963 16.8705 10.375 16.4156 10.375C15.9617 10.375 15.5916 9.99963 15.5916 9.53931V8.46013H14.4906C14.0358 8.46013 13.6666 8.08481 13.6666 7.62448C13.6666 7.16416 14.0358 6.78883 14.4906 6.78883H15.5916V5.71061C15.5916 5.25029 15.9617 4.87496 16.4156 4.87496C16.8705 4.87496 17.2397 5.25029 17.2397 5.71061V6.78883Z" fill="white"/>
</svg>
