<svg width="16" height="18" viewBox="0 0 16 18" fill="none" xmlns="http://www.w3.org/2000/svg">
<path d="M6.73689 10.8691C3.1034 10.8691 0 11.4304 0 13.6738C0 15.9189 3.08367 16.4996 6.73689 16.4996C10.3704 16.4996 13.4738 15.9383 13.4738 13.6949C13.4738 11.4497 10.3901 10.8691 6.73689 10.8691Z" fill="#036B84"/>
<path d="M6.73683 8.73109C9.21147 8.73109 11.1946 6.78899 11.1946 4.36554C11.1946 1.9421 9.21147 0 6.73683 0C4.26308 0 2.27905 1.9421 2.27905 4.36554C2.27905 6.78899 4.26308 8.73109 6.73683 8.73109Z" fill="#036B84"/>
<path d="M12.7537 10.0436L12.7521 10.0447C12.441 10.2558 11.9794 10.6516 11.5536 11.0306C11.2442 11.306 10.9363 11.5882 10.6974 11.8073C10.6026 11.8942 10.5187 11.9711 10.4498 12.0337L10.449 12.0345C9.93891 12.5003 9.45718 12.9891 8.99589 13.491L8.99526 13.4917C8.95581 13.5348 8.91667 13.578 8.87782 13.6211C8.7351 13.4659 8.58912 13.3195 8.44192 13.1796L8.44124 13.1789C8.15861 12.9112 7.86715 12.6652 7.57008 12.4331L7.57009 12.4331L7.56712 12.4308C7.41956 12.3173 7.27 12.2051 7.11666 12.0942L7.11671 12.0942L7.10907 12.0889C6.59358 11.7307 5.91013 11.9316 5.63709 12.4657L4.91224 13.8836C4.66969 14.3581 4.92472 14.9149 5.38721 15.0888L5.38721 15.0888L5.39038 15.09C5.52128 15.1382 5.65097 15.1905 5.78315 15.2467C6.04539 15.3581 6.29978 15.4791 6.54163 15.6085C7.02755 15.8697 7.42741 16.1622 7.63313 16.4206C7.63321 16.4208 7.6333 16.4209 7.63338 16.421L7.78995 16.6184C8.36531 17.3437 9.50136 17.2166 9.90222 16.3822C10.1563 15.8547 10.4626 15.2989 10.7795 14.7651C11.0979 14.2298 11.4363 13.7075 11.8014 13.2056C12.1546 12.72 13.2058 11.5574 13.6527 11.101C14.0847 10.6628 14.5383 10.2793 15.0635 10.012L14.6993 9.08565C13.9847 9.28986 13.3332 9.65359 12.7537 10.0436L12.7537 10.0436Z" fill="#036B84" stroke="white"/>
</svg>
