<svg width="46" height="66" viewBox="0 0 46 66" fill="none" xmlns="http://www.w3.org/2000/svg">
<rect x="6" y="25.4351" width="34" height="40.2963" rx="3" fill="#036B84"/>
<path d="M26.3874 41.5727C26.3874 43.5459 24.6469 45.1455 22.4999 45.1455C20.3529 45.1455 18.6124 43.5459 18.6124 41.5727C18.6124 39.5996 20.3529 38 22.4999 38C24.6469 38 26.3874 39.5996 26.3874 41.5727Z" fill="white"/>
<path d="M22.5 45.7458C19.8947 45.7458 17.5485 46.7652 15.9079 48.3938C13.3916 50.8916 16.5211 54 20.2249 54H24.7751C28.4789 54 31.6084 50.8916 29.0921 48.3938C27.4515 46.7652 25.1053 45.7458 22.5 45.7458Z" fill="white"/>
<path d="M33 10C33 11.2763 31.6137 12.2676 31.1535 13.3774C30.6763 14.5277 30.9373 16.2051 30.0702 17.0719C29.2034 17.9386 27.5267 17.6765 26.3765 18.1534C25.267 18.6134 24.2758 20 23 20C21.7241 20 20.7329 18.6134 19.6234 18.1534C18.4732 17.6766 16.7967 17.9386 15.9297 17.0719C15.0626 16.2051 15.3237 14.5277 14.8465 13.3774C14.3862 12.2676 13 11.2762 13 10C13 8.72367 14.3863 7.73243 14.8466 6.62264C15.3238 5.47232 15.0628 3.79492 15.9299 2.92811C16.7967 2.06139 18.4734 2.32351 19.6236 1.84658C20.7331 1.38663 21.7243 0 23.0001 0C24.276 0 25.2672 1.38663 26.3767 1.84658C27.5269 2.32341 29.2034 2.06139 30.0704 2.92811C30.9375 3.79492 30.6764 5.47232 31.1536 6.62264C31.6137 7.73243 33 8.72367 33 10Z" fill="#68A6B5"/>
<path d="M23.1725 5.08457L24.8432 7.37572C24.8706 7.4133 24.9117 7.44077 24.9591 7.45304L27.8489 8.2038C27.991 8.24072 28.0468 8.39837 27.9554 8.50494L26.0983 10.6717C26.0677 10.7072 26.052 10.7517 26.054 10.7968L26.1692 13.5519C26.1749 13.6875 26.0288 13.785 25.8902 13.7381L23.0717 12.7861C23.0254 12.7705 22.9746 12.7705 22.9284 12.7861L20.1099 13.7381C19.9712 13.785 19.8252 13.6875 19.8308 13.5519L19.946 10.7968C19.9479 10.7517 19.9322 10.7072 19.9017 10.6717L18.0446 8.50494C17.9532 8.39837 18.0089 8.24072 18.1511 8.2038L21.0408 7.45304C21.0883 7.44077 21.1294 7.4133 21.1568 7.37572L22.8275 5.08457C22.9098 4.97181 23.0903 4.97181 23.1725 5.08457Z" fill="white"/>
<path d="M46 16.5C46 17.202 45.2375 17.7472 44.9844 18.3575C44.722 18.9902 44.8655 19.9128 44.3886 20.3895C43.9118 20.8662 42.9897 20.7221 42.3571 20.9844C41.7469 21.2374 41.2017 22 40.5 22C39.7983 22 39.2531 21.2374 38.6429 20.9844C38.0103 20.7221 37.0882 20.8662 36.6113 20.3895C36.1344 19.9128 36.278 18.9902 36.0156 18.3575C35.7624 17.7472 35 17.2019 35 16.5C35 15.798 35.7625 15.2528 36.0156 14.6425C36.2781 14.0098 36.1346 13.0872 36.6114 12.6105C37.0882 12.1338 38.0104 12.2779 38.643 12.0156C39.2532 11.7626 39.7984 11 40.5001 11C41.2018 11 41.747 11.7626 42.3572 12.0156C42.9898 12.2779 43.9119 12.1338 44.3887 12.6105C44.8656 13.0872 44.722 14.0098 44.9845 14.6425C45.2376 15.2528 46 15.798 46 16.5Z" fill="#BDDEE5"/>
<path d="M40.5862 14.0483L41.4216 15.3576C41.4353 15.379 41.4558 15.3947 41.4796 15.4017L42.9244 15.8307C42.9955 15.8518 43.0234 15.9419 42.9777 16.0028L42.0491 17.241C42.0339 17.2613 42.026 17.2867 42.027 17.3125L42.0846 18.8868C42.0874 18.9643 42.0144 19.02 41.9451 18.9932L40.5358 18.4492C40.5127 18.4403 40.4873 18.4403 40.4642 18.4492L39.0549 18.9932C38.9856 19.02 38.9126 18.9643 38.9154 18.8868L38.973 17.3125C38.974 17.2867 38.9661 17.2613 38.9509 17.241L38.0223 16.0028C37.9766 15.9419 38.0045 15.8518 38.0755 15.8307L39.5204 15.4017C39.5441 15.3947 39.5647 15.379 39.5784 15.3576L40.4137 14.0483C40.4549 13.9839 40.5452 13.9839 40.5862 14.0483Z" fill="white"/>
<path d="M11 16.5C11 17.202 10.2375 17.7472 9.98441 18.3575C9.72198 18.9902 9.8655 19.9128 9.38862 20.3895C8.91184 20.8662 7.9897 20.7221 7.35705 20.9844C6.74686 21.2374 6.20167 22 5.49997 22C4.79827 22 4.25309 21.2374 3.64289 20.9844C3.01025 20.7221 2.08816 20.8662 1.61133 20.3895C1.13445 19.9128 1.27801 18.9902 1.01559 18.3575C0.762396 17.7472 0 17.2019 0 16.5C0 15.798 0.76245 15.2528 1.01565 14.6425C1.27807 14.0098 1.13456 13.0872 1.61144 12.6105C2.08821 12.1338 3.01036 12.2779 3.643 12.0156C4.2532 11.7626 4.79838 11 5.50008 11C6.20178 11 6.74697 11.7626 7.35716 12.0156C7.9898 12.2779 8.9119 12.1338 9.38872 12.6105C9.86561 13.0872 9.72204 14.0098 9.98446 14.6425C10.2376 15.2528 11 15.798 11 16.5Z" fill="#BDDEE5"/>
<path d="M5.58624 14.0483L6.42159 15.3576C6.43532 15.379 6.45583 15.3947 6.47956 15.4017L7.92443 15.8307C7.9955 15.8518 8.02341 15.9419 7.9777 16.0028L7.04913 17.241C7.03387 17.2613 7.02601 17.2867 7.02698 17.3125L7.08459 18.8868C7.08745 18.9643 7.01438 19.02 6.94509 18.9932L5.53583 18.4492C5.51272 18.4403 5.48731 18.4403 5.4642 18.4492L4.05494 18.9932C3.9856 19.02 3.91258 18.9643 3.91539 18.8868L3.97299 17.3125C3.97396 17.2867 3.96611 17.2613 3.95085 17.241L3.02228 16.0028C2.97661 15.9419 3.00447 15.8518 3.07555 15.8307L4.52042 15.4017C4.54415 15.3947 4.56471 15.379 4.57838 15.3576L5.41373 14.0483C5.45491 13.9839 5.54517 13.9839 5.58624 14.0483Z" fill="white"/>
</svg>
