<svg width="18" height="17" viewBox="0 0 18 17" fill="none" xmlns="http://www.w3.org/2000/svg">
<path d="M4.52241 11.8229L4.49049 11.821C4.2399 11.8058 3.99823 11.7597 3.76873 11.6875L2.16476 14.4647C2.01781 14.7192 2.10721 15.0446 2.3635 15.1883L3.94237 16.0738C4.19423 16.2151 4.51292 16.1276 4.65731 15.8776L6.99907 11.8229H4.52241Z" fill="white"/>
<path d="M13.4294 0.0784626L8.66479 2.99545V11.3957L13.4354 14.2298C13.787 14.4387 14.2324 14.1854 14.2324 13.7765V0.528181C14.2324 0.116115 13.7809 -0.136729 13.4294 0.0784626Z" fill="white"/>
<path d="M1.70613 8.91515V5.37279C1.70613 5.1698 1.72811 4.97204 1.76878 4.78125H1.00181C0.448523 4.78125 0 5.22963 0 5.78274V8.5052C0 9.05831 0.448523 9.50669 1.00181 9.50669H1.7685C1.72796 9.31537 1.70613 9.11762 1.70613 8.91515Z" fill="white"/>
<path d="M7.60977 10.7674H4.55441C3.56406 10.7073 2.76123 9.90477 2.76123 8.91473V5.37239C2.76123 4.38235 3.56406 3.5798 4.55441 3.63989H7.60977V10.7674Z" fill="white"/>
<path d="M16.5487 11.4564C16.4137 11.4564 16.2787 11.4048 16.1757 11.3019L15.1115 10.2381C14.9055 10.0322 14.9055 9.69827 15.1115 9.49232C15.3175 9.28641 15.6516 9.28641 15.8576 9.49232L16.9217 10.5561C17.1277 10.762 17.1277 11.0959 16.9217 11.3019C16.8187 11.4048 16.6837 11.4564 16.5487 11.4564Z" fill="white"/>
<path d="M15.4846 5.12827C15.3495 5.12827 15.2146 5.0768 15.1115 4.97379C14.9055 4.76788 14.9055 4.43397 15.1115 4.22802L16.1757 3.16423C16.3817 2.95828 16.7157 2.95828 16.9217 3.16423C17.1277 3.37014 17.1277 3.70405 16.9217 3.91L15.8576 4.97379C15.7546 5.07677 15.6196 5.12827 15.4846 5.12827Z" fill="white"/>
<path d="M17.4724 7.76172H15.9675C15.6761 7.76172 15.4399 7.52561 15.4399 7.23438C15.4399 6.94314 15.6761 6.70703 15.9675 6.70703H17.4724C17.7637 6.70703 17.9999 6.94314 17.9999 7.23438C17.9999 7.52561 17.7637 7.76172 17.4724 7.76172Z" fill="white"/>
</svg>
