<svg width="18" height="20" viewBox="0 0 18 20" fill="none" xmlns="http://www.w3.org/2000/svg">
<path fill-rule="evenodd" clip-rule="evenodd" d="M13.0433 1.53788L13.0442 2.22503C15.5693 2.42294 17.2373 4.14357 17.24 6.78225L17.25 14.5059C17.2536 17.3828 15.4462 19.1529 12.5492 19.1575L5.47256 19.1666C2.59359 19.1703 0.763582 17.358 0.759962 14.4729L0.750006 6.83997C0.746386 4.18389 2.35557 2.46783 4.88066 2.23603L4.87975 1.54887C4.87885 1.14574 5.17751 0.842477 5.57574 0.842477C5.97396 0.841561 6.27262 1.14391 6.27353 1.54704L6.27444 2.18839L11.6504 2.18106L11.6495 1.53971C11.6486 1.13658 11.9473 0.834231 12.3455 0.833315C12.7347 0.832399 13.0424 1.13475 13.0433 1.53788ZM2.14469 7.12308L15.8472 7.10475V6.78408C15.8082 4.81424 14.8199 3.78075 13.046 3.62683L13.0469 4.33231C13.0469 4.72628 12.7401 5.03871 12.3509 5.03871C11.9527 5.03962 11.6531 4.72811 11.6531 4.33414L11.6522 3.59201L6.27624 3.59934L6.27715 4.34056C6.27715 4.73544 5.97939 5.04695 5.58116 5.04695C5.18294 5.04787 4.88337 4.73727 4.88337 4.34239L4.88246 3.63691C3.11762 3.81374 2.14107 4.85088 2.14378 6.83814L2.14469 7.12308ZM11.9699 11.2872V11.2973C11.979 11.7188 12.3229 12.0385 12.7401 12.0294C13.1474 12.0193 13.4723 11.6702 13.4632 11.2488C13.4442 10.8456 13.1175 10.5167 12.7112 10.5176C12.2948 10.5268 11.969 10.8658 11.9699 11.2872ZM12.7175 15.401C12.3012 15.3919 11.9654 15.0446 11.9645 14.6232C11.9554 14.2017 12.2894 13.8526 12.7057 13.8426H12.7148C13.1401 13.8426 13.485 14.1898 13.485 14.6204C13.4859 15.051 13.142 15.4001 12.7175 15.401ZM8.24111 11.3019C8.25921 11.7234 8.60403 12.0523 9.02036 12.034C9.42763 12.0147 9.75254 11.6666 9.73444 11.2451C9.72449 10.8328 9.38962 10.5121 8.98235 10.5131C8.56602 10.5314 8.2402 10.8805 8.24111 11.3019ZM9.02398 15.3598C8.60765 15.3781 8.26373 15.0492 8.24473 14.6277C8.24473 14.2063 8.56964 13.8581 8.98596 13.8389C9.39324 13.838 9.72901 14.1586 9.73806 14.57C9.75707 14.9924 9.43125 15.3406 9.02398 15.3598ZM4.5123 11.334C4.5304 11.7554 4.87522 12.0853 5.29155 12.066C5.69882 12.0477 6.02373 11.6986 6.00473 11.2772C5.99568 10.8649 5.66081 10.5442 5.25263 10.5451C4.83631 10.5634 4.51139 10.9125 4.5123 11.334ZM5.29517 15.3644C4.87885 15.3836 4.53493 15.0538 4.51592 14.6323C4.51502 14.2109 4.84083 13.8618 5.25716 13.8435C5.66443 13.8426 6.0002 14.1632 6.00925 14.5755C6.02826 14.997 5.70335 15.346 5.29517 15.3644Z" fill="#34AADC"/>
</svg>
