<svg width="10" height="10" viewBox="0 0 10 10" fill="none" xmlns="http://www.w3.org/2000/svg">
<path d="M9.20267 8.64124H6.1097C5.80794 8.64124 5.5625 8.88987 5.5625 9.19556C5.5625 9.50184 5.80794 9.74989 6.1097 9.74989H9.20267C9.50444 9.74989 9.74987 9.50184 9.74987 9.19556C9.74987 8.88987 9.50444 8.64124 9.20267 8.64124Z" fill="white"/>
<path d="M8.21317 3.06878L3.45388 9.22345C3.23546 9.50294 2.91358 9.66016 2.5687 9.66598L0.671881 9.68927C0.568418 9.68927 0.482199 9.6194 0.459207 9.52041L0.0281117 7.6513C-0.0466115 7.30776 0.0281117 6.95257 0.246533 6.6789L3.62057 2.31182C3.67805 2.24195 3.78151 2.23088 3.85049 2.28271L5.27023 3.41232C5.3622 3.48802 5.48865 3.52878 5.62085 3.51131C5.9025 3.47637 6.09219 3.22017 6.06345 2.9465C6.0462 2.80675 5.97723 2.6903 5.88526 2.60296C5.85652 2.57967 4.50575 1.49663 4.50575 1.49663C4.41954 1.42676 4.40229 1.29866 4.47127 1.2119L5.00583 0.518406C5.50015 -0.116276 6.36234 -0.174504 7.05784 0.378659L7.8568 1.01334C8.18443 1.26954 8.40286 1.60726 8.47758 1.96245C8.5638 2.35316 8.47183 2.73688 8.21317 3.06878Z" fill="white"/>
</svg>
