<svg width="18" height="19" viewBox="0 0 18 19" fill="none" xmlns="http://www.w3.org/2000/svg">
<path d="M17.7024 4.4549C17.1264 2.50171 15.4972 0.872557 13.544 0.296502C12.0589 -0.135539 11.0328 -0.0995354 10.3217 0.431515C9.46662 1.07058 9.36761 2.22269 9.36761 3.04176V5.28298C9.36761 7.49719 10.3757 8.62229 12.3559 8.62229H14.9391C15.7492 8.62229 16.9103 8.52328 17.5494 7.6682C18.0984 6.96614 18.1434 5.94004 17.7024 4.4549Z" fill="#34AADC"/>
<path d="M15.2182 10.2244C14.9841 9.95442 14.6421 9.8014 14.2911 9.8014H11.0688C9.48461 9.8014 8.19749 8.51428 8.19749 6.93013V3.70782C8.19749 3.35679 8.04448 3.01476 7.77445 2.78074C7.51342 2.54671 7.15339 2.4387 6.81136 2.48371C4.69616 2.75373 2.75197 3.91484 1.48285 5.66101C0.204731 7.41618 -0.263314 9.55838 0.141725 11.7006C0.72678 14.7969 3.20202 17.2721 6.30731 17.8572C6.80236 17.9562 7.2974 18.0012 7.79245 18.0012C9.42161 18.0012 10.9968 17.4971 12.3379 16.516C14.084 15.2469 15.2452 13.3027 15.5152 11.1875C15.5602 10.8365 15.4522 10.4855 15.2182 10.2244Z" fill="#34AADC"/>
</svg>
