<svg width="20" height="20" viewBox="0 0 20 20" fill="none" xmlns="http://www.w3.org/2000/svg">
<path fill-rule="evenodd" clip-rule="evenodd" d="M10.2991 1.0255C10.4455 0.894108 10.6391 0.825234 10.8373 0.834069C15.0272 0.959497 18.5289 4.00113 19.1635 8.06639C19.1676 8.09066 19.1676 8.11542 19.1635 8.13969C19.1772 8.33204 19.1122 8.5218 18.9829 8.66701C18.8536 8.81221 18.6706 8.90089 18.4745 8.91342L11.435 9.37766C11.2022 9.3983 10.9713 9.32169 10.7991 9.16666C10.6269 9.01163 10.5292 8.79253 10.5302 8.5632L10.057 1.64852V1.5345C10.0656 1.34002 10.1527 1.1569 10.2991 1.0255ZM9.81627 11.1857L15.9177 10.7948L15.9592 10.8111C16.2213 10.8154 16.4708 10.9216 16.6529 11.1064C16.8351 11.2913 16.9349 11.5395 16.9305 11.7966C16.6901 15.3002 14.1214 18.2275 10.6258 18.9817C7.13018 19.7359 3.54674 18.1358 1.83039 15.0544C1.3257 14.1669 1.00678 13.1894 0.892335 12.1794C0.847947 11.8801 0.828513 11.5777 0.834225 11.2753C0.845794 7.54979 3.49826 4.33412 7.20965 3.54619C7.65894 3.46209 8.1094 3.68642 8.30542 4.09187C8.35422 4.16544 8.39327 4.24481 8.42164 4.32806C8.49121 5.40199 8.56338 6.46575 8.63524 7.52502C8.69199 8.36162 8.74856 9.19542 8.8035 10.0292C8.80067 10.2256 8.83154 10.4211 8.89482 10.6075C9.04379 10.9742 9.4145 11.2068 9.81627 11.1857Z" fill="white"/>
</svg>
