<svg width="10" height="11" viewBox="0 0 10 11" fill="none" xmlns="http://www.w3.org/2000/svg">
<path d="M8.85504 3.68342C8.9658 3.68342 9.0663 3.73127 9.14572 3.81212C9.21974 3.89847 9.25702 4.00572 9.24622 4.11902C9.24622 4.15642 8.95013 7.86338 8.78101 9.42372C8.67511 10.3813 8.0516 10.9626 7.11633 10.9786C6.39718 10.9945 5.69424 11 5.00211 11C4.26729 11 3.54868 10.9945 2.85115 10.9786C1.94721 10.9571 1.32316 10.3653 1.22266 9.42372C1.04868 7.85788 0.757997 4.15642 0.752594 4.11902C0.74719 4.00572 0.783931 3.89847 0.858494 3.81212C0.931975 3.73127 1.03788 3.68342 1.14918 3.68342H8.85504ZM6.14707 0C6.63821 0 7.07694 0.339347 7.20391 0.823342L7.29468 1.22484C7.36817 1.55208 7.65453 1.78363 7.98412 1.78363H9.60396C9.82008 1.78363 10 1.96128 10 2.18733V2.39633C10 2.61687 9.82008 2.80002 9.60396 2.80002H0.396585C0.179922 2.80002 0 2.61687 0 2.39633V2.18733C0 1.96128 0.179922 1.78363 0.396585 1.78363H2.01643C2.34547 1.78363 2.63183 1.55208 2.70586 1.22539L2.79069 0.850291C2.92252 0.339347 3.35639 0 3.85293 0H6.14707Z" fill="white"/>
</svg>
