<svg width="14" height="16" viewBox="0 0 14 16" fill="none" xmlns="http://www.w3.org/2000/svg">
<path fill-rule="evenodd" clip-rule="evenodd" d="M7.11509 11.48L9.24628 9.3275C9.46163 9.1025 9.46163 8.75 9.23885 8.5325C9.02351 8.315 8.6745 8.315 8.45915 8.5325L7.27846 9.7325V6.1175C7.27846 5.8025 7.03341 5.555 6.72895 5.555C6.4245 5.555 6.17202 5.8025 6.17202 6.1175V9.7325L4.99133 8.5325C4.77598 8.315 4.42697 8.315 4.21163 8.5325C3.99628 8.75 3.99628 9.1025 4.21163 9.3275L6.33539 11.48C6.38737 11.5325 6.44677 11.57 6.51361 11.6C6.58044 11.63 6.6547 11.645 6.72895 11.645C6.80321 11.645 6.87004 11.63 6.93687 11.6C7.00371 11.57 7.06311 11.5325 7.11509 11.48ZM12.4961 5.76921C12.6707 5.76719 12.8607 5.765 13.0334 5.765C13.2265 5.765 13.375 5.915 13.375 6.1025V12.1325C13.375 13.9925 11.875 15.5 10.0334 15.5H4.12995C2.19183 15.5 0.625 13.9175 0.625 11.9675V3.8825C0.625 2.0225 2.11757 0.5 3.97401 0.5H7.93936C8.125 0.5 8.28094 0.6575 8.28094 0.845V3.26C8.28094 4.6325 9.3948 5.7575 10.7611 5.765C11.075 5.765 11.3558 5.76738 11.601 5.76946C11.7908 5.77107 11.9593 5.7725 12.1052 5.7725C12.2109 5.7725 12.3479 5.77092 12.4961 5.76921ZM12.7034 4.67457C12.0937 4.67682 11.3741 4.67457 10.8566 4.66932C10.0353 4.66932 9.3588 3.98607 9.3588 3.15657V1.17957C9.3588 0.856319 9.74717 0.695819 9.96846 0.929069C10.5402 1.52899 11.4155 2.44835 12.1554 3.22546C12.4551 3.54034 12.7327 3.83186 12.9588 4.06932C13.1756 4.29657 13.0167 4.67382 12.7034 4.67457Z" fill="#34AADC"/>
</svg>
