<svg width="16" height="16" viewBox="0 0 16 16" fill="none" xmlns="http://www.w3.org/2000/svg">
<path d="M7.33337 1.33337H6.00004C2.66671 1.33337 1.33337 2.66671 1.33337 6.00004V10C1.33337 13.3334 2.66671 14.6667 6.00004 14.6667H10C13.3334 14.6667 14.6667 13.3334 14.6667 10V8.66671" stroke="#C7C9DA" stroke-width="1.5" stroke-linecap="round" stroke-linejoin="round"/>
<path d="M10.6934 2.01338L5.44004 7.26671C5.24004 7.46671 5.04004 7.86005 5.00004 8.14671L4.71337 10.1534C4.60671 10.88 5.12004 11.3867 5.84671 11.2867L7.85337 11C8.13337 10.96 8.52671 10.76 8.73338 10.56L13.9867 5.30671C14.8934 4.40005 15.32 3.34671 13.9867 2.01338C12.6534 0.680046 11.6 1.10671 10.6934 2.01338Z" stroke="#C7C9DA" stroke-width="1.5" stroke-miterlimit="10" stroke-linecap="round" stroke-linejoin="round"/>
<path d="M9.93994 2.76672C10.3866 4.36006 11.6333 5.60672 13.2333 6.06006" stroke="#C7C9DA" stroke-width="1.5" stroke-miterlimit="10" stroke-linecap="round" stroke-linejoin="round"/>
</svg>
