<svg width="16" height="13" viewBox="0 0 16 13" fill="none" xmlns="http://www.w3.org/2000/svg">
<path fill-rule="evenodd" clip-rule="evenodd" d="M8.00206 0.000488281C11.1041 0.00273828 13.8896 2.17699 15.4541 5.81749C15.5156 5.95924 15.5156 6.11974 15.4541 6.26149C13.8903 9.90274 11.1041 12.077 8.00206 12.0792H7.99756C4.89556 12.077 2.11006 9.90274 0.545562 6.26149C0.484813 6.11974 0.484813 5.95924 0.545562 5.81749C2.11006 2.17699 4.89631 0.00273828 7.99756 0.000488281H8.00206ZM7.99981 1.12549C5.42281 1.12624 3.07231 2.95849 1.67731 6.03949C3.07231 9.12124 5.42206 10.9535 7.99981 10.9542C10.5776 10.9535 12.9273 9.12124 14.3223 6.03949C12.9273 2.95849 10.5776 1.12624 7.99981 1.12549ZM7.99959 3.10609C9.61734 3.10609 10.9336 4.42234 10.9336 6.04009C10.9336 7.65709 9.61734 8.97259 7.99959 8.97259C6.38184 8.97259 5.06634 7.65709 5.06634 6.04009C5.06634 4.42234 6.38184 3.10609 7.99959 3.10609ZM7.99959 4.23109C7.00209 4.23109 6.19134 5.04259 6.19134 6.04009C6.19134 7.03684 7.00209 7.84759 7.99959 7.84759C8.99709 7.84759 9.80859 7.03684 9.80859 6.04009C9.80859 5.04259 8.99709 4.23109 7.99959 4.23109Z" fill="#8F93B5"/>
</svg>
