<svg width="46" height="55" viewBox="0 0 46 55" fill="none" xmlns="http://www.w3.org/2000/svg">
<path fill-rule="evenodd" clip-rule="evenodd" d="M14.6814 38.9375H29.2557C30.3541 38.9375 31.265 38.0175 31.265 36.9081C31.265 35.7987 30.3541 34.9058 29.2557 34.9058H14.6814C13.583 34.9058 12.6721 35.7987 12.6721 36.9081C12.6721 38.0175 13.583 38.9375 14.6814 38.9375ZM23.7367 21.3764H14.6814C13.583 21.3764 12.6721 22.2964 12.6721 23.4058C12.6721 24.5152 13.583 25.4081 14.6814 25.4081H23.7367C24.8352 25.4081 25.746 24.5152 25.746 23.4058C25.746 22.2964 24.8352 21.3764 23.7367 21.3764ZM42.8559 19.0105C43.4857 19.0032 44.1714 18.9953 44.7944 18.9953C45.4642 18.9953 46 19.5365 46 20.2129V41.9682C46 48.6788 40.615 54.1176 33.9709 54.1176H12.6453C5.67967 54.1176 0 48.4082 0 41.3729V12.2035C0 5.49294 5.41176 0 12.0827 0H26.389C27.0856 0 27.6214 0.568235 27.6214 1.24471V9.95765C27.6214 14.9094 31.6669 18.9682 36.5696 18.9953C37.7148 18.9953 38.7244 19.0039 39.6079 19.0113C40.2952 19.0172 40.9063 19.0224 41.4455 19.0224C41.8269 19.0224 42.3213 19.0166 42.8559 19.0105ZM43.5957 15.061C41.3934 15.0692 38.7974 15.061 36.9301 15.0421C33.967 15.0421 31.5263 12.577 31.5263 9.58433V2.45163C31.5263 1.28539 32.9275 0.706332 33.7286 1.54786C35.1792 3.07126 37.1729 5.16558 39.1572 7.25004C41.1345 9.32716 43.1025 11.3945 44.5146 12.8774C45.2969 13.6973 44.7235 15.0583 43.5957 15.061Z" fill="#DEECEF"/>
</svg>
