<svg width="8" height="10" viewBox="0 0 8 10" fill="none" xmlns="http://www.w3.org/2000/svg">
<path d="M0.0809054 5.1997C0.924129 5.41294 1.9647 5.72687 2.59264 6.35472C3.35812 7.11881 3.63919 8.28568 3.88438 9.44662C3.9083 9.55916 4.06379 9.55916 4.08771 9.44662C4.29104 8.51668 4.5482 7.3972 5.09241 6.70419C5.78612 5.82756 6.85062 5.46625 7.90315 5.1997C8.0108 5.17009 8.0108 5.02201 7.90315 4.99832C6.98817 4.76731 5.93563 4.45931 5.2778 3.7426C4.59604 2.99628 4.32095 1.82942 4.08771 0.751397C4.06379 0.638857 3.9083 0.638857 3.88438 0.751397C3.66909 1.76426 3.29233 2.91928 2.67636 3.64191C2.00059 4.42969 1.04972 4.74954 0.0809054 4.99832C-0.0267401 5.02201 -0.0267401 5.17009 0.0809054 5.1997Z" fill="#49C00F"/>
</svg>
