<svg width="12" height="10" viewBox="0 0 12 10" fill="none" xmlns="http://www.w3.org/2000/svg">
<path d="M9.93861 0.123944C10.108 -0.0413146 10.3735 -0.0413146 10.5373 0.123944C10.7067 0.289202 10.7067 0.562733 10.5373 0.727992L9.50937 1.76513C10.3283 2.51734 11.023 3.53169 11.5426 4.75118C11.5878 4.85945 11.5878 4.98482 11.5426 5.0874C10.334 7.92528 8.18214 9.62345 5.78747 9.62345H5.78182C4.6918 9.62345 3.64696 9.26444 2.72636 8.60911L1.63069 9.71463C1.54597 9.80011 1.43866 9.84 1.33136 9.84C1.22405 9.84 1.11109 9.80011 1.03202 9.71463C0.890828 9.57217 0.868237 9.34422 0.981193 9.17897L0.998136 9.15617L9.35124 0.727992C9.36253 0.716595 9.37383 0.705198 9.37947 0.6938C9.39077 0.682403 9.40207 0.671006 9.40771 0.659609L9.93861 0.123944ZM5.789 0.223042C6.59663 0.223042 7.38168 0.416793 8.1046 0.781501L6.21823 2.68482C6.08268 2.66203 5.93584 2.64493 5.789 2.64493C4.54083 2.64493 3.52988 3.66498 3.52988 4.92436C3.52988 5.07252 3.54682 5.22069 3.56941 5.35745L1.47972 7.46592C0.914944 6.80489 0.423585 6.00709 0.0338868 5.08962C-0.0112956 4.98704 -0.0112956 4.86168 0.0338868 4.7534C1.24252 1.91552 3.39433 0.223042 5.78335 0.223042H5.789ZM7.65125 3.63996L7.03564 4.2611C7.1373 4.45485 7.19378 4.6828 7.19378 4.92214C7.19378 5.70284 6.56122 6.34108 5.78747 6.34108C5.55026 6.34108 5.32435 6.28409 5.13233 6.18152L4.51672 6.80266C4.87818 7.0477 5.31871 7.19587 5.78747 7.19587C7.02999 7.19587 8.04095 6.17582 8.04095 4.92214C8.04095 4.44916 7.8941 4.00467 7.65125 3.63996Z" fill="white"/>
</svg>
