<svg width="18" height="18" viewBox="0 0 18 18" fill="none" xmlns="http://www.w3.org/2000/svg">
<path fill-rule="evenodd" clip-rule="evenodd" d="M5.38857 17.3333H12.6108C15.436 17.3333 17.3334 15.3515 17.3334 12.4027V5.59723C17.3334 2.64839 15.436 0.666626 12.6116 0.666626H5.38857C2.56416 0.666626 0.666748 2.64839 0.666748 5.59723V12.4027C0.666748 15.3515 2.56416 17.3333 5.38857 17.3333ZM6.08246 8.16663C4.93359 8.16663 4.00008 7.23185 4.00008 6.08329C4.00008 4.93473 4.93359 3.99996 6.08246 3.99996C7.2305 3.99996 8.16484 4.93473 8.16484 6.08329C8.16484 7.23185 7.2305 8.16663 6.08246 8.16663ZM15.5174 11.4449C15.7965 12.1604 15.6515 13.0204 15.3532 13.7291C14.9996 14.5719 14.3225 15.21 13.4694 15.4886C13.0906 15.6125 12.6934 15.6666 12.2971 15.6666H5.27395C4.57508 15.6666 3.95665 15.4989 3.44967 15.1868C3.13207 14.9907 3.07593 14.5383 3.3114 14.2451C3.70525 13.7549 4.09407 13.263 4.48625 12.7667C5.23373 11.8173 5.73735 11.5421 6.29713 11.7838C6.52422 11.8835 6.75215 12.0332 6.98678 12.1914C7.61192 12.6162 8.4809 13.2002 9.62558 12.5664C10.4089 12.1276 10.8633 11.3751 11.2589 10.7197L11.2655 10.7088C11.2935 10.6628 11.3213 10.6168 11.349 10.571L11.3491 10.5709C11.482 10.3509 11.6132 10.1339 11.7616 9.93392C11.9476 9.68366 12.6373 8.90107 13.5306 9.45834C14.0996 9.80922 14.578 10.2839 15.0901 10.7922C15.2853 10.9865 15.4244 11.2076 15.5174 11.4449Z" fill="#036B84"/>
</svg>
