<svg width="18" height="20" viewBox="0 0 18 20" fill="none" xmlns="http://www.w3.org/2000/svg">
<path fill-rule="evenodd" clip-rule="evenodd" d="M5.15917 0.833328H12.8418C15.6733 0.833328 17.25 2.46499 17.25 5.26083V14.73C17.25 17.5717 15.6733 19.1667 12.8418 19.1667H5.15917C2.3725 19.1667 0.75 17.5717 0.75 14.73V5.26083C0.75 2.46499 2.3725 0.833328 5.15917 0.833328ZM5.40666 5.10499V5.09583H8.14658C8.54166 5.09583 8.8625 5.41666 8.8625 5.80991C8.8625 6.21416 8.54166 6.53499 8.14658 6.53499H5.40666C5.01158 6.53499 4.69166 6.21416 4.69166 5.81999C4.69166 5.42583 5.01158 5.10499 5.40666 5.10499ZM5.40666 10.6783H12.5933C12.9875 10.6783 13.3083 10.3575 13.3083 9.96333C13.3083 9.56916 12.9875 9.24741 12.5933 9.24741H5.40666C5.01158 9.24741 4.69166 9.56916 4.69166 9.96333C4.69166 10.3575 5.01158 10.6783 5.40666 10.6783ZM5.40666 14.8675H12.5933C12.9591 14.8308 13.235 14.5182 13.235 14.1525C13.235 13.7767 12.9591 13.465 12.5933 13.4283H5.40666C5.13166 13.4008 4.86583 13.5292 4.71916 13.7675C4.5725 13.9967 4.5725 14.2992 4.71916 14.5375C4.86583 14.7667 5.13166 14.9042 5.40666 14.8675Z" fill="white"/>
</svg>
