<svg width="123" height="45" viewBox="0 0 123 45" fill="none" xmlns="http://www.w3.org/2000/svg">
<path d="M0 34.3175V0.656067H13.4646C15.8645 0.656067 17.8047 1.13917 19.2852 2.10538C20.7657 3.056 21.8488 4.25597 22.5344 5.70528C23.2202 7.1546 23.563 8.61949 23.563 10.1C23.563 11.9856 23.1345 13.5518 22.2774 14.7985C21.4358 16.0453 20.2748 16.879 18.7943 17.2997V16.131C20.8981 16.5673 22.4722 17.5413 23.5162 19.053C24.576 20.5646 25.1058 22.2555 25.1058 24.1256C25.1058 26.1359 24.7318 27.9047 23.9837 29.4319C23.2513 30.9592 22.1292 32.1591 20.6177 33.0318C19.106 33.8889 17.2047 34.3175 14.9139 34.3175H0ZM6.45178 28.3333H14.2593C15.1164 28.3333 15.8801 28.1541 16.5502 27.7956C17.2203 27.4216 17.7424 26.9073 18.1164 26.2528C18.506 25.5827 18.7008 24.7957 18.7008 23.8918C18.7008 23.097 18.5372 22.388 18.2099 21.7646C17.8826 21.1413 17.3839 20.6503 16.7139 20.2919C16.0593 19.9179 15.2411 19.7309 14.2593 19.7309H6.45178V28.3333ZM6.45178 13.7934H13.3711C14.088 13.7934 14.7269 13.6687 15.2879 13.4194C15.8489 13.17 16.293 12.7882 16.6204 12.274C16.9476 11.7441 17.1112 11.0662 17.1112 10.2403C17.1112 9.21169 16.7917 8.34677 16.1528 7.64549C15.5139 6.94421 14.5867 6.59357 13.3711 6.59357H6.45178V13.7934Z" fill="#131A20"/>
<path d="M57.39 34.3175V0.656067H71.6025C71.9298 0.656067 72.3661 0.671651 72.9116 0.702818C73.4726 0.718403 73.9713 0.765154 74.4077 0.843075C76.418 1.15475 78.0621 1.81707 79.34 2.83003C80.6335 3.84299 81.5841 5.12088 82.1919 6.6637C82.7996 8.19093 83.1035 9.89734 83.1035 11.783C83.1035 14.6037 82.4023 17.0193 80.9997 19.0296C79.5972 21.0243 77.3997 22.2555 74.4077 22.723L71.6025 22.91H63.7482V34.3175H57.39ZM76.3713 34.3175L69.7325 20.6191L76.2777 19.3569L83.571 34.3175H76.3713ZM63.7482 16.9725H71.3221C71.6493 16.9725 72.0077 16.9569 72.3973 16.9257C72.7869 16.8946 73.1454 16.8322 73.4726 16.7388C74.3297 16.505 74.992 16.1154 75.4596 15.5699C75.9271 15.0089 76.2466 14.3933 76.418 13.7233C76.605 13.0375 76.6985 12.3908 76.6985 11.783C76.6985 11.1753 76.605 10.5363 76.418 9.86624C76.2466 9.18051 75.9271 8.56495 75.4596 8.01951C74.992 7.45848 74.3297 7.06109 73.4726 6.82733C73.1454 6.73383 72.7869 6.67149 72.3973 6.64032C72.0077 6.60916 71.6493 6.59357 71.3221 6.59357H63.7482V16.9725Z" fill="#131A20"/>
<path d="M0.398315 44.2098V40.1127H1.99447C2.23916 40.1127 2.4478 40.163 2.62041 40.2635C2.79492 40.364 2.92769 40.4968 3.01874 40.6618C3.11167 40.825 3.15815 41.0014 3.15815 41.1911C3.15815 41.413 3.10125 41.6074 2.98744 41.7744C2.87363 41.9412 2.71999 42.056 2.52651 42.1186L2.52083 41.9791C2.78448 42.0494 2.98934 42.1784 3.13539 42.3661C3.28145 42.5539 3.35447 42.7777 3.35447 43.0376C3.35447 43.2766 3.30515 43.4833 3.20652 43.6578C3.10978 43.8323 2.96942 43.968 2.78543 44.0647C2.60334 44.1614 2.3871 44.2098 2.13672 44.2098H0.398315ZM0.91045 43.7261H2.03999C2.19173 43.7261 2.32735 43.6986 2.44686 43.6436C2.56635 43.5867 2.66024 43.5071 2.72853 43.4046C2.79871 43.3022 2.8338 43.1789 2.8338 43.0348C2.8338 42.8962 2.8025 42.772 2.73991 42.662C2.67921 42.552 2.5929 42.4647 2.48099 42.4002C2.37098 42.3339 2.24295 42.3007 2.0969 42.3007H0.91045V43.7261ZM0.91045 41.8227H1.98878C2.11017 41.8227 2.21923 41.7971 2.31597 41.7459C2.4146 41.6928 2.49238 41.6188 2.54928 41.5239C2.60808 41.4291 2.63748 41.3181 2.63748 41.1911C2.63748 41.0147 2.57773 40.8705 2.45823 40.7586C2.33874 40.6467 2.18225 40.5908 1.98878 40.5908H0.91045V41.8227Z" fill="#131A20"/>
<path d="M5.82206 44.2951C5.5053 44.2951 5.22552 44.2297 4.98273 44.0989C4.73994 43.968 4.54931 43.7849 4.41084 43.5497C4.27427 43.3126 4.20599 43.0348 4.20599 42.7161V40.1156L4.71812 40.1127V42.6734C4.71812 42.8669 4.75037 43.0357 4.81486 43.1798C4.88125 43.3221 4.9685 43.4406 5.07662 43.5355C5.18474 43.6303 5.30328 43.7015 5.43227 43.7489C5.56315 43.7944 5.69308 43.8172 5.82206 43.8172C5.95294 43.8172 6.08381 43.7935 6.2147 43.7461C6.34557 43.6986 6.46413 43.6284 6.57034 43.5355C6.67846 43.4406 6.76476 43.3212 6.82926 43.177C6.89375 43.0328 6.926 42.865 6.926 42.6734V40.1127H7.43813V42.7161C7.43813 43.0328 7.3689 43.3098 7.23043 43.5469C7.09386 43.784 6.90418 43.968 6.66139 44.0989C6.4186 44.2297 6.13882 44.2951 5.82206 44.2951Z" fill="#131A20"/>
<path d="M9.80097 44.2951C9.51075 44.2951 9.24894 44.2458 9.01567 44.1472C8.78427 44.0485 8.59269 43.9082 8.44094 43.7261C8.29109 43.5421 8.19341 43.325 8.14789 43.0745L8.6714 42.992C8.73779 43.25 8.87531 43.452 9.08396 43.598C9.29453 43.7423 9.54203 43.8143 9.82654 43.8143C10.0105 43.8143 10.1765 43.7858 10.3245 43.729C10.4743 43.6702 10.5928 43.5867 10.6801 43.4786C10.7674 43.3705 10.811 43.2425 10.811 43.0944C10.811 43.0034 10.7949 42.9257 10.7626 42.8611C10.7323 42.7948 10.6896 42.7388 10.6346 42.6933C10.5815 42.6459 10.5208 42.6061 10.4525 42.5738C10.3842 42.5416 10.313 42.515 10.2391 42.4941L9.19492 42.184C9.08111 42.1498 8.9711 42.1072 8.86487 42.056C8.75866 42.0028 8.66382 41.9374 8.58036 41.8596C8.4969 41.78 8.43051 41.6851 8.3812 41.5751C8.33188 41.4633 8.30722 41.3314 8.30722 41.1797C8.30722 40.9369 8.36981 40.7301 8.495 40.5594C8.62209 40.3868 8.79374 40.255 9.00998 40.1639C9.22621 40.0728 9.46996 40.0283 9.74117 40.0302C10.0163 40.0321 10.2618 40.0814 10.4781 40.1781C10.6962 40.273 10.8764 40.4096 11.0187 40.5879C11.1629 40.7662 11.2596 40.9795 11.3089 41.228L10.7711 41.3219C10.7427 41.155 10.6791 41.0118 10.5806 40.8923C10.4838 40.7709 10.3624 40.6779 10.2163 40.6134C10.0703 40.5471 9.91005 40.5129 9.73555 40.511C9.56861 40.5092 9.41782 40.5357 9.28309 40.5907C9.14845 40.6457 9.04128 40.7225 8.96161 40.8212C8.88195 40.9179 8.84212 41.0298 8.84212 41.1569C8.84212 41.2821 8.87815 41.3835 8.95023 41.4613C9.02231 41.5372 9.11051 41.5979 9.21484 41.6434C9.32102 41.687 9.42446 41.7231 9.52496 41.7515L10.3046 41.9763C10.3937 42.001 10.4961 42.0351 10.6119 42.0787C10.7294 42.1223 10.8432 42.184 10.9532 42.2637C11.0633 42.3414 11.1543 42.4458 11.2264 42.5766C11.2984 42.7057 11.3345 42.8687 11.3345 43.066C11.3345 43.2633 11.2947 43.4387 11.215 43.5924C11.1372 43.746 11.0281 43.875 10.8878 43.9793C10.7474 44.0818 10.5844 44.1596 10.3984 44.2126C10.2126 44.2676 10.0134 44.2951 9.80097 44.2951Z" fill="#131A20"/>
<path d="M12.2728 44.2098V40.1127H12.7792V44.2098H12.2728Z" fill="#131A20"/>
<path d="M13.9174 44.2098V40.1127H14.4296L16.5663 43.3135V40.1127H17.0784V44.2098H16.5663L14.4296 41.0061V44.2098H13.9174Z" fill="#131A20"/>
<path d="M18.1585 44.2098V40.1127H20.7477V40.5935H18.665V41.8767H20.4062V42.3576H18.665V43.729H20.7477V44.2098H18.1585Z" fill="#131A20"/>
<path d="M23.0533 44.2951C22.7631 44.2951 22.5014 44.2458 22.268 44.1472C22.0366 44.0485 21.8451 43.9082 21.6933 43.7261C21.5435 43.5421 21.4458 43.325 21.4003 43.0745L21.9238 42.992C21.9901 43.25 22.1276 43.452 22.3363 43.598C22.5469 43.7423 22.7944 43.8143 23.0789 43.8143C23.2629 43.8143 23.4289 43.7858 23.5768 43.729C23.7267 43.6702 23.8452 43.5867 23.9325 43.4786C24.0197 43.3705 24.0633 43.2425 24.0633 43.0944C24.0633 43.0034 24.0472 42.9257 24.015 42.8611C23.9846 42.7948 23.942 42.7388 23.8869 42.6933C23.8338 42.6459 23.7731 42.6061 23.7048 42.5738C23.6365 42.5416 23.5655 42.515 23.4915 42.4941L22.4473 42.184C22.3334 42.1498 22.2234 42.1072 22.1172 42.056C22.011 42.0028 21.9162 41.9374 21.8327 41.8596C21.7493 41.78 21.6828 41.6851 21.6336 41.5751C21.5843 41.4633 21.5595 41.3314 21.5595 41.1797C21.5595 40.9369 21.6222 40.7301 21.7473 40.5594C21.8744 40.3868 22.0462 40.255 22.2624 40.1639C22.4786 40.0728 22.7223 40.0283 22.9935 40.0302C23.2686 40.0321 23.5143 40.0814 23.7305 40.1781C23.9485 40.273 24.1288 40.4096 24.2711 40.5879C24.4152 40.7662 24.5119 40.9795 24.5613 41.228L24.0235 41.3219C23.9951 41.155 23.9316 41.0118 23.8329 40.8923C23.7361 40.7709 23.6148 40.6779 23.4687 40.6134C23.3227 40.5471 23.1624 40.5129 22.9879 40.511C22.821 40.5092 22.6702 40.5357 22.5355 40.5907C22.4008 40.6457 22.2937 40.7225 22.214 40.8212C22.1343 40.9179 22.0945 41.0298 22.0945 41.1569C22.0945 41.2821 22.1305 41.3835 22.2026 41.4613C22.2746 41.5372 22.3629 41.5979 22.4672 41.6434C22.5735 41.687 22.6768 41.7231 22.7773 41.7515L23.5569 41.9763C23.646 42.001 23.7485 42.0351 23.8642 42.0787C23.9818 42.1223 24.0956 42.184 24.2056 42.2637C24.3156 42.3414 24.4066 42.4458 24.4787 42.5766C24.5508 42.7057 24.5869 42.8687 24.5869 43.066C24.5869 43.2633 24.547 43.4387 24.4674 43.5924C24.3896 43.746 24.2805 43.875 24.1401 43.9793C23.9998 44.0818 23.8367 44.1596 23.6508 44.2126C23.4649 44.2676 23.2658 44.2951 23.0533 44.2951Z" fill="#131A20"/>
<path d="M27.0055 44.2951C26.7152 44.2951 26.4534 44.2458 26.2201 44.1472C25.9888 44.0485 25.7972 43.9082 25.6454 43.7261C25.4955 43.5421 25.3979 43.325 25.3524 43.0745L25.8759 42.992C25.9423 43.25 26.0798 43.452 26.2884 43.598C26.499 43.7423 26.7465 43.8143 27.031 43.8143C27.215 43.8143 27.381 43.7858 27.529 43.729C27.6788 43.6702 27.7973 43.5867 27.8846 43.4786C27.9718 43.3705 28.0155 43.2425 28.0155 43.0944C28.0155 43.0034 27.9993 42.9257 27.9671 42.8611C27.9368 42.7948 27.8941 42.7388 27.8391 42.6933C27.786 42.6459 27.7253 42.6061 27.657 42.5738C27.5887 42.5416 27.5175 42.515 27.4436 42.4941L26.3995 42.184C26.2856 42.1498 26.1756 42.1072 26.0694 42.056C25.9631 42.0028 25.8683 41.9374 25.7849 41.8596C25.7014 41.78 25.635 41.6851 25.5857 41.5751C25.5363 41.4633 25.5117 41.3314 25.5117 41.1797C25.5117 40.9369 25.5743 40.7301 25.6995 40.5594C25.8266 40.3868 25.9982 40.255 26.2145 40.1639C26.4307 40.0728 26.6745 40.0283 26.9457 40.0302C27.2208 40.0321 27.4663 40.0814 27.6826 40.1781C27.9007 40.273 28.0809 40.4096 28.2232 40.5879C28.3674 40.7662 28.4641 40.9795 28.5134 41.228L27.9756 41.3219C27.9472 41.155 27.8836 41.0118 27.785 40.8923C27.6883 40.7709 27.5669 40.6779 27.4208 40.6134C27.2747 40.5471 27.1145 40.5129 26.94 40.511C26.7731 40.5092 26.6223 40.5357 26.4876 40.5907C26.3529 40.6457 26.2458 40.7225 26.1661 40.8212C26.0864 40.9179 26.0466 41.0298 26.0466 41.1569C26.0466 41.2821 26.0826 41.3835 26.1547 41.4613C26.2268 41.5372 26.315 41.5979 26.4193 41.6434C26.5255 41.687 26.629 41.7231 26.7295 41.7515L27.509 41.9763C27.5982 42.001 27.7006 42.0351 27.8163 42.0787C27.9339 42.1223 28.0477 42.184 28.1577 42.2637C28.2678 42.3414 28.3588 42.4458 28.4309 42.5766C28.5029 42.7057 28.539 42.8687 28.539 43.066C28.539 43.2633 28.4991 43.4387 28.4195 43.5924C28.3417 43.746 28.2326 43.875 28.0923 43.9793C27.9519 44.0818 27.7888 44.1596 27.6029 44.2126C27.417 44.2676 27.2179 44.2951 27.0055 44.2951Z" fill="#131A20"/>
<path d="M31.8997 44.2098V40.5935H30.5026V40.1127H33.8031V40.5935H32.4061V44.2098H31.8997Z" fill="#131A20"/>
<path d="M34.5406 44.2098V40.1127H37.1297V40.5935H35.047V41.8767H36.7883V42.3576H35.047V43.729H37.1297V44.2098H34.5406Z" fill="#131A20"/>
<path d="M37.8137 44.2098L39.1851 40.1127H39.8907L41.2621 44.2098H40.7357L39.4525 40.4086H39.6119L38.34 44.2098H37.8137ZM38.4738 43.251V42.7758H40.602V43.251H38.4738Z" fill="#131A20"/>
<path d="M42.0558 44.2098V40.1127H42.5168L44.0646 43.3762L45.6038 40.1127H46.0705V44.2069H45.5896V41.2252L44.1983 44.2098H43.928L42.5367 41.2252V44.2098H42.0558Z" fill="#131A20"/>
<path d="M48.5765 44.2098V40.1127H50.1954C50.2352 40.1127 50.2826 40.1146 50.3376 40.1185C50.3927 40.1203 50.4457 40.126 50.497 40.1355C50.7189 40.1697 50.9048 40.2455 51.0546 40.3631C51.2063 40.4807 51.3202 40.6296 51.3961 40.8098C51.4719 40.9881 51.5099 41.1863 51.5099 41.4044C51.5099 41.7212 51.4274 41.9962 51.2623 42.2296C51.0973 42.4609 50.8555 42.6061 50.5368 42.6649L50.3433 42.6962H49.0829V44.2098H48.5765ZM51.0148 44.2098L50.2067 42.5425L50.7075 42.3889L51.5952 44.2098H51.0148ZM49.0829 42.2153H50.1783C50.2143 42.2153 50.2551 42.2134 50.3007 42.2097C50.3481 42.2059 50.3927 42.1992 50.4344 42.1897C50.5652 42.1594 50.6715 42.1044 50.753 42.0247C50.8365 41.9431 50.8972 41.8483 50.9351 41.7402C50.973 41.6301 50.9921 41.5183 50.9921 41.4044C50.9921 41.2906 50.973 41.1797 50.9351 41.0715C50.8972 40.9615 50.8365 40.8658 50.753 40.7842C50.6715 40.7026 50.5652 40.6476 50.4344 40.6192C50.3927 40.6078 50.3481 40.6012 50.3007 40.5992C50.2551 40.5955 50.2143 40.5935 50.1783 40.5935H49.0829V42.2153Z" fill="#131A20"/>
<path d="M52.5065 44.2098V40.1127H55.0955V40.5935H53.0129V41.8767H54.7542V42.3576H53.0129V43.729H55.0955V44.2098H52.5065Z" fill="#131A20"/>
<path d="M57.4012 44.2951C57.111 44.2951 56.8492 44.2458 56.6159 44.1472C56.3845 44.0485 56.1929 43.9082 56.0412 43.7261C55.8913 43.5421 55.7937 43.325 55.7481 43.0745L56.2716 42.992C56.3381 43.25 56.4756 43.452 56.6842 43.598C56.8947 43.7423 57.1423 43.8143 57.4268 43.8143C57.6108 43.8143 57.7767 43.7858 57.9247 43.729C58.0745 43.6702 58.1931 43.5867 58.2803 43.4786C58.3676 43.3705 58.4113 43.2425 58.4113 43.0944C58.4113 43.0034 58.3951 42.9257 58.3628 42.8611C58.3326 42.7948 58.2898 42.7388 58.2348 42.6933C58.1818 42.6459 58.1211 42.6061 58.0528 42.5738C57.9845 42.5416 57.9133 42.515 57.8394 42.4941L56.7951 42.184C56.6814 42.1498 56.5714 42.1072 56.4651 42.056C56.3589 42.0028 56.2641 41.9374 56.1806 41.8596C56.0971 41.78 56.0308 41.6851 55.9815 41.5751C55.9321 41.4633 55.9075 41.3314 55.9075 41.1797C55.9075 40.9369 55.97 40.7301 56.0953 40.5594C56.2223 40.3868 56.394 40.255 56.6102 40.1639C56.8265 40.0728 57.0702 40.0283 57.3415 40.0302C57.6165 40.0321 57.8621 40.0814 58.0783 40.1781C58.2965 40.273 58.4767 40.4096 58.6189 40.5879C58.7631 40.7662 58.8599 40.9795 58.9091 41.228L58.3714 41.3219C58.343 41.155 58.2794 41.0118 58.1808 40.8923C58.084 40.7709 57.9627 40.6779 57.8166 40.6134C57.6705 40.5471 57.5102 40.5129 57.3357 40.511C57.1689 40.5092 57.018 40.5357 56.8834 40.5907C56.7487 40.6457 56.6415 40.7225 56.5619 40.8212C56.4822 40.9179 56.4423 41.0298 56.4423 41.1569C56.4423 41.2821 56.4784 41.3835 56.5505 41.4613C56.6226 41.5372 56.7108 41.5979 56.8151 41.6434C56.9213 41.687 57.0246 41.7231 57.1252 41.7515L57.9048 41.9763C57.994 42.001 58.0964 42.0351 58.212 42.0787C58.3297 42.1223 58.4435 42.184 58.5535 42.2637C58.6635 42.3414 58.7546 42.4458 58.8266 42.5766C58.8987 42.7057 58.9348 42.8687 58.9348 43.066C58.9348 43.2633 58.8949 43.4387 58.8153 43.5924C58.7375 43.746 58.6284 43.875 58.4881 43.9793C58.3477 44.0818 58.1845 44.1596 57.9987 44.2126C57.8128 44.2676 57.6137 44.2951 57.4012 44.2951Z" fill="#131A20"/>
<path d="M61.5005 44.2951C61.0927 44.2951 60.7465 44.205 60.462 44.0248C60.1775 43.8447 59.9603 43.5942 59.8104 43.2737C59.6625 42.9531 59.5886 42.5824 59.5886 42.1613C59.5886 41.7402 59.6625 41.3693 59.8104 41.0487C59.9603 40.7282 60.1775 40.4779 60.462 40.2976C60.7465 40.1174 61.0927 40.0273 61.5005 40.0273C61.9102 40.0273 62.2574 40.1174 62.5419 40.2976C62.8264 40.4779 63.0426 40.7282 63.1905 41.0487C63.3384 41.3693 63.4125 41.7402 63.4125 42.1613C63.4125 42.5824 63.3384 42.9531 63.1905 43.2737C63.0426 43.5942 62.8264 43.8447 62.5419 44.0248C62.2574 44.205 61.9102 44.2951 61.5005 44.2951ZM61.5005 43.8115C61.8059 43.8133 62.0601 43.745 62.263 43.6066C62.4679 43.4662 62.6206 43.2718 62.7211 43.0234C62.8235 42.7749 62.8747 42.4875 62.8747 42.1613C62.8747 41.8331 62.8235 41.5458 62.7211 41.2992C62.6206 41.0526 62.4679 40.86 62.263 40.7216C62.0601 40.5831 61.8059 40.5129 61.5005 40.511C61.1951 40.5091 60.941 40.5774 60.738 40.7159C60.5369 40.8544 60.3851 41.0478 60.2827 41.2963C60.1804 41.5447 60.1281 41.8331 60.1263 42.1613C60.1244 42.4875 60.1746 42.7739 60.2771 43.0205C60.3795 43.2671 60.5321 43.4605 60.7352 43.6009C60.94 43.7394 61.1951 43.8095 61.5005 43.8115Z" fill="#131A20"/>
<path d="M65.8845 44.2951C65.5677 44.2951 65.288 44.2297 65.0452 44.0989C64.8024 43.968 64.6117 43.7849 64.4732 43.5497C64.3367 43.3126 64.2684 43.0348 64.2684 42.7161V40.1156L64.7805 40.1127V42.6734C64.7805 42.8669 64.8128 43.0357 64.8773 43.1798C64.9437 43.3221 65.0309 43.4406 65.139 43.5355C65.2472 43.6303 65.3657 43.7015 65.4947 43.7489C65.6255 43.7944 65.7555 43.8172 65.8845 43.8172C66.0153 43.8172 66.1462 43.7935 66.2771 43.7461C66.408 43.6986 66.5265 43.6284 66.6328 43.5355C66.7408 43.4406 66.8271 43.3212 66.8916 43.177C66.9561 43.0328 66.9883 42.865 66.9883 42.6734V40.1127H67.5005V42.7161C67.5005 43.0328 67.4313 43.3098 67.2928 43.5469C67.1562 43.784 66.9666 43.968 66.7238 44.0989C66.481 44.2297 66.2012 44.2951 65.8845 44.2951Z" fill="#131A20"/>
<path d="M68.5818 44.2098V40.1127H70.2008C70.2405 40.1127 70.288 40.1146 70.343 40.1185C70.398 40.1203 70.4511 40.126 70.5023 40.1355C70.7243 40.1697 70.9101 40.2455 71.06 40.3631C71.2117 40.4807 71.3255 40.6296 71.4014 40.8098C71.4773 40.9881 71.5152 41.1863 71.5152 41.4044C71.5152 41.7212 71.4327 41.9962 71.2676 42.2296C71.1026 42.4609 70.8609 42.6061 70.5421 42.6649L70.3487 42.6962H69.0883V44.2098H68.5818ZM71.0201 44.2098L70.2121 42.5425L70.7128 42.3889L71.6006 44.2098H71.0201ZM69.0883 42.2153H70.1837C70.2197 42.2153 70.2605 42.2134 70.306 42.2097C70.3534 42.2059 70.398 42.1992 70.4398 42.1897C70.5706 42.1594 70.6768 42.1044 70.7584 42.0247C70.8418 41.9431 70.9026 41.8483 70.9405 41.7402C70.9784 41.6301 70.9973 41.5183 70.9973 41.4044C70.9973 41.2906 70.9784 41.1797 70.9405 41.0715C70.9026 40.9615 70.8418 40.8658 70.7584 40.7842C70.6768 40.7026 70.5706 40.6476 70.4398 40.6192C70.398 40.6078 70.3534 40.6012 70.306 40.5992C70.2605 40.5955 70.2197 40.5935 70.1837 40.5935H69.0883V42.2153Z" fill="#131A20"/>
<path d="M74.1126 44.2951C73.7049 44.2951 73.3587 44.205 73.0742 44.0248C72.7897 43.8447 72.5725 43.5942 72.4227 43.2737C72.2747 42.9531 72.2007 42.5824 72.2007 42.1613C72.2007 41.7402 72.2747 41.3693 72.4227 41.0487C72.5725 40.7282 72.7897 40.4779 73.0742 40.2976C73.3587 40.1174 73.7049 40.0273 74.1126 40.0273C74.5869 40.0273 74.9767 40.1478 75.282 40.3887C75.5893 40.6296 75.8009 40.9539 75.9166 41.3617L75.4016 41.4983C75.3181 41.193 75.1692 40.952 74.9549 40.7757C74.7405 40.5992 74.4598 40.511 74.1126 40.511C73.8073 40.511 73.5531 40.5803 73.3502 40.7187C73.1472 40.8572 72.9946 41.0507 72.8921 41.2992C72.7897 41.5458 72.7376 41.8331 72.7356 42.1613C72.7337 42.4875 72.784 42.7749 72.8864 43.0234C72.9888 43.27 73.1425 43.4634 73.3473 43.6037C73.5522 43.7423 73.8073 43.8115 74.1126 43.8115C74.4598 43.8115 74.7405 43.7232 74.9549 43.5469C75.1692 43.3685 75.3181 43.1277 75.4016 42.8241L75.9166 42.9607C75.8009 43.3667 75.5893 43.691 75.282 43.9338C74.9767 44.1747 74.5869 44.2951 74.1126 44.2951Z" fill="#131A20"/>
<path d="M76.825 44.2098V40.1127H79.4142V40.5935H77.3315V41.8767H79.0727V42.3576H77.3315V43.729H79.4142V44.2098H76.825Z" fill="#131A20"/>
<path d="M81.8064 44.2098V40.1127H82.2673L83.8151 43.3762L85.3543 40.1127H85.8209V44.2069H85.3401V41.2252L83.9488 44.2098H83.6785L82.2872 41.2252V44.2098H81.8064Z" fill="#131A20"/>
<path d="M86.6187 44.2098L87.9901 40.1127H88.6957L90.0671 44.2098H89.5407L88.2576 40.4086H88.4169L87.1451 44.2098H86.6187ZM87.2788 43.251V42.7758H89.407V43.251H87.2788Z" fill="#131A20"/>
<path d="M90.861 44.2098V40.1127H91.3731L93.5095 43.3135V40.1127H94.0216V44.2098H93.5095L91.3731 41.0061V44.2098H90.861Z" fill="#131A20"/>
<path d="M94.818 44.2098L96.1893 40.1127H96.8943L98.2657 44.2098H97.7396L96.456 40.4086H96.6156L95.344 44.2098H94.818ZM95.4778 43.251V42.7758H97.6058V43.251H95.4778Z" fill="#131A20"/>
<path d="M100.608 44.2951C100.326 44.2951 100.071 44.2458 99.839 44.1472C99.6074 44.0485 99.409 43.9073 99.242 43.7232C99.0749 43.5374 98.9458 43.3135 98.8544 43.0518C98.7658 42.7882 98.7206 42.4913 98.7206 42.1613C98.7206 41.725 98.799 41.3475 98.9541 41.0289C99.11 40.7102 99.3287 40.4646 99.6111 40.2919C99.8944 40.1174 100.226 40.0302 100.608 40.0302C101.066 40.0302 101.436 40.1374 101.717 40.3517C101.998 40.5642 102.191 40.8553 102.297 41.2252L101.785 41.3305C101.7 41.082 101.559 40.8837 101.364 40.7358C101.169 40.5879 100.925 40.5139 100.633 40.5139C100.327 40.512 100.073 40.5803 99.8704 40.7187C99.6692 40.8553 99.5179 41.0478 99.4155 41.2963C99.313 41.5447 99.2604 41.8331 99.2586 42.1613C99.2567 42.4875 99.3075 42.7739 99.4099 43.0205C99.5124 43.2671 99.6646 43.4605 99.8677 43.6009C100.073 43.7394 100.327 43.8095 100.633 43.8115C100.897 43.8133 101.119 43.7631 101.299 43.6607C101.479 43.5582 101.618 43.4103 101.717 43.2168C101.816 43.0234 101.876 42.791 101.896 42.5197H101.026V42.1015H102.431C102.437 42.1394 102.44 42.185 102.44 42.2381C102.441 42.2893 102.442 42.3243 102.442 42.3434C102.442 42.717 102.372 43.0518 102.232 43.3477C102.093 43.6417 101.888 43.8731 101.615 44.0419C101.343 44.2108 101.007 44.2951 100.608 44.2951Z" fill="#131A20"/>
<path d="M103.295 44.2098V40.1127H105.884V40.5935H103.802V41.8767H105.543V42.3576H103.802V43.729H105.884V44.2098H103.295Z" fill="#131A20"/>
<path d="M106.852 44.2098V40.1127H107.314L108.861 43.3762L110.401 40.1127H110.868V44.2069H110.387V41.2252L108.995 44.2098H108.725L107.334 41.2252V44.2098H106.852Z" fill="#131A20"/>
<path d="M111.95 44.2098V40.1127H114.539V40.5935H112.456V41.8767H114.197V42.3576H112.456V43.729H114.539V44.2098H111.95Z" fill="#131A20"/>
<path d="M115.508 44.2098V40.1127H116.02L118.156 43.3135V40.1127H118.668V44.2098H118.156L116.02 41.0061V44.2098H115.508Z" fill="#131A20"/>
<path d="M120.804 44.2098V40.5935H119.407V40.1127H122.707V40.5935H121.31V44.2098H120.804Z" fill="#131A20"/>
<path d="M28.6543 0L39.971 1.31316L51.2877 0V3.63751H28.6543V0Z" fill="#131A20"/>
<path d="M41.9492 10.1388H37.4246L36.0505 7.1872L39.8372 4.2356C39.8372 4.2356 41.3657 5.47182 41.5846 5.69068C41.8034 5.90955 43.624 7.18723 43.624 7.18723L41.9492 10.1388Z" fill="#34AADC"/>
<path d="M51.1826 0L51.6268 0.57114L53.8409 3.38627L46.8153 8.57097L40.1744 3.43543L51.1826 0Z" fill="#131A20"/>
<path d="M28.4858 0L39.5686 3.43543L32.846 8.57106L25.8271 3.38636L28.4858 0Z" fill="#131A20"/>
<path d="M38.7366 10.8864H41.9487L45.1127 29.3246L40.4794 34.0956L39.8368 34.7578L34.2601 29.2942L37.4241 10.8868L38.7366 10.8864Z" fill="#34AADC"/>
<path d="M89.2955 34.1425V0.437988H95.0062L106.147 22.8141L117.289 0.437988H123V34.1425H117.055V14.0134L107.271 34.1425H105.024L95.2406 14.0134V34.1425H89.2955Z" fill="#131A20"/>
<path fill-rule="evenodd" clip-rule="evenodd" d="M44.1102 18.7885L44.8663 20.35L47.0758 21.3972L47.1059 21.1845L47.2274 19.013L42.7382 12.3336L44.1102 18.7885Z" fill="#131A20"/>
</svg>
