<svg width="17" height="17" viewBox="0 0 17 17" fill="none" xmlns="http://www.w3.org/2000/svg">
<path d="M10.402 14.7697C9.80647 14.9794 9.16644 15.0939 8.50005 15.0939C7.83443 15.0939 7.19505 14.9796 6.60005 14.7703C6.36365 15.156 6.06615 15.5005 5.71729 15.7934C6.57092 16.1637 7.51181 16.3695 8.50001 16.3695C9.48796 16.3695 10.4287 16.1638 11.2822 15.7936C10.9299 15.4968 10.635 15.1499 10.402 14.7697Z" fill="#34AADC"/>
<path d="M4.76229 5.00144C4.54915 4.60963 4.39583 4.18071 4.31466 3.72717C2.80238 4.85496 1.75856 6.5772 1.53156 8.54464C1.95712 8.39068 2.40551 8.30484 2.85897 8.29238C3.10413 6.98652 3.79279 5.83517 4.76229 5.00144Z" fill="#34AADC"/>
<path d="M14.1412 8.29238C14.5946 8.30479 15.043 8.39064 15.4687 8.54464C15.2416 6.57724 14.1978 4.85496 12.6855 3.72717C12.6044 4.18071 12.4511 4.60963 12.2379 5.00144C13.2074 5.83517 13.896 6.98648 14.1412 8.29238Z" fill="#34AADC"/>
<path d="M8.50007 5.95253C10.1438 5.95253 11.4763 4.62001 11.4763 2.97627C11.4763 1.33252 10.1438 0 8.50007 0C6.85632 0 5.5238 1.33252 5.5238 2.97627C5.5238 4.62001 6.85632 5.95253 8.50007 5.95253Z" fill="#34AADC"/>
<path d="M1.48864 9.96525C0.0650945 10.7871 -0.42263 12.6074 0.399244 14.0309C0.950533 14.9857 1.95094 15.5196 2.97958 15.5196C3.48444 15.5196 3.99623 15.3909 4.46491 15.1203C5.88841 14.2984 6.37618 12.4781 5.55431 11.0547C5.00302 10.0998 4.00265 9.56597 2.97397 9.56601C2.46911 9.56601 1.95728 9.69467 1.48864 9.96525Z" fill="#34AADC"/>
<path d="M11.4457 11.0547C10.6239 12.4782 11.1116 14.2984 12.5351 15.1203C13.0039 15.391 13.5155 15.5196 14.0205 15.5196C15.049 15.5196 16.0495 14.9858 16.6008 14.031C17.4226 12.6075 16.9349 10.7871 15.5114 9.96526C15.0427 9.69463 14.531 9.56597 14.0261 9.56601C12.9975 9.56605 11.997 10.0999 11.4457 11.0547Z" fill="#34AADC"/>
</svg>
