<svg width="17" height="17" viewBox="0 0 17 17" fill="none" xmlns="http://www.w3.org/2000/svg">
<path d="M10.402 15.085C9.80647 15.2947 9.16644 15.4092 8.50005 15.4092C7.83443 15.4092 7.19505 15.295 6.60005 15.0856C6.36365 15.4713 6.06615 15.8158 5.71729 16.1087C6.57092 16.479 7.5118 16.6848 8.50001 16.6848C9.48796 16.6848 10.4287 16.4791 11.2822 16.1089C10.9299 15.8121 10.635 15.4652 10.402 15.085Z" fill="white"/>
<path d="M4.76223 5.31675C4.54909 4.92494 4.39577 4.49602 4.3146 4.04248C2.80232 5.17027 1.7585 6.89251 1.53149 8.85994C1.95706 8.70599 2.40545 8.62014 2.85891 8.60768C3.10407 7.30183 3.79273 6.15048 4.76223 5.31675Z" fill="white"/>
<path d="M14.1411 8.60768C14.5945 8.6201 15.0429 8.70594 15.4685 8.85994C15.2415 6.89255 14.1977 5.17027 12.6854 4.04248C12.6043 4.49602 12.4509 4.92494 12.2378 5.31675C13.2072 6.15048 13.8959 7.30179 14.1411 8.60768Z" fill="white"/>
<path d="M8.49995 6.26784C10.1437 6.26784 11.4762 4.93532 11.4762 3.29157C11.4762 1.64783 10.1437 0.315308 8.49995 0.315308C6.8562 0.315308 5.52368 1.64783 5.52368 3.29157C5.52368 4.93532 6.8562 6.26784 8.49995 6.26784Z" fill="white"/>
<path d="M1.48864 10.2806C0.0650944 11.1025 -0.42263 12.9227 0.399244 14.3463C0.950533 15.3011 1.95094 15.8349 2.97958 15.8349C3.48444 15.8349 3.99623 15.7063 4.46491 15.4356C5.88841 14.6138 6.37618 12.7935 5.55431 11.37C5.00302 10.4151 4.00265 9.88131 2.97397 9.88135C2.46911 9.88135 1.95728 10.01 1.48864 10.2806Z" fill="white"/>
<path d="M11.4456 11.37C10.6238 12.7935 11.1115 14.6138 12.535 15.4357C13.0038 15.7063 13.5154 15.8349 14.0204 15.8349C15.0489 15.8349 16.0494 15.3011 16.6007 14.3463C17.4225 12.9228 16.9348 11.1025 15.5113 10.2806C15.0425 10.01 14.5309 9.88131 14.0259 9.88135C12.9974 9.88139 11.9968 10.4152 11.4456 11.37Z" fill="white"/>
</svg>
