<svg width="18" height="18" viewBox="0 0 18 18" fill="none" xmlns="http://www.w3.org/2000/svg">
<path fill-rule="evenodd" clip-rule="evenodd" d="M6.6943 12.2925H10.7339C11.0384 12.2925 11.2908 12.0375 11.2908 11.73C11.2908 11.4225 11.0384 11.175 10.7339 11.175H6.6943C6.38984 11.175 6.13737 11.4225 6.13737 11.73C6.13737 12.0375 6.38984 12.2925 6.6943 12.2925ZM9.2042 7.42499H6.6943C6.38984 7.42499 6.13737 7.67999 6.13737 7.98749C6.13737 8.29499 6.38984 8.54249 6.6943 8.54249H9.2042C9.50865 8.54249 9.76113 8.29499 9.76113 7.98749C9.76113 7.67999 9.50865 7.42499 9.2042 7.42499ZM14.5036 6.76921C14.6781 6.76719 14.8682 6.765 15.0408 6.765C15.2265 6.765 15.375 6.915 15.375 7.1025V13.1325C15.375 14.9925 13.8824 16.5 12.0408 16.5H6.12995C4.19926 16.5 2.625 14.9175 2.625 12.9675V4.8825C2.625 3.0225 4.125 1.5 5.97401 1.5H9.93936C10.1324 1.5 10.2809 1.6575 10.2809 1.845V4.26C10.2809 5.6325 11.4022 6.7575 12.7611 6.765C13.0786 6.765 13.3584 6.76737 13.6033 6.76945C13.7938 6.77107 13.9632 6.7725 14.1126 6.7725C14.2183 6.7725 14.3553 6.77092 14.5036 6.76921ZM14.7083 5.6745C14.0979 5.67675 13.3783 5.6745 12.8608 5.66925C12.0395 5.66925 11.363 4.986 11.363 4.1565V2.1795C11.363 1.85625 11.7513 1.69575 11.9734 1.929C12.3756 2.35145 12.9286 2.9323 13.4789 3.51034C14.0266 4.08578 14.5718 4.65843 14.963 5.06925C15.1798 5.2965 15.0209 5.67375 14.7083 5.6745Z" fill="white"/>
</svg>
