<svg width="11" height="13" viewBox="0 0 11 13" fill="none" xmlns="http://www.w3.org/2000/svg">
<path d="M6.02359 0C6.18259 0 6.30489 0.129706 6.30489 0.284118V2.27294C6.30489 3.40324 7.22831 4.32971 8.34741 4.33588C8.81217 4.33588 9.17909 4.34206 9.4604 4.34206C9.64997 4.34206 9.96185 4.33588 10.2248 4.33588C10.3777 4.33588 10.5 4.45941 10.5 4.61382V9.57971C10.5 11.1115 9.27082 12.3529 7.74811 12.3529H2.88643C1.29645 12.3529 0 11.0497 0 9.44382V2.78559C0 1.25382 1.23529 0 2.75801 0H6.02359ZM5.13687 4.79912C4.88614 4.79912 4.67822 5.00294 4.67822 5.25618V6.32471H3.62638C3.37566 6.32471 3.16773 6.52853 3.16773 6.78794C3.16773 7.04118 3.37566 7.245 3.62638 7.245H4.67822V8.31353C4.67822 8.56676 4.88614 8.77059 5.13687 8.77059C5.38759 8.77059 5.5894 8.56676 5.5894 8.31353V7.245H6.64735C6.89808 7.245 7.106 7.04118 7.106 6.78794C7.106 6.52853 6.89808 6.32471 6.64735 6.32471H5.5894V5.25618C5.5894 5.00294 5.38759 4.79912 5.13687 4.79912ZM7.19534 0.559712C7.19534 0.293506 7.51517 0.161329 7.69802 0.353418C8.35909 1.04765 9.51427 2.26133 10.16 2.93951C10.3386 3.12665 10.2077 3.43733 9.95029 3.43795C9.44762 3.4398 8.85504 3.43795 8.4288 3.43362C7.75245 3.43362 7.19534 2.87095 7.19534 2.18783V0.559712Z" fill="white"/>
</svg>
