<svg width="12" height="12" viewBox="0 0 12 12" fill="none" xmlns="http://www.w3.org/2000/svg">
<path d="M5.56 11.34C5.42667 11.34 5.31333 11.2933 5.22 11.2C5.12667 11.1067 5.08 10.9933 5.08 10.86V6.96H1.24C1.10667 6.96 0.993333 6.91333 0.9 6.82C0.806667 6.72667 0.76 6.60667 0.76 6.46V5.42C0.76 5.27333 0.806667 5.16 0.9 5.08C0.993333 4.98667 1.10667 4.94 1.24 4.94H5.08V1.14C5.08 0.993333 5.12667 0.88 5.22 0.8C5.31333 0.706666 5.42667 0.659999 5.56 0.659999H6.72C6.86667 0.659999 6.98 0.706666 7.06 0.8C7.15333 0.88 7.2 0.993333 7.2 1.14V4.94H11.04C11.1867 4.94 11.3 4.98667 11.38 5.08C11.4733 5.16 11.52 5.27333 11.52 5.42V6.46C11.52 6.60667 11.4733 6.72667 11.38 6.82C11.2867 6.91333 11.1733 6.96 11.04 6.96H7.2V10.86C7.2 10.9933 7.15333 11.1067 7.06 11.2C6.98 11.2933 6.86667 11.34 6.72 11.34H5.56Z" fill="white"/>
</svg>
