<svg width="17" height="17" viewBox="0 0 17 17" fill="none" xmlns="http://www.w3.org/2000/svg">
<path d="M14.0283 3.28711V2.49023C14.0283 1.11712 12.9112 0 11.5381 0H5.42871C4.0556 0 2.93848 1.11712 2.93848 2.49023V3.28711H14.0283Z" fill="#036B84"/>
<path d="M3.93457 10.5918V14.6426V15.5059V16.0039C3.93457 16.554 4.38052 17 4.93066 17H12.0361C12.5863 17 13.0322 16.554 13.0322 16.0039V15.5059V14.6426V10.5918H3.93457ZM9.81152 14.8418H7.15527C6.88022 14.8418 6.65723 14.6188 6.65723 14.3438C6.65723 14.0687 6.88022 13.8457 7.15527 13.8457H9.81152C10.0866 13.8457 10.3096 14.0687 10.3096 14.3438C10.3096 14.6188 10.0866 14.8418 9.81152 14.8418ZM9.81152 12.7168H7.15527C6.88022 12.7168 6.65723 12.4938 6.65723 12.2188C6.65723 11.9437 6.88022 11.7207 7.15527 11.7207H9.81152C10.0866 11.7207 10.3096 11.9437 10.3096 12.2188C10.3096 12.4938 10.0866 12.7168 9.81152 12.7168Z" fill="#036B84"/>
<path d="M14.4932 4.2832H2.50684C1.13372 4.2832 0.0166016 5.40032 0.0166016 6.77344V10.7578C0.0166016 12.1309 1.13372 13.248 2.50684 13.248H2.93848V10.5918H2.63965C2.36459 10.5918 2.1416 10.3688 2.1416 10.0938C2.1416 9.8187 2.36459 9.5957 2.63965 9.5957H3.43652H13.5303H14.3271C14.6022 9.5957 14.8252 9.8187 14.8252 10.0938C14.8252 10.3688 14.6022 10.5918 14.3271 10.5918H14.0283V13.248H14.4932C15.8663 13.248 16.9834 12.1309 16.9834 10.7578V6.77344C16.9834 5.40032 15.8663 4.2832 14.4932 4.2832ZM4.2334 7.4043H2.63965C2.36459 7.4043 2.1416 7.1813 2.1416 6.90625C2.1416 6.6312 2.36459 6.4082 2.63965 6.4082H4.2334C4.50845 6.4082 4.73145 6.6312 4.73145 6.90625C4.73145 7.1813 4.50845 7.4043 4.2334 7.4043Z" fill="#036B84"/>
</svg>
