<svg width="56" height="52" viewBox="0 0 56 52" fill="none" xmlns="http://www.w3.org/2000/svg">
<path d="M3.11721 10.7815C3.11721 10.7815 0.525736 11.3507 0.161765 8.24865C-0.202206 5.14657 0.161765 3.97974 0.161765 3.97974H6.25609C6.25609 3.97974 9.34839 11.4503 3.11721 10.7815Z" fill="#036B84"/>
<path d="M7.68867 0.296933C7.68867 0.296933 5.57472 0.245706 5.09719 3.17992C4.61966 6.11413 5.77855 10.1811 3.11719 10.7816H10.5509C10.5509 10.7816 15.1253 0.479077 7.68867 0.296933Z" fill="#68A6B5"/>
<path d="M12.3301 0.296875H7.68872C8.47573 0.655645 9.15355 1.20859 9.65545 1.90126C10.1573 2.59393 10.466 3.40242 10.551 4.24713V43.0211C10.551 44.2612 11.055 45.4506 11.9522 46.3275C12.8494 47.2044 14.0662 47.6971 15.335 47.6971H43.4569C44.085 47.6971 44.707 47.5761 45.2872 47.3411C45.8675 47.1061 46.3947 46.7616 46.8387 46.3274C47.2827 45.8931 47.6348 45.3776 47.8749 44.8103C48.115 44.243 48.2384 43.635 48.238 43.0211V5.45384C48.238 4.77712 48.1016 4.10704 47.8366 3.48187C47.5715 2.85671 47.1831 2.28871 46.6934 1.81033C46.2037 1.33196 45.6223 0.952576 44.9826 0.693868C44.3428 0.43516 43.6572 0.302193 42.9648 0.302567L12.3301 0.296875Z" fill="#036B84"/>
<rect x="40" y="33" width="15.8044" height="18.7311" rx="3" fill="#68A6B5"/>
<path d="M49.7433 40.0479C49.7433 41.0245 48.9265 41.8162 47.919 41.8162C46.9114 41.8162 46.0946 41.0245 46.0946 40.0479C46.0946 39.0712 46.9114 38.2795 47.919 38.2795C48.9265 38.2795 49.7433 39.0712 49.7433 40.0479Z" fill="white"/>
<path d="M47.919 42.1133C46.6964 42.1133 45.5954 42.6179 44.8255 43.4239C43.6446 44.6602 45.1132 46.1987 46.8514 46.1987H48.9867C50.7248 46.1987 52.1934 44.6602 51.0126 43.4239C50.2427 42.6179 49.1417 42.1133 47.919 42.1133Z" fill="white"/>
<path d="M18.1574 11H37.8419C38.4815 11 39 10.5521 39 9.99974C39 9.44789 38.4815 9 37.8419 9H18.1574C17.5185 9 17 9.44789 17 9.99974C17 10.5521 17.5185 11 18.1574 11Z" fill="white"/>
<path d="M18.187 17H34.8123C35.4682 17 36 16.5521 36 15.9997C36 15.4474 35.4682 15 34.8123 15H18.187C17.5318 15 17 15.4474 17 15.9997C17 16.5521 17.5318 17 18.187 17Z" fill="white"/>
<path d="M18.1107 23H25.8893C26.503 23 27 22.5521 27 21.9997C27 21.4474 26.503 21 25.8893 21H18.1107C17.4976 21 17 21.4474 17 21.9997C17 22.5521 17.4976 23 18.1107 23Z" fill="white"/>
</svg>
