<svg width="49" height="50" viewBox="0 0 49 50" fill="none" xmlns="http://www.w3.org/2000/svg">
<path d="M32.775 0H5.225C2.3427 0 0 2.36325 0 5.27083V43.7292C0 46.6367 2.3427 49 5.225 49H32.775C35.6573 49 38 46.6367 38 43.7292V5.27083C38 2.36325 35.6573 0 32.775 0ZM16.625 16.9167V7.479C21.185 8.17858 24.7 12.125 24.7 16.9167C24.7 22.2009 20.4383 26.5 15.2 26.5C13.0948 26.5 11.1663 25.7832 9.5893 24.6082L16.207 17.9325C16.4749 17.6642 16.625 17.2981 16.625 16.9167ZM13.775 7.479V16.3225L7.5753 22.5766C6.4106 20.9857 5.7 19.0403 5.7 16.9167C5.7 12.125 9.215 8.17858 13.775 7.479ZM30.875 32.7292H7.125C6.3384 32.7292 5.7 32.0852 5.7 31.2917C5.7 30.4982 6.3384 29.8542 7.125 29.8542H30.875C31.6616 29.8542 32.3 30.4982 32.3 31.2917C32.3 32.0852 31.6616 32.7292 30.875 32.7292ZM30.875 26.5H28.025C27.2384 26.5 26.6 25.856 26.6 25.0625C26.6 24.269 27.2384 23.625 28.025 23.625H30.875C31.6616 23.625 32.3 24.269 32.3 25.0625C32.3 25.856 31.6616 26.5 30.875 26.5ZM30.875 21.2292H28.025C27.2384 21.2292 26.6 20.5852 26.6 19.7917C26.6 18.9982 27.2384 18.3542 28.025 18.3542H30.875C31.6616 18.3542 32.3 18.9982 32.3 19.7917C32.3 20.5852 31.6616 21.2292 30.875 21.2292ZM30.875 15.4792H28.025C27.2384 15.4792 26.6 14.8352 26.6 14.0417C26.6 13.2482 27.2384 12.6042 28.025 12.6042H30.875C31.6616 12.6042 32.3 13.2482 32.3 14.0417C32.3 14.8352 31.6616 15.4792 30.875 15.4792ZM30.875 10.2083H28.025C27.2384 10.2083 26.6 9.56433 26.6 8.77083C26.6 7.97733 27.2384 7.33333 28.025 7.33333H30.875C31.6616 7.33333 32.3 7.97733 32.3 8.77083C32.3 9.56433 31.6616 10.2083 30.875 10.2083Z" fill="#036B84"/>
<rect x="33" y="31" width="15.8044" height="18.7311" rx="3" fill="#68A6B5"/>
<path d="M42.7433 38.0479C42.7433 39.0245 41.9265 39.8162 40.919 39.8162C39.9114 39.8162 39.0946 39.0245 39.0946 38.0479C39.0946 37.0712 39.9114 36.2795 40.919 36.2795C41.9265 36.2795 42.7433 37.0712 42.7433 38.0479Z" fill="white"/>
<path d="M40.919 40.1133C39.6964 40.1133 38.5954 40.6179 37.8255 41.4239C36.6446 42.6602 38.1132 44.1987 39.8514 44.1987H41.9867C43.7248 44.1987 45.1934 42.6602 44.0126 41.4239C43.2427 40.6179 42.1417 40.1133 40.919 40.1133Z" fill="white"/>
</svg>
