<svg width="16" height="18" viewBox="0 0 16 18" fill="none" xmlns="http://www.w3.org/2000/svg">
<path d="M11.5556 0H4.44444C1.33333 0 0 1.77778 0 4.44444V13.3333C0 16 1.33333 17.7778 4.44444 17.7778H11.5556C14.6667 17.7778 16 16 16 13.3333V4.44444C16 1.77778 14.6667 0 11.5556 0ZM4.44444 9.11111H8C8.36444 9.11111 8.66667 9.41333 8.66667 9.77778C8.66667 10.1422 8.36444 10.4444 8 10.4444H4.44444C4.08 10.4444 3.77778 10.1422 3.77778 9.77778C3.77778 9.41333 4.08 9.11111 4.44444 9.11111ZM11.5556 14H4.44444C4.08 14 3.77778 13.6978 3.77778 13.3333C3.77778 12.9689 4.08 12.6667 4.44444 12.6667H11.5556C11.92 12.6667 12.2222 12.9689 12.2222 13.3333C12.2222 13.6978 11.92 14 11.5556 14ZM13.7778 6.44445H12C10.6489 6.44445 9.55556 5.35111 9.55556 4V2.22222C9.55556 1.85778 9.85778 1.55556 10.2222 1.55556C10.5867 1.55556 10.8889 1.85778 10.8889 2.22222V4C10.8889 4.61333 11.3867 5.11111 12 5.11111H13.7778C14.1422 5.11111 14.4444 5.41333 14.4444 5.77778C14.4444 6.14222 14.1422 6.44445 13.7778 6.44445Z" fill="#34AADC"/>
</svg>
