<svg width="17" height="17" viewBox="0 0 17 17" fill="none" xmlns="http://www.w3.org/2000/svg">
<path d="M10.4035 15.085C9.80793 15.2947 9.16791 15.4092 8.50152 15.4092C7.8359 15.4092 7.19651 15.295 6.60151 15.0856C6.36511 15.4713 6.06761 15.8158 5.71875 16.1087C6.57239 16.479 7.51327 16.6848 8.50148 16.6848C9.48943 16.6848 10.4301 16.4791 11.2836 16.1089C10.9313 15.8121 10.6364 15.4652 10.4035 15.085Z" fill="white"/>
<path d="M4.76199 5.31675C4.54884 4.92494 4.39552 4.49602 4.31436 4.04248C2.80207 5.17027 1.75825 6.89251 1.53125 8.85994C1.95681 8.70599 2.40521 8.62014 2.85866 8.60768C3.10382 7.30183 3.79249 6.15048 4.76199 5.31675Z" fill="white"/>
<path d="M14.1416 8.60768C14.595 8.6201 15.0434 8.70594 15.469 8.85994C15.242 6.89255 14.1982 5.17027 12.6859 4.04248C12.6047 4.49602 12.4514 4.92494 12.2383 5.31675C13.2077 6.15048 13.8964 7.30179 14.1416 8.60768Z" fill="white"/>
<path d="M8.49971 6.26784C10.1435 6.26784 11.476 4.93532 11.476 3.29157C11.476 1.64783 10.1435 0.315308 8.49971 0.315308C6.85596 0.315308 5.52344 1.64783 5.52344 3.29157C5.52344 4.93532 6.85596 6.26784 8.49971 6.26784Z" fill="white"/>
<path d="M1.48864 10.2806C0.0650944 11.1025 -0.42263 12.9227 0.399244 14.3463C0.950533 15.3011 1.95094 15.8349 2.97958 15.8349C3.48444 15.8349 3.99623 15.7063 4.46491 15.4356C5.88841 14.6138 6.37618 12.7935 5.55431 11.37C5.00302 10.4151 4.00265 9.88131 2.97397 9.88135C2.46911 9.88135 1.95728 10.01 1.48864 10.2806Z" fill="white"/>
<path d="M11.4461 11.37C10.6243 12.7935 11.112 14.6138 12.5355 15.4357C13.0042 15.7063 13.5159 15.8349 14.0209 15.8349C15.0494 15.8349 16.0499 15.3011 16.6011 14.3463C17.423 12.9228 16.9353 11.1025 15.5117 10.2806C15.043 10.01 14.5314 9.88131 14.0264 9.88135C12.9979 9.88139 11.9973 10.4152 11.4461 11.37Z" fill="white"/>
</svg>
