<svg width="45" height="51" viewBox="0 0 45 51" fill="none" xmlns="http://www.w3.org/2000/svg">
<rect y="10.4351" width="34" height="40.2963" rx="3" fill="#036B84"/>
<path d="M20.3874 26.5727C20.3874 28.5459 18.6469 30.1455 16.4999 30.1455C14.3529 30.1455 12.6124 28.5459 12.6124 26.5727C12.6124 24.5996 14.3529 23 16.4999 23C18.6469 23 20.3874 24.5996 20.3874 26.5727Z" fill="white"/>
<path d="M16.5 30.7458C13.8947 30.7458 11.5485 31.7652 9.90788 33.3938C7.39163 35.8916 10.5211 39 14.2249 39H18.7751C22.4789 39 25.6084 35.8916 23.0921 33.3938C21.4515 31.7652 19.1053 30.7458 16.5 30.7458Z" fill="white"/>
<circle cx="33.5" cy="12.5" r="10.5" fill="white"/>
<path d="M45 12C45 5.37257 39.6274 0 33 0C26.3726 0 21 5.37257 21 12C21 18.6274 26.3726 24 33 24C39.6245 23.9924 44.9924 18.6245 45 12ZM35.6092 8.22445H37.4552C37.872 8.22445 38.2103 8.56282 38.2103 8.97956C38.2103 9.39673 37.872 9.73467 37.4552 9.73467H35.6092C35.2481 11.8921 33.3615 13.6181 31.0945 13.6181H30.4435L35.436 18.3106C35.5814 18.4429 35.6669 18.6287 35.6724 18.8255C35.6783 19.0218 35.6037 19.2123 35.4663 19.3526C35.1798 19.6531 34.7053 19.6695 34.399 19.3893L28.0265 13.3737C27.8002 13.1676 27.7269 12.8423 27.8428 12.5596C27.9591 12.2764 28.2393 12.0961 28.5448 12.1079H31.0945C32.5255 12.1079 33.7307 11.0291 34.0682 9.73467H28.5448C28.1276 9.73467 27.7897 9.39673 27.7897 8.97956C27.7897 8.56282 28.1276 8.22445 28.5448 8.22445H34.0678C33.7041 6.88321 32.4842 5.95365 31.0945 5.95913H28.5448C28.1276 5.95913 27.7897 5.62118 27.7897 5.20402C27.7897 4.78727 28.1276 4.44891 28.5448 4.44891H37.4552C37.872 4.44891 38.2103 4.78727 38.2103 5.20402C38.2103 5.62118 37.872 5.95913 37.4552 5.95913H34.4896C35.0698 6.59288 35.4583 7.37875 35.6092 8.22445Z" fill="#68A6B5"/>
</svg>
