<svg width="8" height="9" viewBox="0 0 8 9" fill="none" xmlns="http://www.w3.org/2000/svg">
<g opacity="0.3">
<path fill-rule="evenodd" clip-rule="evenodd" d="M6.11776 4.14375C6.32421 4.14375 6.49133 3.97414 6.49133 3.76462L6.59385 1.93309C6.59385 1.66608 6.38085 1.44991 6.11776 1.44991C5.85467 1.44991 5.6412 1.66608 5.6412 1.93309L5.74419 3.76462C5.74419 3.97414 5.91132 4.14375 6.11776 4.14375Z" fill="#34AADC"/>
<path fill-rule="evenodd" clip-rule="evenodd" d="M7.93171 5.254C7.86757 5.13808 7.76692 5.04543 7.64802 4.99412C7.56563 4.96134 7.31846 4.9105 7.31424 4.9105C7.04413 4.85919 6.60503 4.83163 6.12004 4.83163C5.658 4.83163 5.23715 4.85919 4.96283 4.901C4.95814 4.90575 4.65199 4.95706 4.54666 5.01265C4.35426 5.1148 4.23535 5.31434 4.23535 5.52814V5.54667C4.24003 5.68587 4.35894 5.97806 4.36362 5.97806C4.56492 6.47027 5.19127 7.44091 5.60791 7.83049C5.60791 7.83049 5.71511 7.94072 5.78158 7.98823C5.87755 8.06282 5.99646 8.09988 6.11583 8.09988C6.24831 8.09988 6.37143 8.05807 6.47255 7.9792C6.4908 7.96067 6.56851 7.89083 6.63265 7.82622C7.03477 7.44519 7.6939 6.45174 7.89472 5.93198C7.92703 5.85311 7.99584 5.65309 8.00005 5.54667C8.00005 5.44452 7.97758 5.34665 7.93171 5.254Z" fill="#34AADC"/>
<path fill-rule="evenodd" clip-rule="evenodd" d="M1.88223 4.85611C1.67578 4.85611 1.50866 5.02572 1.50866 5.23524L1.40567 7.06672C1.40567 7.33373 1.61914 7.5499 1.88223 7.5499C2.14532 7.5499 2.35831 7.33373 2.35831 7.06672L2.25579 5.23524C2.25579 5.02572 2.08867 4.85611 1.88223 4.85611Z" fill="#34AADC"/>
<path fill-rule="evenodd" clip-rule="evenodd" d="M2.39214 1.16928C2.39214 1.16928 2.28494 1.05906 2.21847 1.01107C2.12203 0.93696 2.00313 0.899902 1.88469 0.899902C1.75174 0.899902 1.62816 0.941711 1.52751 1.02058C1.50925 1.03911 1.43154 1.10894 1.36741 1.17403C0.964816 1.55458 0.306157 2.548 0.104861 3.06823C0.0730283 3.1471 0.00421317 3.34664 0 3.45354C0 3.55521 0.0224702 3.65307 0.068347 3.74572C0.132481 3.86164 0.233129 3.95476 0.352034 4.00559C0.434425 4.03838 0.681129 4.08921 0.685811 4.08921C0.955922 4.14052 1.39503 4.16808 1.88001 4.16808C2.34205 4.16808 2.7629 4.14052 3.03723 4.09871C3.04191 4.09396 3.34807 4.04313 3.4534 3.98707C3.64533 3.88492 3.7647 3.68538 3.7647 3.47206V3.45354C3.76002 3.31433 3.64065 3.02167 3.63643 3.02167C3.43514 2.52948 2.80831 1.55933 2.39214 1.16928Z" fill="#34AADC"/>
</g>
</svg>
