<svg width="14" height="14" viewBox="0 0 14 14" fill="none" xmlns="http://www.w3.org/2000/svg">
<path d="M7.00016 0.333984C10.6823 0.333984 13.6668 3.31851 13.6668 7.00065C13.6668 10.6828 10.6823 13.6673 7.00016 13.6673C3.31802 13.6673 0.333496 10.6828 0.333496 7.00065C0.333496 3.31851 3.31802 0.333984 7.00016 0.333984ZM7.00016 1.33398C3.8703 1.33398 1.3335 3.87079 1.3335 7.00065C1.3335 10.1305 3.8703 12.6673 7.00016 12.6673C10.13 12.6673 12.6668 10.1305 12.6668 7.00065C12.6668 3.87079 10.13 1.33398 7.00016 1.33398ZM6.77456 3.73158C7.02769 3.73158 7.23689 3.91969 7.27 4.16374L7.27456 4.23158L7.2743 7.17832L9.54405 8.53285C9.76144 8.66254 9.84473 8.93125 9.74813 9.1578L9.71729 9.21841C9.58761 9.4358 9.31889 9.51909 9.09234 9.42249L9.03174 9.39165L6.5184 7.89232C6.38879 7.81499 6.30222 7.68412 6.28013 7.53741L6.27456 7.46292V4.23158C6.27456 3.95544 6.49842 3.73158 6.77456 3.73158Z" fill="#C7C9DA" stroke="#C7C9DA" stroke-width="0.5"/>
</svg>
