<svg width="14" height="16" viewBox="0 0 14 16" fill="none" xmlns="http://www.w3.org/2000/svg">
<path fill-rule="evenodd" clip-rule="evenodd" d="M8.45915 8.6675C8.6745 8.885 9.02351 8.885 9.23885 8.6675C9.46163 8.45 9.46163 8.0975 9.24628 7.88L7.11509 5.72C7.06311 5.6675 7.00371 5.63 6.93687 5.6C6.87004 5.57 6.80321 5.555 6.72895 5.555C6.6547 5.555 6.58044 5.57 6.51361 5.6C6.44677 5.63 6.38737 5.6675 6.33539 5.72L4.21163 7.88C3.99628 8.0975 3.99628 8.45 4.21163 8.6675C4.42697 8.885 4.77598 8.885 4.99133 8.6675L6.17202 7.4675V11.09C6.17202 11.3975 6.41707 11.645 6.72895 11.645C7.03341 11.645 7.27846 11.3975 7.27846 11.09V7.4675L8.45915 8.6675ZM12.4961 5.76921C12.6707 5.76719 12.8607 5.765 13.0334 5.765C13.2191 5.765 13.375 5.915 13.375 6.1025V12.1325C13.375 13.9925 11.875 15.5 10.0334 15.5H4.12995C2.19183 15.5 0.625 13.9175 0.625 11.9675V3.8825C0.625 2.0225 2.11757 0.5 3.97401 0.5H7.93936C8.125 0.5 8.28094 0.6575 8.28094 0.845V3.26C8.28094 4.6325 9.3948 5.7575 10.7611 5.765C11.0735 5.765 11.3508 5.76736 11.5943 5.76943C11.7851 5.77105 11.9552 5.7725 12.1052 5.7725C12.2109 5.7725 12.3479 5.77092 12.4961 5.76921ZM12.7035 4.6745C12.0931 4.67675 11.3743 4.6745 10.8567 4.66925C10.0354 4.66925 9.35895 3.986 9.35895 3.1565V1.1795C9.35895 0.856252 9.74658 0.695752 9.96861 0.929002C10.5407 1.52925 11.4166 2.44927 12.1567 3.22665C12.456 3.54105 12.7331 3.83211 12.959 4.06925C13.175 4.2965 13.0161 4.67375 12.7035 4.6745Z" fill="#036B84"/>
</svg>
