<svg width="76" height="56" viewBox="0 0 76 56" fill="none" xmlns="http://www.w3.org/2000/svg">
<path d="M59.3837 55.6498H47.1001H43.7924H43.0781V39.1733H48.4667C49.8333 39.1733 50.6408 37.6203 49.8333 36.5022L39.351 21.9979C38.6833 21.0662 37.3012 21.0662 36.6334 21.9979L26.1512 36.5022C25.3437 37.6203 26.1357 39.1733 27.5178 39.1733H32.9064V55.6498H32.1921H28.8843H14.6441C6.49121 55.1994 0 47.5746 0 39.313C0 33.6138 3.09031 28.6445 7.67143 25.9579C7.25215 24.8243 7.03474 23.613 7.03474 22.3396C7.03474 16.5161 11.7401 11.8108 17.5635 11.8108C18.8214 11.8108 20.0327 12.0282 21.1663 12.4475C24.5362 5.30404 31.8038 0.35022 40.2517 0.35022C51.1843 0.365749 60.1913 8.736 61.2162 19.4046C69.6175 20.8488 76 28.6289 76 37.434C76 46.8447 68.6702 54.9975 59.3837 55.6498Z" fill="#036B84"/>
</svg>
