<svg width="20" height="18" viewBox="0 0 20 18" fill="none" xmlns="http://www.w3.org/2000/svg">
<path d="M7.56892 11.6196C3.93543 11.6196 0.832031 12.1809 0.832031 14.4242C0.832031 16.6694 3.9157 17.25 7.56892 17.25C11.2024 17.25 14.3058 16.6887 14.3058 14.4453C14.3058 12.2002 11.2221 11.6196 7.56892 11.6196" fill="#34AADC"/>
<path d="M7.56715 9.48109C10.0418 9.48109 12.0249 7.53899 12.0249 5.11554C12.0249 2.6921 10.0418 0.75 7.56715 0.75C5.0934 0.75 3.10938 2.6921 3.10938 5.11554C3.10938 7.53899 5.0934 9.48109 7.56715 9.48109" fill="#34AADC"/>
<path d="M13.8233 5.19467C13.8233 6.42879 13.4448 7.58035 12.781 8.5369C12.712 8.63528 12.773 8.76792 12.8931 8.789C13.06 8.81623 13.2313 8.83292 13.4062 8.83643C15.1463 8.88123 16.7078 7.78413 17.1392 6.1319C17.7788 3.68034 15.9024 1.47913 13.512 1.47913C13.2528 1.47913 13.0044 1.50548 12.7622 1.55379C12.729 1.56082 12.6931 1.57663 12.6752 1.60473C12.6519 1.64075 12.6689 1.6873 12.6922 1.71805C13.4107 2.70446 13.8233 3.90521 13.8233 5.19467" fill="#34AADC"/>
<path d="M18.961 11.9052C18.6426 11.2403 17.8739 10.7844 16.7043 10.5604C16.1527 10.4287 14.6584 10.2416 13.269 10.2679C13.2484 10.2706 13.2367 10.2846 13.2349 10.2934C13.2323 10.3075 13.2385 10.3286 13.2654 10.3435C13.9076 10.6544 16.3895 12.0071 16.0773 14.8601C16.0639 14.9848 16.1652 15.0902 16.2917 15.0727C16.9025 14.9875 18.474 14.6563 18.961 13.6269C19.231 13.0823 19.231 12.4498 18.961 11.9052" fill="#34AADC"/>
</svg>
