<svg width="17" height="17" viewBox="0 0 17 17" fill="none" xmlns="http://www.w3.org/2000/svg">
<path d="M8.5 0C13.1946 0 17 3.80545 17 8.5C17 13.1946 13.1946 17 8.5 17C3.80545 17 0 13.1946 0 8.5C0 3.80545 3.80545 0 8.5 0ZM12.4066 4.5934C12.2332 4.41915 11.9595 4.39535 11.7581 4.53645C9.30155 6.26025 7.91605 7.28195 7.59815 7.59815C7.1009 8.09625 7.1009 8.90375 7.59815 9.40185C8.09625 9.8991 8.90375 9.8991 9.40185 9.40185C9.588 9.21485 10.6072 7.8285 12.4602 5.2394C12.603 5.0405 12.58 4.7668 12.4066 4.5934ZM13.175 7.65C12.7058 7.65 12.325 8.0308 12.325 8.5C12.325 8.9692 12.7058 9.35 13.175 9.35C13.6442 9.35 14.025 8.9692 14.025 8.5C14.025 8.0308 13.6442 7.65 13.175 7.65ZM3.825 7.65C3.3558 7.65 2.975 8.0308 2.975 8.5C2.975 8.9692 3.3558 9.35 3.825 9.35C4.2942 9.35 4.675 8.9692 4.675 8.5C4.675 8.0308 4.2942 7.65 3.825 7.65ZM5.7953 4.5934C5.4638 4.2619 4.9249 4.2619 4.5934 4.5934C4.2619 4.9249 4.2619 5.46295 4.5934 5.7953C4.9249 6.1268 5.46295 6.1268 5.7953 5.7953C6.1268 5.4638 6.1268 4.9249 5.7953 4.5934ZM8.5 2.975C8.0308 2.975 7.65 3.3558 7.65 3.825C7.65 4.2942 8.0308 4.675 8.5 4.675C8.9692 4.675 9.35 4.2942 9.35 3.825C9.35 3.3558 8.9692 2.975 8.5 2.975Z" fill="#34AADC"/>
</svg>