<svg width="268" height="268" viewBox="0 0 268 268" fill="none" xmlns="http://www.w3.org/2000/svg">
<g clip-path="url(#clip0)">
<path d="M253.442 179.293H236.237V172.022H253.442V179.293Z" fill="#EAF2F4"/>
<path d="M243.844 188.465H226.639V181.193H243.844V188.465Z" fill="#EAF2F4"/>
<path d="M263.04 188.465H245.834V181.193H263.04V188.465Z" fill="#EAF2F4"/>
<path d="M31.9971 179.293H14.7917V172.022H31.9971V179.293Z" fill="#EAF2F4"/>
<path d="M22.3994 188.465H5.19434V181.193H22.3994V188.465Z" fill="#EAF2F4"/>
<path d="M141.085 121.293H123.88V114.022H141.085V121.293Z" fill="#EAF2F4"/>
<path d="M131.488 130.461H114.283V123.19H131.488V130.461Z" fill="#EAF2F4"/>
<path d="M214.607 47.9883H197.402V40.7175H214.607V47.9883Z" fill="#EAF2F4"/>
<path d="M150.683 130.461H133.478V123.19H150.683V130.461Z" fill="#EAF2F4"/>
<path d="M22.3994 9.16797H5.19434V1.89716H22.3994V9.16797Z" fill="#EAF2F4"/>
<path d="M257.795 258.602C257.795 263.793 223.842 268 181.957 268C140.073 268 106.119 263.793 106.119 258.602C106.119 253.412 140.073 249.204 181.957 249.204C223.842 249.204 257.795 253.412 257.795 258.602Z" fill="#EAF2F4"/>
<path d="M16.3121 211.742C13.4685 211.843 10.2973 212.005 7.94304 210.161C5.77026 208.459 3.82995 205.921 4.11751 203.01C4.20075 202.178 4.3911 201.666 5.28093 202.02C6.63721 202.561 7.68289 204.057 8.62194 205.107C9.84018 206.47 11.1118 207.734 12.5657 208.847C13.5772 209.623 14.6675 210.294 15.6989 211.046C15.8296 211.137 15.9585 211.233 16.0854 211.332L16.2324 211.443L16.3134 211.444L16.4304 211.506L16.4525 211.554C16.4699 211.638 16.4233 211.738 16.3121 211.742Z" fill="#212227"/>
<path d="M16.4525 211.555C13.9538 211.513 11.2556 211.625 9.25647 209.929C8.33236 209.144 7.56334 208.141 6.93544 207.108C6.6469 206.639 5.78041 205.236 6.13903 204.678C6.78926 203.668 9.76683 207.784 10.1793 208.179C11.7288 209.654 13.6612 210.528 15.6989 211.046C15.8296 211.137 15.9585 211.233 16.0854 211.333C14.6312 211.02 13.2185 210.505 11.9406 209.741C10.1666 208.682 9.17954 207.118 7.79205 205.658C7.49252 205.34 6.58804 204.278 6.2469 204.94C6.02228 205.375 6.85832 206.748 7.03901 207.043C7.63644 208.021 8.3679 208.969 9.23334 209.723C11.2262 211.464 13.9116 211.403 16.4304 211.507L16.4525 211.555Z" fill="white"/>
<path d="M17.8804 213.477C17.8556 213.586 17.8347 213.695 17.8119 213.807L17.8076 213.816L17.7571 213.875L17.6076 213.817L17.6058 213.749L17.6205 213.705L17.6513 213.607L17.6451 213.599L17.637 213.567C17.1332 211.686 16.9368 209.73 16.4066 207.846C15.9 206.05 15.2703 204.288 14.9054 202.454C14.6749 201.298 13.8711 195.497 16.4274 196.22C17.5599 196.541 18.3363 198.181 18.7662 199.162C19.3416 200.477 19.6316 201.9 19.7071 203.33C19.8936 206.867 18.5974 210.086 17.8804 213.477Z" fill="#212227"/>
<path d="M17.8347 212.108C17.7641 210.588 17.6143 209.072 17.3984 207.564C17.2266 206.348 16.9971 205.145 16.7418 203.945C16.5962 203.267 16.4464 202.588 16.4157 201.891C16.3934 201.362 16.4682 199.406 17.4778 200.618C18.2049 201.499 18.3813 203.372 18.4692 204.452C18.5707 205.651 18.5177 206.855 18.3991 208.053C18.2623 209.41 18.0374 210.759 17.8347 212.108ZM18.6986 206.251C18.7293 204.928 18.6326 203.597 18.2887 202.314C18.174 201.869 17.6187 199.735 16.8959 199.789C16.4286 199.82 16.3495 200.741 16.3096 201.045C16.1467 202.336 16.5654 203.655 16.8167 204.91C17.3322 207.471 17.6187 210.059 17.7552 212.659C17.7334 212.822 17.7067 212.99 17.6895 213.153C17.6672 213.29 17.654 213.427 17.6364 213.563L17.6187 213.704L17.6055 213.814L17.7552 213.871C17.7687 213.765 17.7862 213.66 17.7994 213.554C17.8039 213.642 17.8039 213.726 17.8083 213.814L17.8123 213.805C17.8304 213.712 17.8479 213.624 17.8654 213.536L17.8788 213.475C17.8788 213.329 17.8742 213.184 17.8699 213.043C18.1961 210.781 18.641 208.534 18.6986 206.251Z" fill="white"/>
<path d="M19.4111 221.277H19.4093L19.3045 221.289C16.7048 221.158 13.2415 221.401 11.0791 219.682C9.48197 218.411 7.91242 215.901 8.41726 213.771C8.99162 211.369 12.2347 214.25 13.0928 214.946C15.2785 216.719 19.4639 221.059 19.4632 221.144L19.4961 221.19L19.5012 221.199L19.4111 221.277Z" fill="#212227"/>
<path d="M14.3574 219.721C13.5331 219.351 12.7704 218.831 12.1141 218.205C11.6775 217.791 10.1395 216.235 10.5494 215.596C10.7653 215.256 10.9461 215.437 11.3603 215.64C11.5499 215.733 11.7349 215.843 11.9113 215.957C12.3476 216.244 12.7486 216.578 13.1539 216.9C13.8681 217.473 14.5909 218.025 15.3313 218.562C16.5388 219.444 17.7817 220.272 19.0512 221.061C17.4911 220.581 15.8427 220.391 14.3574 219.721ZM19.5009 221.203C19.3507 221.11 19.2012 221.017 19.0512 220.92C17.3411 219.845 15.6752 218.694 14.0752 217.465C13.6699 217.156 10.7433 214.551 10.3024 215.481C10.038 216.045 11.0034 217.192 11.3118 217.579C11.8671 218.271 12.5369 218.871 13.2864 219.342C15.0185 220.422 17.1205 220.656 19.0821 221.176C19.1745 221.194 19.2672 221.22 19.3598 221.246L19.4083 221.277H19.4123L19.5009 221.203Z" fill="white"/>
<path d="M24.1601 215.924C23.4982 218.9 21.9132 221.617 19.7044 223.706L19.6559 223.734L19.5227 223.686L19.5356 223.535L19.6676 223.403C20.098 219.868 20.5732 216.355 20.9366 212.81C21.0219 211.975 21.6759 206.659 23.3091 207.524C24.3172 208.059 24.3853 210.237 24.471 211.216C24.6106 212.788 24.5015 214.384 24.1601 215.924Z" fill="#212227"/>
<path d="M19.8798 223.183L19.783 223.324C19.8138 223.227 19.8448 223.135 19.8711 223.038C20.528 220.913 21.0876 218.745 21.4622 216.55C21.6518 215.435 21.7706 214.311 22 213.204C22.097 212.737 22.3259 211.402 22.714 211.186C23.0885 210.97 23.0931 211.49 23.1327 211.79C23.1589 212.005 23.1589 212.398 23.1634 212.601C23.2254 216.462 22.0353 220.075 19.8798 223.183ZM23.2165 211.186C23.1282 210.89 22.9741 210.586 22.6434 210.794C22.0086 211.19 21.7574 213.689 21.6518 214.382C21.2155 217.233 20.5411 219.975 19.8536 222.765C19.7963 222.998 19.7392 223.237 19.6815 223.474C19.6285 223.545 19.576 223.615 19.5229 223.686L19.6549 223.734L19.6773 223.664C19.7478 223.571 19.8224 223.474 19.8886 223.377V223.372C21.0084 221.853 21.8767 220.124 22.4627 218.357C22.8373 217.22 23.0885 216.051 23.2208 214.862C23.3444 213.768 23.5469 212.257 23.2165 211.186Z" fill="white"/>
<path d="M20.1356 231.328H19.6156C19.6067 230.87 19.5978 230.411 19.5849 229.957C19.523 228.11 19.4481 226.264 19.3379 224.417C19.2763 223.363 19.2014 222.319 19.091 221.283L19.0823 221.178C19.0689 221.094 19.06 221.01 19.0514 220.922C19.0428 220.833 19.0293 220.741 19.0161 220.648C18.7341 218.321 18.2407 216.047 17.2311 213.861C16.9007 213.142 16.539 212.442 16.1601 211.745C16.1251 211.679 16.0852 211.613 16.0502 211.546L16.019 211.493C15.9837 211.423 15.9443 211.357 15.9045 211.287L15.8162 211.133C14.6132 209.017 13.2378 206.993 11.9333 204.957C11.5587 204.375 11.1841 203.789 10.8184 203.203L10.7523 203.097L10.6686 202.969C9.02907 200.383 7.41567 197.773 5.71469 195.234C5.64845 195.142 5.80276 195.058 5.86443 195.15C7.01466 196.834 8.2047 198.492 9.38591 200.157C9.5445 200.378 9.69907 200.603 9.85774 200.823C10.1704 201.264 10.479 201.7 10.7876 202.141C11.4046 203.022 12.0128 203.904 12.6079 204.799C14.2827 207.307 16.0324 209.836 17.3943 212.542C17.4958 212.746 17.5926 212.948 17.6895 213.156C17.7512 213.283 17.8126 213.411 17.8656 213.539C17.9365 213.684 18.0024 213.835 18.0684 213.984C19.2232 216.633 19.6331 219.362 19.8183 222.174C19.8316 222.367 19.8448 222.565 19.8536 222.764C19.858 222.853 19.8669 222.944 19.8712 223.037L19.8798 223.183C19.8798 223.244 19.8844 223.306 19.8886 223.372V223.376L19.8933 223.517C19.9022 223.685 19.9064 223.853 19.9156 224.024C19.9899 225.871 20.0384 227.718 20.0785 229.561C20.0915 230.147 20.1138 230.737 20.1356 231.328Z" fill="#212227"/>
<path d="M4.61736 197.871C3.19431 195.957 1.36974 192.008 3.4674 189.955C4.31026 189.128 5.48358 189.045 6.44092 189.736C7.5495 190.537 8.04674 192.052 8.40506 193.307C9.36672 196.655 10.0038 200.067 11.2042 203.349C11.2255 203.368 11.3058 203.629 11.3347 203.701C11.3593 203.77 11.2504 203.798 11.2255 203.732C11.1854 203.625 11.1471 203.518 11.1068 203.411C8.83986 201.766 6.30463 200.142 4.61736 197.871Z" fill="#212227"/>
<path d="M10.6686 202.968C9.18311 201.795 7.73337 200.518 6.66236 198.948C6.10679 198.133 5.64843 197.234 5.35732 196.286C5.22991 195.867 5.13271 195.431 5.07535 194.995C5.03119 194.673 5.00505 194.333 5.01824 194.007C5.04007 193.284 5.34006 192.496 5.76771 192.421C6.29638 192.323 6.47252 192.632 6.82095 193.24C6.93979 193.443 7.04102 193.659 7.13367 193.875C7.36744 194.417 7.54813 194.981 7.72427 195.541C8.0197 196.471 8.31916 197.397 8.65416 198.314C8.87929 198.935 9.12171 199.552 9.38589 200.156C9.83992 201.201 10.3513 202.214 10.9463 203.188C10.8536 203.118 10.7612 203.043 10.6686 202.968ZM11.2236 203.356L11.1884 203.299C10.6904 202.497 10.2541 201.672 9.85772 200.821C9.03796 199.054 8.41207 197.203 7.81231 195.338C7.58341 194.62 6.56087 191.103 5.30478 192.505C4.77586 193.095 4.85074 194.14 4.93449 194.863C5.06241 196.026 5.46341 197.137 6.02735 198.16C7.15602 200.191 8.91003 201.729 10.7523 203.095C10.8361 203.162 10.9198 203.224 11.0036 203.285L11.0567 203.373L11.0914 203.431L11.1224 203.457L11.2325 203.409L11.2236 203.356Z" fill="white"/>
<path d="M252.164 203.222C251.929 205.119 251.566 206.998 251.183 208.869C250.967 209.932 250.737 210.991 250.522 212.056C250.286 213.227 249.938 214.42 250.255 215.601L250.262 215.603L250.273 215.767L250.261 215.787C250.204 215.863 250.053 215.863 250.016 215.744L249.994 215.665L249.975 215.64C249.776 215.371 249.648 214.854 249.567 214.656C249.197 213.765 248.888 212.844 248.624 211.914C248.083 210.01 247.754 208.044 247.702 206.062C247.655 204.29 247.832 202.511 248.253 200.791C248.591 199.413 249.072 197.357 250.099 196.302C251.03 195.35 251.806 196.877 252.074 197.65C252.677 199.406 252.386 201.426 252.164 203.222Z" fill="#212227"/>
<path d="M249.967 214.909C250.003 215.218 250.051 215.521 250.108 215.821C250.038 215.601 249.967 215.381 249.902 215.16C249.174 212.789 248.667 210.351 248.597 207.865C248.553 206.473 248.65 205.071 248.901 203.696C249.038 202.956 249.214 202.229 249.439 201.515C249.535 201.214 250.038 199.346 250.466 199.439C250.765 199.504 250.835 201.188 250.84 201.224C250.858 201.558 250.858 201.898 250.854 202.237C250.845 202.934 250.796 203.63 250.739 204.322C250.607 205.825 250.391 207.323 250.21 208.822C249.967 210.818 249.734 212.899 249.967 214.909ZM250.466 199.196C249.774 199.196 249.271 201.431 249.024 202.396C248.632 203.917 248.447 205.481 248.433 207.05C248.408 209.876 248.958 212.657 249.866 215.319C249.902 215.425 249.937 215.535 249.977 215.641L249.993 215.667L250.016 215.742C250.051 215.861 250.206 215.866 250.263 215.787C250.219 215.553 250.183 215.323 250.157 215.089C250.131 214.878 250.108 214.671 250.095 214.464C249.906 212.194 250.233 209.871 250.518 207.618C250.854 204.975 251.382 199.2 250.466 199.196Z" fill="white"/>
<path d="M263.059 208.46C261.789 210.938 259.65 212.836 257.44 214.463C256.255 215.333 255.03 216.147 253.828 216.989C252.819 217.694 251.6 218.441 250.708 219.39L250.589 219.518C250.34 219.796 250.121 220.094 249.942 220.411L249.884 220.449L249.841 220.559L249.793 220.548L249.806 220.425L249.808 220.415L249.801 220.32L249.823 220.281L249.839 220.159C250.201 217.262 252.227 214.335 253.939 212.106C255.643 209.885 257.765 207.905 260.411 206.884C261.076 206.63 262.587 205.924 263.263 206.465C263.881 206.959 263.33 207.936 263.059 208.46Z" fill="#212227"/>
<path d="M260.541 209.8C259.042 212.286 256.447 214.102 254.243 215.913C252.749 217.134 251.286 218.408 250.06 219.884C251.166 217.641 252.757 215.623 254.402 213.775C255.349 212.709 256.323 211.655 257.385 210.704C257.953 210.188 258.553 209.681 259.197 209.253C259.488 209.06 260.069 208.698 260.422 208.592C261.264 208.345 260.797 209.373 260.541 209.8ZM261.096 208.474C260.493 207.869 258.716 209.359 258.271 209.707C256.918 210.761 255.741 212.017 254.596 213.282C252.718 215.367 251.043 217.535 249.902 220.074V220.078L249.84 220.158L249.823 220.282L249.801 220.321L249.809 220.418L249.897 220.317C250.118 220.043 250.351 219.779 250.589 219.519L250.708 219.391C252.365 217.606 254.323 216.103 256.204 214.538C257.509 213.449 258.782 212.295 259.862 210.981C260.14 210.646 261.604 208.98 261.096 208.474Z" fill="white"/>
<path d="M249.539 226.313L249.41 226.386L249.444 226.43L249.435 226.492H249.373C247.025 224.103 244.763 221.2 243.593 218.035C243.1 216.701 242.794 215.294 242.755 213.869C242.729 212.894 242.677 210.932 243.51 210.221C245.189 208.795 246.719 214.85 246.946 215.763C247.363 217.429 247.636 219.124 248.019 220.796C248.44 222.626 248.993 224.421 249.544 226.215L249.539 226.313Z" fill="#212227"/>
<path d="M246.133 221.106C245.472 219.82 244.899 218.471 244.52 217.069C244.37 216.514 244.251 215.945 244.167 215.372C244.105 214.922 244.048 214.468 244.053 214.019C244.062 212.913 244.15 212.626 244.334 212.587C244.449 212.564 244.608 212.683 244.934 213.345C245.142 213.763 245.287 214.24 245.406 214.689C245.578 215.341 245.727 215.998 245.869 216.658C246.155 217.977 246.424 219.304 246.807 220.595C247.35 222.442 248.125 224.244 249.139 225.889C248.015 224.376 246.997 222.799 246.133 221.106ZM249.54 226.311C249.448 226.157 249.359 226.003 249.275 225.844C247.83 223.283 246.882 220.644 246.252 217.708C245.948 216.293 245.679 214.821 245.137 213.472C245 213.138 244.581 211.846 244.026 212.498C243.74 212.838 243.978 215.284 244.092 215.914C244.357 217.356 244.85 218.748 245.454 220.074C246.459 222.288 247.768 224.421 249.302 226.324L249.434 226.492L249.443 226.43L249.412 226.386L249.54 226.311Z" fill="white"/>
<path d="M257.07 220.504C256.845 221.676 256.22 222.747 255.53 223.705C254.137 225.63 252.354 227.23 250.832 229.049C250.606 229.321 250.384 229.597 250.169 229.882L249.974 230.281C249.974 230.274 250.001 230.121 250.051 229.863L250.052 229.861C250.297 228.586 251.098 224.737 252.096 222.769C252.711 221.558 253.425 220.317 254.32 219.289C254.751 218.8 255.764 217.745 256.528 217.975C257.35 218.224 257.188 219.892 257.07 220.504Z" fill="#212227"/>
<path d="M255.596 220.783C254.436 224.049 252.07 226.623 250.263 229.523L250.175 229.664C250.201 229.581 250.223 229.492 250.249 229.408C250.743 227.76 251.374 226.164 252.167 224.64C252.647 223.714 253.189 222.815 253.78 221.951C254.092 221.497 254.41 220.964 254.785 220.554C254.952 220.368 255.433 219.879 255.596 219.963C255.829 220.077 255.671 220.567 255.596 220.783ZM255.829 219.725C255.014 219.218 252.912 222.973 252.629 223.458C251.585 225.257 250.778 227.179 250.232 229.184C250.166 229.408 250.108 229.633 250.051 229.863C250.002 230.123 249.972 230.273 249.972 230.281L250.17 229.88L250.281 229.735C250.461 229.502 250.646 229.271 250.832 229.052C251.744 227.685 252.683 226.332 253.568 224.943C254.207 223.943 254.794 222.916 255.265 221.823C255.371 221.576 256.187 219.945 255.829 219.725Z" fill="white"/>
<path d="M265.256 193.549C262.833 199.115 256.476 201.708 253.72 207.074L253.707 207.102C253.622 207.265 253.543 207.431 253.466 207.601C253.428 207.682 253.326 207.677 253.282 207.629L253.272 207.536L253.328 207.416C253.759 204.07 255.133 200.624 256.731 197.672C258.123 195.106 260.03 192.706 262.67 191.355C263.32 191.021 264.589 190.316 265.318 190.868C266.091 191.452 265.555 192.863 265.256 193.549Z" fill="#212227"/>
<path d="M262.688 195.076C261.951 196.385 260.81 197.452 259.814 198.563C258.809 199.686 257.79 200.797 256.803 201.934C256.024 202.833 255.305 203.803 254.683 204.83C254.163 205.681 253.714 206.58 253.356 207.51C253.608 206.562 253.934 205.633 254.304 204.724L254.323 204.693C254.987 203.076 255.816 201.516 256.671 200.012L256.703 199.956C257.465 198.624 258.32 197.329 259.382 196.213C259.959 195.609 260.589 195.05 261.29 194.591C262.088 194.076 262.784 193.741 262.983 193.997C263.115 194.172 262.907 194.693 262.688 195.076ZM263.075 193.789C262.767 193.56 262.299 193.837 262.036 193.974C261.374 194.309 260.757 194.75 260.197 195.23C259.034 196.218 258.086 197.435 257.267 198.717C255.891 200.876 254.622 203.248 253.811 205.72C253.625 206.28 253.462 206.844 253.33 207.418C253.313 207.488 253.299 207.559 253.282 207.629C253.326 207.677 253.428 207.682 253.467 207.603C253.538 207.435 253.617 207.28 253.696 207.118L253.718 207.074C254.199 205.967 254.754 204.905 255.446 203.9C256.508 202.353 257.826 200.991 259.073 199.598C259.567 199.052 264.142 194.569 263.075 193.789Z" fill="white"/>
<path d="M256.795 200.073C256.067 201.643 255.371 203.234 254.683 204.829C254.357 205.579 254.035 206.328 253.718 207.073L253.696 207.117C253.582 207.386 253.462 207.659 253.349 207.928C252.299 210.37 251.144 212.868 250.505 215.456C250.17 216.809 250.002 218.22 249.923 219.639C249.919 219.784 249.91 219.93 249.902 220.075V220.079C249.902 220.159 249.897 220.238 249.897 220.318L249.893 220.45C249.848 221.671 249.866 222.896 249.888 224.086C249.919 225.748 250.06 227.396 250.219 229.04L250.232 229.186C250.236 229.261 250.245 229.336 250.249 229.411L250.263 229.525C250.267 229.596 250.276 229.666 250.281 229.737C250.333 230.266 250.382 230.795 250.426 231.328H249.919C249.584 229.733 249.399 228.071 249.307 226.427L249.302 226.325C249.288 226.166 249.28 226.003 249.275 225.845C249.262 225.646 249.253 225.453 249.249 225.254C249.232 224.778 249.218 224.307 249.209 223.84C249.161 221.125 249.192 218.295 249.791 215.633C249.809 215.558 249.826 215.488 249.844 215.412L249.866 215.319L249.902 215.161L249.967 214.909C250.007 214.76 250.051 214.61 250.095 214.465L250.135 214.332C250.831 212.009 251.933 209.757 252.934 207.576C253.119 207.175 253.304 206.778 253.493 206.381C253.599 206.16 253.705 205.94 253.811 205.72C253.974 205.39 254.141 205.054 254.304 204.724L254.322 204.693C255.098 203.128 255.904 201.581 256.671 200.012C256.707 199.941 256.83 199.999 256.795 200.073Z" fill="#212227"/>
<path d="M169.566 197.225V212.508H54.1743V197.225H169.566Z" fill="#036B84"/>
<path d="M77.8908 197.225L69.5158 212.508H54.6143L62.9892 197.225H77.8908Z" fill="#EAF2F4"/>
<path d="M108.438 197.225L100.063 212.508H85.1565L93.5308 197.225H108.438Z" fill="#EAF2F4"/>
<path d="M138.98 197.225L130.606 212.508H115.704L124.079 197.225H138.98Z" fill="#EAF2F4"/>
<path d="M169.529 197.225L161.154 212.508H146.247L154.621 197.225H169.529Z" fill="#EAF2F4"/>
<path d="M147.365 231.906H163.235L151.478 159.804H135.609L147.365 231.906Z" fill="#EAF2F4"/>
<path d="M62.7272 231.906H78.597L66.8408 159.804H50.9712L62.7272 231.906Z" fill="#EAF2F4"/>
<path d="M153.862 231.906H169.732L157.976 159.804H142.107L153.862 231.906Z" fill="#EAF2F4"/>
<path d="M62.7272 231.906H78.597L66.8408 159.804H50.9712L62.7272 231.906Z" fill="#EAF2F4"/>
<path d="M60.5701 159.804L59.5826 165.876L58.519 172.4L48.8149 231.902H32.9453L42.6496 172.4L43.7133 165.876L44.7008 159.804H60.5701Z" fill="#EAF2F4"/>
<path d="M58.2712 159.806C57.4355 165.833 56.5365 171.851 55.6277 177.866L52.8293 195.902L49.8969 213.917L48.3832 222.916L46.8076 231.906L48.0984 222.871L49.4505 213.845L52.2496 195.81L55.183 177.796C56.1845 171.795 57.1959 165.795 58.2712 159.806Z" fill="#EAF2F4"/>
<path d="M59.5827 165.878L58.519 172.402H42.6497L43.7133 165.878H59.5827Z" fill="#EAF2F4"/>
<path d="M151.705 159.804L150.718 165.876L149.655 172.4L139.95 231.902H124.081L133.785 172.4L134.849 165.876L135.835 159.804H151.705Z" fill="#EAF2F4"/>
<path d="M149.356 159.806C148.521 165.833 147.622 171.851 146.713 177.866L143.915 195.902L140.982 213.917L139.468 222.916L137.893 231.906L139.184 222.871L140.536 213.845L143.335 195.81L146.268 177.796C147.27 171.795 148.282 165.795 149.356 159.806Z" fill="#EAF2F4"/>
<path d="M150.718 165.878H134.849L133.785 172.402H149.655L150.718 165.878Z" fill="#EAF2F4"/>
<path d="M149.907 199.968V215.25H34.5149V199.968H149.907Z" fill="#036B84"/>
<path d="M58.2311 199.968L49.8565 215.25H34.9548L43.3292 199.968H58.2311Z" fill="#EAF2F4"/>
<path d="M88.779 199.968L80.404 215.25H65.4973L73.8717 199.968H88.779Z" fill="#EAF2F4"/>
<path d="M119.321 199.968L110.946 215.25H96.0449L104.419 199.968H119.321Z" fill="#EAF2F4"/>
<path d="M149.869 199.968L141.494 215.25H126.586L134.961 199.968H149.869Z" fill="#EAF2F4"/>
<path d="M170.632 138.547V165.879H34.5149V138.547H170.632Z" fill="#036B84"/>
<path d="M62.4911 138.547L52.6121 165.879H35.0339L44.9129 138.547H62.4911Z" fill="#EAF2F4"/>
<path d="M98.5253 138.547L88.6462 165.879H71.0613L80.9404 138.547H98.5253Z" fill="#EAF2F4"/>
<path d="M134.553 138.547L124.674 165.879H107.096L116.975 138.547H134.553Z" fill="#EAF2F4"/>
<path d="M170.588 138.547L160.709 165.879H143.124L153.003 138.547H170.588Z" fill="#EAF2F4"/>
<path d="M0.234131 231.77L33.7048 231.612L67.1756 231.554L134.117 231.445L201.059 231.553L234.529 231.61L267.999 231.77L234.529 231.928L201.059 231.985L134.117 232.094L67.1756 231.985L33.7048 231.928L0.234131 231.77Z" fill="#212227"/>
<path d="M117.616 116.992H19.2205V0.000305176H117.616V116.992Z" fill="#036B84"/>
<path d="M85.1568 26.1795C85.1568 35.4236 77.6628 42.918 68.4185 42.918C59.1746 42.918 51.6807 35.4236 51.6807 26.1795C51.6807 16.9347 59.1746 9.44038 68.4185 9.44038C77.6628 9.44038 85.1568 16.9347 85.1568 26.1795Z" fill="#33535F"/>
<path d="M68.419 12.6144C60.9389 12.6144 54.8538 18.7 54.8538 26.1801C54.8538 33.6601 60.9389 39.7451 68.419 39.7451C75.8987 39.7451 81.9834 33.6601 81.9834 26.1801C81.9834 18.7 75.8987 12.6144 68.419 12.6144ZM68.419 40.8945C60.3049 40.8945 53.7043 34.2936 53.7043 26.1801C53.7043 18.0659 60.3049 11.465 68.419 11.465C76.5322 11.465 83.1328 18.0659 83.1328 26.1801C83.1328 34.2936 76.5322 40.8945 68.419 40.8945Z" fill="white"/>
<path d="M63.8729 27.9217L63.845 27.9308L63.8057 27.8815C63.4085 27.3376 63.0184 26.7886 62.6103 26.2532C62.4864 26.0907 62.3311 25.9374 62.159 25.8295C61.3984 25.3513 60.4682 25.7145 60.2674 26.5579C60.1717 26.9607 60.256 27.3357 60.4817 27.6774C61.5215 29.2544 62.5616 30.832 63.6049 32.407C64.173 33.2647 64.9102 33.9359 65.8656 34.329C67.501 35.0015 69.1857 35.0853 70.8809 34.6065C72.1134 34.2582 73.0061 33.4752 73.5357 32.2992C73.8397 31.6241 73.9846 30.9113 73.9859 30.1732C73.9905 28.2349 73.9879 26.2973 73.9879 24.3591C73.9879 23.3117 73.9872 22.2649 73.9879 21.2175C73.9885 20.8712 73.8696 20.5769 73.5974 20.3592C73.255 20.085 72.8697 20.033 72.4734 20.2169C72.0705 20.404 71.8607 20.738 71.8594 21.1824C71.8542 22.5905 71.8574 23.9985 71.8574 25.4059C71.8574 25.6463 71.7619 25.7769 71.5884 25.7749C71.4124 25.7736 71.3214 25.6463 71.3214 25.4039C71.3214 23.3747 71.3214 21.3455 71.3207 19.3163C71.3207 19.2293 71.3188 19.1422 71.3097 19.0558C71.2564 18.5425 70.8192 18.137 70.3026 18.1188C69.6867 18.098 69.1968 18.573 69.1961 19.1994C69.1948 21.0375 69.1955 22.8757 69.1955 24.7139L69.1929 24.8698C69.1773 25.003 69.0694 25.1011 68.9388 25.1057C68.805 25.1109 68.6926 25.0258 68.6666 24.8926L68.6569 24.7243C68.6562 22.686 68.6562 20.6483 68.6562 18.61L68.653 18.4411C68.625 18.0714 68.4496 17.7881 68.1345 17.6003C67.425 17.178 66.5368 17.688 66.5362 18.521C66.5329 20.5892 66.5349 22.6574 66.5349 24.7256L66.531 24.8685C66.5121 25.0069 66.3991 25.1063 66.2639 25.1063C66.132 25.1063 66.0248 25.0167 66.0008 24.8815L65.9936 24.7386C65.9936 23.9692 65.9936 23.1999 65.9936 22.4306C65.9936 21.5703 65.9969 20.7101 65.9923 19.8498C65.9884 19.1383 65.3335 18.6399 64.6526 18.8225C64.1818 18.9486 63.8734 19.3657 63.8732 19.8829C63.8727 22.5118 63.8729 25.1408 63.8729 27.7697V27.9217Z" fill="white"/>
<path d="M63.8729 27.9217V27.7697C63.8729 25.1408 63.8727 22.5118 63.8732 19.8829C63.8734 19.3657 64.1818 18.9486 64.6526 18.8225C65.3335 18.6399 65.9884 19.1383 65.9923 19.8498C65.9969 20.7101 65.9936 21.5703 65.9936 22.4306C65.9936 23.1999 65.9936 23.9692 65.9936 24.7386L66.0008 24.8815C66.0248 25.0167 66.132 25.1063 66.2639 25.1063C66.3991 25.1063 66.5121 25.0069 66.531 24.8685L66.5349 24.7256C66.5349 22.6574 66.5329 20.5892 66.5362 18.521C66.5368 17.688 67.425 17.178 68.1345 17.6003C68.4496 17.7881 68.625 18.0714 68.653 18.4411L68.6562 18.61C68.6562 20.6483 68.6562 22.686 68.6569 24.7243L68.6666 24.8926C68.6926 25.0258 68.805 25.1109 68.9388 25.1057C69.0694 25.1011 69.1773 25.003 69.1929 24.8698L69.1955 24.7139C69.1955 22.8757 69.1948 21.0375 69.1961 19.1994C69.1968 18.573 69.6867 18.098 70.3026 18.1188C70.8192 18.137 71.2564 18.5425 71.3097 19.0558C71.3188 19.1422 71.3207 19.2293 71.3207 19.3163C71.3214 21.3455 71.3214 23.3747 71.3214 25.4039C71.3214 25.6463 71.4124 25.7736 71.5884 25.7749C71.7619 25.7769 71.8574 25.6463 71.8574 25.4059C71.8574 23.9985 71.8542 22.5905 71.8594 21.1824C71.8607 20.738 72.0705 20.404 72.4734 20.2169C72.8697 20.033 73.255 20.085 73.5974 20.3592C73.8696 20.5769 73.9885 20.8712 73.9879 21.2175C73.9872 22.2649 73.9879 23.3117 73.9879 24.3591C73.9879 26.2973 73.9905 28.2349 73.9859 30.1732C73.9846 30.9113 73.8397 31.6241 73.5357 32.2992C73.0061 33.4752 72.1134 34.2582 70.8809 34.6065C69.1857 35.0853 67.501 35.0015 65.8656 34.329C64.9102 33.9359 64.173 33.2647 63.6049 32.407C62.5616 30.832 61.5215 29.2544 60.4817 27.6774C60.256 27.3357 60.1717 26.9607 60.2674 26.5579C60.4682 25.7145 61.3984 25.3513 62.159 25.8295C62.3311 25.9374 62.4864 26.0907 62.6103 26.2532C63.0184 26.7886 63.4085 27.3376 63.8057 27.8815L63.845 27.9308L63.8729 27.9217Z" fill="white"/>
<path d="M23.407 3.03405C23.407 3.63703 22.9184 4.125 22.3159 4.125C21.7134 4.125 21.2251 3.63703 21.2251 3.03405C21.2251 2.43172 21.7134 1.9431 22.3159 1.9431C22.9184 1.9431 23.407 2.43172 23.407 3.03405Z" fill="white"/>
<path d="M115.612 3.03405C115.612 3.63703 115.123 4.125 114.521 4.125C113.919 4.125 113.43 3.63703 113.43 3.03405C113.43 2.43172 113.919 1.9431 114.521 1.9431C115.123 1.9431 115.612 2.43172 115.612 3.03405Z" fill="white"/>
<path d="M23.407 113.959C23.407 114.562 22.9184 115.051 22.3159 115.051C21.7134 115.051 21.2251 114.562 21.2251 113.959C21.2251 113.357 21.7134 112.868 22.3159 112.868C22.9184 112.868 23.407 113.357 23.407 113.959Z" fill="white"/>
<path d="M115.612 113.959C115.612 114.562 115.123 115.051 114.521 115.051C113.919 115.051 113.43 114.562 113.43 113.959C113.43 113.357 113.919 112.868 114.521 112.868C115.123 112.868 115.612 113.357 115.612 113.959Z" fill="white"/>
<path d="M36.0565 73.6309H43.9355V63.3374L36.0565 73.6309ZM43.2522 85.8828V79.0967H29.9534V73.6764L45.2105 54.0914H49.3551V73.6309H53.3631V79.0967H49.3551V85.8828H43.2522Z" fill="#EA8B37"/>
<path d="M74.6322 66.7505C74.6322 65.5361 74.4951 64.4198 74.2223 63.4023C73.9487 62.3854 73.5615 61.5122 73.0605 60.7838C72.5596 60.0547 71.9677 59.4934 71.2842 59.0983C70.6013 58.7039 69.8496 58.5064 69.0303 58.5064C68.1798 58.5064 67.4131 58.7039 66.7296 59.0983C66.0467 59.4934 65.4548 60.0547 64.9537 60.7838C64.4527 61.5122 64.0656 62.3854 63.7926 63.4023C63.519 64.4198 63.3826 65.5361 63.3826 66.7505C63.3826 67.9649 63.519 69.0734 63.7926 70.0753C64.0656 71.0773 64.4527 71.9428 64.9537 72.6712C65.4548 73.4002 66.0467 73.9622 66.7296 74.3566C67.4131 74.7517 68.1798 74.9486 69.0303 74.9486C69.8496 74.9486 70.6013 74.7517 71.2842 74.3566C71.9677 73.9622 72.5596 73.4002 73.0605 72.6712C73.5615 71.9428 73.9487 71.0773 74.2223 70.0753C74.4951 69.0734 74.6322 67.9649 74.6322 66.7505ZM80.78 66.7505C80.78 68.7537 80.4843 70.5991 79.8924 72.2845C79.3005 73.9694 78.4799 75.4268 77.4332 76.6568C76.3852 77.8868 75.1403 78.8426 73.6986 79.5261C72.2555 80.209 70.6994 80.5508 69.0303 80.5508C67.3293 80.5508 65.766 80.209 64.3387 79.5261C62.9113 78.8426 61.6746 77.8868 60.6269 76.6568C59.5795 75.4268 58.7597 73.9694 58.1676 72.2845C57.5757 70.5991 57.2793 68.7537 57.2793 66.7505C57.2793 64.746 57.5757 62.9014 58.1676 61.2159C58.7597 59.5311 59.5795 58.0736 60.6269 56.8436C61.6746 55.6143 62.9113 54.6507 64.3387 53.9516C65.766 53.2537 67.3293 52.9041 69.0303 52.9041C70.6994 52.9041 72.2555 53.2537 73.6986 53.9516C75.1403 54.6507 76.3852 55.6143 77.4332 56.8436C78.4799 58.0736 79.3005 59.5311 79.8924 61.2159C80.4843 62.9014 80.78 64.746 80.78 66.7505Z" fill="#EA8B37"/>
<path d="M100.365 69.3489C102.247 69.6835 103.773 70.5867 104.942 72.059C106.11 73.532 106.695 75.3312 106.695 77.4566C106.695 78.8834 106.414 80.1732 105.853 81.3278C105.29 82.4818 104.502 83.4604 103.485 84.2654C102.467 85.0698 101.23 85.6923 99.7723 86.1328C98.315 86.5727 96.6757 86.793 94.8539 86.793C92.5461 86.793 90.5046 86.4213 88.7282 85.6773C86.9519 84.9327 85.4718 83.8476 84.2874 82.4207L87.7491 78.094C88.5379 79.0959 89.48 79.8698 90.5728 80.4169C91.6657 80.9633 93.032 81.2369 94.6713 81.2369C96.523 81.2369 97.9355 80.8724 98.9069 80.1433C99.8789 79.415 100.365 78.2915 100.365 76.773C100.365 75.1948 99.8029 73.9797 98.6795 73.1292C97.5561 72.2793 95.8558 71.8543 93.5785 71.8543H92.3037V67.2995H93.7156C95.5972 67.2995 97.0552 66.8824 98.0876 66.0468C99.1194 65.2119 99.6359 64.1417 99.6359 62.8357C99.6359 61.5907 99.2103 60.6648 98.3611 60.0573C97.51 59.4504 96.4022 59.147 95.0358 59.147C93.6389 59.147 92.3862 59.4654 91.2791 60.1028C90.17 60.7408 89.2669 61.6369 88.5684 62.7902L84.7428 58.5089C85.1983 57.8104 85.8058 57.1808 86.5646 56.6188C87.3235 56.0567 88.1818 55.5707 89.1382 55.1614C90.0946 54.7514 91.1342 54.4323 92.2582 54.2049C93.3809 53.9769 94.5349 53.8631 95.7193 53.8631C97.2676 53.8631 98.6795 54.0607 99.9549 54.4551C101.23 54.8501 102.33 55.3966 103.257 56.0951C104.183 56.7936 104.897 57.6363 105.397 58.6226C105.899 59.6096 106.149 60.711 106.149 61.9247C106.149 62.8357 106.012 63.7011 105.739 64.5211C105.466 65.3405 105.071 66.0851 104.555 66.7531C104.038 67.421 103.423 67.9824 102.71 68.4379C101.996 68.8934 101.215 69.1975 100.365 69.3489Z" fill="#EA8B37"/>
<path d="M34.1111 96.0281L34.1175 97.0411L29.9896 97.0664L29.9534 91.1224L34.005 91.0977L34.0114 92.11L31.115 92.1282L31.1236 93.5596L33.6266 93.5447L33.6327 94.4823L31.1292 94.4979L31.1391 96.0469L34.1111 96.0281Z" fill="white"/>
<path d="M36.158 94.0222L37.6067 94.0131C37.7122 94.0125 37.8112 93.9871 37.9028 93.9365C37.9947 93.8851 38.0739 93.8162 38.1402 93.7298C38.2069 93.6428 38.2592 93.5401 38.2975 93.4231C38.3358 93.3055 38.3548 93.1795 38.3536 93.0456C38.3531 92.9059 38.3297 92.7779 38.284 92.6616C38.2388 92.544 38.1784 92.4427 38.1026 92.3569C38.0265 92.2705 37.9396 92.2042 37.8417 92.1574C37.744 92.1106 37.6445 92.0872 37.5442 92.0879L36.1463 92.0963L36.158 94.0222ZM35.0212 97.0352L34.9846 91.0912L37.6135 91.0749C37.8868 91.073 38.1396 91.1289 38.3716 91.2413C38.6043 91.3543 38.8048 91.5038 38.9736 91.6896C39.1416 91.8761 39.2744 92.0872 39.3708 92.3238C39.4672 92.5603 39.516 92.7987 39.5173 93.0385C39.5198 93.4238 39.4256 93.7747 39.235 94.0917C39.0442 94.4075 38.785 94.6369 38.4564 94.7785L39.8267 97.0059L38.5287 97.0137L37.3029 95.0287L36.1643 95.0352L36.1767 97.028L35.0212 97.0352Z" fill="white"/>
<path d="M41.7253 93.9877L43.1735 93.9786C43.2796 93.9773 43.3786 93.952 43.4702 93.9013C43.5623 93.8506 43.6413 93.7817 43.7075 93.6947C43.7742 93.6083 43.8265 93.5056 43.8648 93.388C43.9034 93.2704 43.9219 93.145 43.9214 93.0111C43.9204 92.8714 43.8973 92.7428 43.8516 92.6265C43.8062 92.5095 43.7461 92.4075 43.6702 92.3217C43.594 92.236 43.507 92.1697 43.409 92.1223C43.3113 92.0755 43.2121 92.0521 43.1113 92.0527L41.7136 92.0618L41.7253 93.9877ZM40.5883 97L40.552 91.056L43.1809 91.0398C43.4545 91.0378 43.707 91.0937 43.9392 91.2068C44.1714 91.3198 44.3722 91.4693 44.5409 91.6551C44.709 91.8409 44.8417 92.0521 44.9382 92.2886C45.0346 92.5258 45.0836 92.7642 45.0846 93.004C45.0872 93.3893 44.9932 93.7402 44.8027 94.0559C44.6118 94.373 44.3521 94.6017 44.0237 94.7434L45.394 96.9708L44.0961 96.9786L42.8702 94.9935L41.7316 95.0007L41.7438 96.9928L40.5883 97Z" fill="white"/>
<path d="M46.9497 93.9883C46.9512 94.2456 46.9918 94.4938 47.0715 94.7329C47.1512 94.9727 47.2654 95.1838 47.4144 95.3677C47.5636 95.5503 47.7454 95.6972 47.9611 95.8076C48.1765 95.9181 48.4215 95.9727 48.6948 95.9707C48.974 95.9688 49.2204 95.9103 49.4347 95.7946C49.6489 95.679 49.829 95.5256 49.9763 95.3346C50.1227 95.1442 50.2328 94.9304 50.3065 94.692C50.3808 94.4548 50.4166 94.2131 50.4153 93.9675C50.4138 93.7109 50.3719 93.4626 50.2897 93.2229C50.2072 92.9838 50.0915 92.772 49.9422 92.5887C49.7935 92.4055 49.6111 92.2599 49.3953 92.1527C49.1798 92.0449 48.9385 91.9922 48.6702 91.9935C48.3913 91.9955 48.1431 92.054 47.9263 92.1703C47.7096 92.2859 47.5289 92.4373 47.385 92.6251C47.241 92.8135 47.1321 93.026 47.0581 93.2638C46.9842 93.5016 46.9481 93.7433 46.9497 93.9883ZM48.6931 96.9921C48.2573 96.9947 47.8619 96.9122 47.5065 96.7439C47.1512 96.5756 46.8454 96.3521 46.5898 96.0714C46.3342 95.7914 46.1352 95.4704 45.9939 95.1085C45.8517 94.7459 45.7797 94.3756 45.7774 93.9954C45.7751 93.5997 45.8467 93.2196 45.9926 92.8558C46.1377 92.4925 46.3395 92.1703 46.5974 91.8896C46.8555 91.6089 47.1624 91.3854 47.5187 91.2184C47.8748 91.0514 48.2621 90.9669 48.6808 90.9643C49.1105 90.9617 49.5029 91.0468 49.8585 91.2203C50.2138 91.3938 50.5181 91.6225 50.7709 91.9058C51.0237 92.1885 51.2214 92.5114 51.363 92.8733C51.5049 93.2352 51.5769 93.603 51.5792 93.9766C51.5816 94.373 51.5115 94.7518 51.3686 95.113C51.2254 95.4736 51.0262 95.7933 50.7714 96.0708C50.5161 96.3489 50.211 96.5717 49.8547 96.7381C49.4988 96.9051 49.1115 96.9895 48.6931 96.9921Z" fill="white"/>
<path d="M53.6216 93.9129L55.0698 93.9038C55.1759 93.9031 55.2746 93.8778 55.3665 93.8271C55.4584 93.7758 55.5373 93.7069 55.6038 93.6205C55.67 93.5334 55.7228 93.4307 55.7612 93.3131C55.7995 93.1962 55.8183 93.0701 55.8172 92.9363C55.8165 92.7966 55.7931 92.6686 55.7477 92.5516C55.7022 92.4347 55.6421 92.3333 55.5662 92.2475C55.4901 92.1611 55.4033 92.0948 55.3051 92.0481C55.2071 92.0013 55.1081 91.9779 55.0076 91.9785L53.6097 91.987L53.6216 93.9129ZM52.4846 96.9258L52.448 90.9818L55.0771 90.9655C55.3502 90.9642 55.603 91.0195 55.8352 91.1319C56.0675 91.2449 56.2682 91.3944 56.4373 91.5802C56.6053 91.7667 56.738 91.9779 56.8342 92.2144C56.9307 92.4509 56.9797 92.6894 56.9809 92.9291C56.9834 93.3144 56.8893 93.6653 56.6984 93.9824C56.5078 94.2982 56.2485 94.5275 55.92 94.6692L57.2903 96.8965L55.9923 96.9043L54.7662 94.9193L53.6277 94.9258L53.6399 96.9186L52.4846 96.9258Z" fill="white"/>
<path d="M60.0612 96.8789L60.0249 90.9349L64.0179 90.9102L64.0242 91.9232L61.1863 91.9407L61.1956 93.4729L63.5562 93.4586L63.5621 94.3955L61.2015 94.4105L61.2168 96.8718L60.0612 96.8789Z" fill="white"/>
<path d="M65.5264 93.8757C65.5277 94.1323 65.568 94.3805 65.6479 94.6203C65.7271 94.8594 65.8415 95.0712 65.9909 95.2544C66.1397 95.4377 66.3223 95.5845 66.538 95.6943C66.7531 95.8048 66.998 95.8594 67.2709 95.8574C67.5503 95.8561 67.7972 95.797 68.0116 95.6813C68.2253 95.5657 68.4053 95.4124 68.5528 95.2213C68.699 95.0309 68.8094 94.8172 68.8835 94.5794C68.9576 94.3415 68.9933 94.0998 68.992 93.8542C68.9901 93.5976 68.9485 93.35 68.8666 93.1102C68.7841 92.8705 68.6678 92.6593 68.5184 92.4761C68.3696 92.2929 68.1877 92.1473 67.9719 92.0394C67.7562 91.9316 67.5145 91.879 67.2468 91.8809C66.9681 91.8822 66.7193 91.9413 66.5029 92.057C66.2859 92.1733 66.1053 92.324 65.9617 92.5125C65.8174 92.7009 65.7083 92.9127 65.6349 93.1505C65.5608 93.3883 65.5244 93.6301 65.5264 93.8757ZM67.2696 96.8788C66.8343 96.8814 66.4386 96.7989 66.0825 96.6307C65.7271 96.463 65.4218 96.2388 65.1664 95.9588C64.9106 95.6781 64.7119 95.3571 64.57 94.9952C64.4284 94.6333 64.3561 94.2623 64.3541 93.8828C64.3515 93.4871 64.4233 93.1064 64.5687 92.7431C64.7144 92.3793 64.9162 92.057 65.1736 91.7763C65.4322 91.4956 65.7388 91.2721 66.0949 91.1051C66.4509 90.9381 66.8388 90.8536 67.2572 90.851C67.6874 90.8484 68.0798 90.9342 68.4352 91.107C68.7906 91.2812 69.0953 91.5099 69.3474 91.7925C69.6008 92.0758 69.7983 92.3981 69.9393 92.76C70.0816 93.1226 70.1537 93.4897 70.1557 93.864C70.1583 94.2603 70.0881 94.6385 69.9452 94.9997C69.8022 95.3604 69.6028 95.68 69.3481 95.9581C69.0934 96.2356 68.7873 96.4585 68.4313 96.6248C68.0752 96.7918 67.688 96.8762 67.2696 96.8788Z" fill="white"/>
<path d="M72.1986 93.7996L73.6468 93.7911C73.7527 93.7905 73.8515 93.7645 73.9437 93.7138C74.0353 93.6631 74.1146 93.5942 74.1809 93.5072C74.2472 93.4201 74.2998 93.3181 74.3381 93.2005C74.3765 93.0829 74.3953 92.9575 74.394 92.8236C74.3933 92.6839 74.3706 92.5553 74.3251 92.439C74.2796 92.322 74.2192 92.2206 74.1432 92.1342C74.0672 92.0485 73.9801 91.9822 73.882 91.9348C73.7845 91.888 73.6851 91.8652 73.5844 91.8652L72.1869 91.8743L72.1986 93.7996ZM71.0615 96.8125L71.0251 90.8685L73.654 90.8523C73.9275 90.8503 74.1802 90.9062 74.4122 91.0192C74.6448 91.1317 74.8456 91.2818 75.0138 91.4676C75.1821 91.6534 75.3147 91.8646 75.4115 92.1011C75.5076 92.3376 75.5564 92.5767 75.5577 92.8165C75.5603 93.2018 75.466 93.5527 75.2757 93.8691C75.0847 94.1855 74.8254 94.4142 74.4973 94.5559L75.8669 96.7833L74.5694 96.7911L73.3434 94.806L72.2044 94.8132L72.2167 96.8054L71.0615 96.8125Z" fill="white"/>
<path d="M80.2426 95.0054C80.242 94.8995 80.2231 94.7982 80.1861 94.7007C80.1491 94.6032 80.0997 94.5181 80.038 94.446C79.9762 94.3739 79.9035 94.3167 79.8196 94.2758C79.7358 94.2342 79.6436 94.214 79.5429 94.2147L77.7685 94.2257L77.7775 95.791L79.4935 95.7806C79.6 95.78 79.6988 95.7598 79.7911 95.7202C79.8827 95.6805 79.9619 95.6253 80.0282 95.5551C80.0945 95.485 80.1471 95.4024 80.1861 95.3076C80.2244 95.2121 80.2433 95.112 80.2426 95.0054ZM77.7529 91.8145L77.762 93.3128L79.3031 93.3031C79.498 93.3018 79.6637 93.2342 79.7995 93.099C79.9359 92.9645 80.0029 92.78 80.0016 92.5455C80.0003 92.3167 79.9366 92.1355 79.8099 92.0023C79.6832 91.8691 79.5279 91.8034 79.344 91.8047L77.7529 91.8145ZM81.4076 95.2166C81.4095 95.4674 81.3601 95.6883 81.2607 95.8787C81.1613 96.0691 81.0242 96.2289 80.8495 96.3582C80.6747 96.4882 80.4713 96.5863 80.24 96.6552C80.0087 96.7234 79.7625 96.7585 79.5 96.7604L76.6282 96.7773L76.5918 90.8333L79.7729 90.8138C79.9795 90.8132 80.1672 90.8567 80.3349 90.9445C80.5025 91.0328 80.6455 91.1478 80.7644 91.2895C80.882 91.4305 80.9736 91.5916 81.0385 91.7729C81.1042 91.9542 81.1379 92.1368 81.1386 92.3206C81.1405 92.6111 81.0697 92.8833 80.9261 93.1387C80.7825 93.3934 80.5714 93.5831 80.2933 93.7072C80.6338 93.806 80.9047 93.984 81.1042 94.2426C81.3043 94.5012 81.405 94.8255 81.4076 95.2166Z" fill="white"/>
<path d="M82.3213 96.7422L82.2849 90.7982L83.4401 90.791L83.4765 96.7344L82.3213 96.7422Z" fill="white"/>
<path d="M88.6235 93.726C88.6215 93.4414 88.5806 93.1789 88.5013 92.9398C88.4214 92.7 88.3057 92.494 88.1544 92.3218C88.003 92.1497 87.8165 92.0171 87.5956 91.9235C87.374 91.83 87.1245 91.7838 86.8451 91.7858L85.8407 91.7923L85.8647 95.7103L86.8692 95.7038C87.1544 95.7025 87.4059 95.6506 87.6261 95.5485C87.8457 95.4472 88.0289 95.3075 88.1758 95.1308C88.3226 94.954 88.4337 94.7461 88.5111 94.505C88.5877 94.2646 88.6254 94.0047 88.6235 93.726ZM84.7153 96.7305L84.679 90.7865L86.8393 90.7728C87.3246 90.7702 87.7502 90.8456 88.1167 90.9996C88.4831 91.1536 88.7904 91.3635 89.0373 91.6305C89.2849 91.8963 89.4707 92.2094 89.5961 92.5681C89.7208 92.9281 89.7845 93.3114 89.7871 93.7188C89.7904 94.1711 89.7241 94.5804 89.5896 94.9469C89.4551 95.3133 89.2602 95.6265 89.0055 95.8877C88.7501 96.1489 88.4428 96.3517 88.0842 96.4965C87.7249 96.6408 87.322 96.7142 86.8757 96.7175L84.7153 96.7305Z" fill="white"/>
<path d="M94.6181 93.6863C94.6161 93.4017 94.5752 93.1398 94.4959 92.9C94.416 92.6603 94.301 92.455 94.149 92.2821C93.997 92.1106 93.8111 91.978 93.5896 91.8838C93.3687 91.7909 93.1185 91.7448 92.8398 91.7461L91.8353 91.7526L91.8587 95.6706L92.8638 95.6648C93.1484 95.6628 93.4005 95.6109 93.6201 95.5095C93.8397 95.4075 94.0236 95.2684 94.1704 95.0917C94.3166 94.915 94.4284 94.7064 94.505 94.4653C94.5817 94.2256 94.6194 93.9657 94.6181 93.6863ZM90.71 96.6914L90.6736 90.7474L92.8333 90.7338C93.3186 90.7305 93.7449 90.8059 94.1113 90.9599C94.4777 91.1139 94.7844 91.3244 95.032 91.5908C95.2795 91.8572 95.4653 92.1697 95.5901 92.529C95.7155 92.8884 95.7792 93.2717 95.7818 93.6791C95.785 94.1313 95.7187 94.5407 95.5842 94.9072C95.4497 95.2736 95.2548 95.5868 94.9995 95.848C94.7441 96.1099 94.4375 96.3119 94.0782 96.4568C93.7195 96.6011 93.316 96.6752 92.8697 96.6778L90.71 96.6914Z" fill="white"/>
<path d="M100.825 95.6179L100.831 96.6316L96.7036 96.6562L96.6672 90.7129L100.719 90.6876L100.725 91.7005L97.8289 91.7181L97.8374 93.1502L100.341 93.1346L100.347 94.0722L97.8432 94.0877L97.853 95.6368L100.825 95.6179Z" fill="white"/>
<path d="M102.868 92.809L102.89 96.6179L101.735 96.625L101.699 90.681L102.595 90.6758L105.716 94.5575L105.692 90.6648L106.847 90.6583L106.884 96.5938L105.946 96.599L102.868 92.809Z" fill="white"/>
<path d="M28.831 229.684H4.60449L13.6169 198.34C14.6781 195.452 18.7623 195.452 19.8234 198.34L28.831 229.684Z" fill="#036B84"/>
<path d="M22.7629 208.574H10.6729L12.574 201.965H20.8664L22.7629 208.574Z" fill="#EAF2F4"/>
<path d="M25.9144 219.539H7.52075L9.42225 212.926H24.0135L25.9144 219.539Z" fill="#EAF2F4"/>
<path d="M9.44922 212.832L9.91215 211.222C9.91215 211.222 9.91215 211.222 9.91241 211.222L9.44922 212.832Z" fill="#EAF2F4"/>
<path d="M9.91237 211.223C9.91211 211.223 9.91211 211.223 9.91211 211.223L10.1121 210.526C10.1124 210.526 10.1124 210.526 10.1126 210.526L9.91237 211.223ZM10.155 210.378H10.1545L10.6212 208.755C10.6215 208.755 10.6215 208.755 10.6217 208.755L10.155 210.378ZM10.6638 208.609C10.6636 208.609 10.6633 208.609 10.6631 208.609L10.673 208.574H10.6737L10.6638 208.609Z" fill="#21363E"/>
<path d="M10.1128 210.527C10.1126 210.527 10.1126 210.527 10.1123 210.527L10.1547 210.38H10.1552L10.1128 210.527ZM10.6219 208.757C10.6217 208.756 10.6217 208.756 10.6214 208.756L10.6633 208.61C10.6635 208.61 10.6638 208.61 10.6641 208.61L10.6219 208.757Z" fill="#EAF2F4"/>
<path d="M9.42236 212.926L9.44926 212.833L9.42256 212.926" fill="#21363E"/>
<path d="M10.9783 207.512L11.781 204.718C11.7813 204.719 11.7813 204.719 11.7815 204.719L10.9783 207.512ZM12.0135 203.913C12.0132 203.913 12.013 203.912 12.0128 203.911L13.183 199.839C13.183 199.841 13.1827 199.845 13.1827 199.847L12.4962 202.236L12.0135 203.913Z" fill="#EAF2F4"/>
<path d="M10.8936 207.809L10.9783 207.514L10.8936 207.809Z" fill="#21363E"/>
<path d="M11.7815 204.719C11.7813 204.719 11.7813 204.718 11.781 204.718L12.0128 203.911C12.013 203.912 12.0132 203.912 12.0135 203.912L11.7815 204.719Z" fill="#21363E"/>
<path d="M28.8283 229.684H4.60693L7.52205 219.541H18.6766C22.0943 223.914 26.1561 225.86 27.9256 226.546L28.8283 229.684ZM15.026 212.927H9.42231L9.44921 212.835L9.9124 211.225L10.1126 210.528L10.155 210.38L10.6217 208.757L10.6639 208.611L10.6738 208.576H13.8103C14.1232 210.152 14.5368 211.601 15.026 212.927ZM12.4963 202.238L13.1828 199.85C13.1555 200.575 13.146 201.28 13.1534 201.967H12.5739L12.4963 202.238Z" fill="#036B84"/>
<path d="M13.8103 208.574H10.6729L10.8936 207.807L10.9784 207.513L11.7817 204.72L12.0136 203.913L12.4964 202.236L12.574 201.965H13.1534C13.1799 204.389 13.4149 206.584 13.8103 208.574Z" fill="#EAF2F4"/>
<path d="M18.6765 219.539H7.52197L9.42243 212.926H9.42223H15.0259C16.005 215.584 17.2872 217.761 18.6765 219.539Z" fill="#EAF2F4"/>
<path d="M33.4356 231.77H0V229.681H33.4356V231.77Z" fill="#036B84"/>
<path d="M256.607 229.684H232.381L241.393 198.34C242.455 195.452 246.538 195.452 247.6 198.34L256.607 229.684Z" fill="#036B84"/>
<path d="M250.538 208.574H238.449L240.35 201.965H248.642L250.538 208.574Z" fill="#EAF2F4"/>
<path d="M253.691 219.539H235.297L237.198 212.926H251.789L253.691 219.539Z" fill="#EAF2F4"/>
<path d="M256.605 229.684H250.322C250.322 229.684 250.322 229.683 250.322 229.682H256.605V229.684ZM249.628 229.684H232.383L232.384 229.682H249.628C249.628 229.683 249.628 229.684 249.628 229.684ZM237.853 210.652L238.45 208.575L237.853 210.652ZM239.13 206.208L240.96 199.841C240.96 199.843 240.96 199.845 240.96 199.847L240.35 201.966L239.13 206.208Z" fill="#EAF2F4"/>
<path d="M250.322 229.684H250.321C250.322 229.684 250.322 229.682 250.323 229.682C250.323 229.682 250.322 229.684 250.322 229.684Z" fill="#21363E"/>
<path d="M256.605 229.684H250.322H232.384L235.298 219.541H246.452C249.87 223.914 253.932 225.86 255.702 226.546L256.605 229.684ZM242.802 212.927H237.199L237.853 210.653L238.45 208.576H241.587C241.9 210.152 242.313 211.601 242.802 212.927ZM240.93 201.967H240.35L240.96 199.848C240.932 200.573 240.923 201.28 240.93 201.967Z" fill="#036B84"/>
<path d="M241.587 208.574H238.45L239.13 206.208L240.35 201.965H240.93C240.956 204.389 241.192 206.584 241.587 208.574Z" fill="#EAF2F4"/>
<path d="M246.452 219.539H235.299L237.199 212.926H242.802C243.781 215.584 245.063 217.761 246.452 219.539Z" fill="#EAF2F4"/>
<path d="M261.212 231.77H227.776V229.681H261.212V231.77Z" fill="#036B84"/>
<path d="M131.19 259.656C132.747 260.159 178.704 259.583 180.379 258.486C181.023 258.081 177.794 214.84 177.794 214.84L148.096 215.137L151.258 244.066C151.258 244.066 134.362 251.887 132.646 253.287C130.944 254.682 129.632 259.161 131.19 259.656Z" fill="#FFA8A7"/>
<path d="M131.191 259.656C132.746 260.16 178.706 259.583 180.378 258.487C180.677 258.305 180.151 249.024 179.501 239.071H150.709L151.257 244.065C151.257 244.065 134.36 251.886 132.644 253.287C130.943 254.683 129.628 259.159 131.191 259.656Z" fill="white"/>
<path d="M130.685 260.288C132.325 260.824 178.73 260.388 180.499 259.239C181.179 258.814 180.198 243.508 180.199 243.422H151.491L151.507 243.935C151.507 243.935 133.67 252.113 131.856 253.582C130.057 255.045 129.044 259.76 130.685 260.288Z" fill="#212227"/>
<path d="M130.809 258.469C138.696 258.202 170.528 257.868 178.344 258.204C178.408 258.207 178.408 258.25 178.344 258.254C170.534 258.689 138.699 258.765 130.81 258.598C130.644 258.595 130.643 258.475 130.809 258.469Z" fill="#212227"/>
<path d="M148.131 243.539C151.23 242.931 155.03 243.372 157.423 245.561C157.515 245.646 157.394 245.776 157.293 245.745C154.221 244.809 151.356 244.216 148.148 243.931C147.921 243.91 147.909 243.582 148.131 243.539Z" fill="#212227"/>
<path d="M145.903 244.91C149.002 244.301 152.803 244.743 155.195 246.932C155.288 247.017 155.166 247.147 155.066 247.116C151.994 246.18 149.128 245.587 145.919 245.302C145.693 245.281 145.682 244.953 145.903 244.91Z" fill="#212227"/>
<path d="M143.676 246.28C146.774 245.672 150.575 246.113 152.968 248.304C153.06 248.388 152.938 248.518 152.837 248.488C149.766 247.551 146.9 246.957 143.691 246.673C143.465 246.653 143.454 246.325 143.676 246.28Z" fill="#212227"/>
<path d="M148.255 242.844H180.229C180.229 242.844 174.887 168.692 175.079 167.693C175.398 166.022 177.285 158.463 179.799 148.588C180.586 145.498 181.435 142.183 182.318 138.747C184.702 129.455 187.33 119.302 189.619 110.466C193.056 97.2291 195.738 86.946 195.738 86.946H168.641C168.641 86.946 165.483 96.9575 161.502 109.984C155.017 131.154 146.351 160.29 145.496 167.374C144.456 175.952 148.255 242.844 148.255 242.844Z" fill="#212227"/>
<path d="M149.74 237.017C154.615 236.916 153.214 236.876 158.09 236.829C160.476 236.806 176.156 236.669 178.385 237.038V237.138C176.155 237.507 160.476 237.37 158.09 237.347C153.214 237.3 154.615 237.261 149.74 237.159C149.648 237.157 149.648 237.019 149.74 237.017Z" fill="#212227"/>
<path d="M190.813 90.6216L185.843 108.126L180.994 125.663C179.379 131.51 177.821 137.372 176.265 143.235C174.717 149.1 173.175 154.966 171.743 160.865C171.398 162.346 171.046 163.82 170.755 165.32C170.675 165.692 170.623 166.08 170.557 166.46C170.542 166.669 170.518 166.898 170.524 167.096L170.567 167.663L174.814 232.25L174.787 232.445L175.15 232.225L171.23 167.612L171.188 167.045C171.186 166.865 171.212 166.716 171.219 166.548C171.285 166.182 171.334 165.817 171.415 165.448C171.706 163.972 172.066 162.497 172.41 161.024C175.254 149.243 178.421 137.53 181.502 125.8L190.813 90.6216Z" fill="#212227"/>
<path d="M169.291 86.9468C171.172 101.501 177.977 125.682 180.592 145.48C186.704 121.492 195.738 86.9468 195.738 86.9468H169.291Z" fill="#212227"/>
<path d="M234.601 259.426C233.031 259.914 194.429 260.088 192.757 258.969C192.114 258.554 191.886 252.045 191.837 244.172C191.837 244.089 191.837 244.008 191.837 243.925C191.823 242.303 188.092 215.037 188.092 215.037L217.253 215.632L220.625 244.271L220.603 244.759C220.603 244.759 231.492 251.585 233.202 253.01C234.899 254.428 236.172 258.943 234.601 259.426Z" fill="#FFA8A7"/>
<path d="M191.294 239.072C191.623 241.678 191.835 243.541 191.835 243.928V244.176C191.886 252.048 192.112 258.555 192.755 258.971C194.427 260.088 233.033 259.92 234.603 259.431C236.173 258.949 234.902 254.429 233.201 253.012C231.492 251.588 220.605 244.761 220.605 244.761L220.626 244.272L220.014 239.072H191.294Z" fill="white"/>
<path d="M236.508 260.288C234.869 260.824 193.353 260.388 191.584 259.239C190.903 258.814 191.885 243.508 191.884 243.422H220.593L220.576 243.935C220.576 243.935 233.522 252.113 235.336 253.582C237.135 255.045 238.148 259.76 236.508 260.288Z" fill="#212227"/>
<path d="M236.383 258.469C228.498 258.202 201.555 257.868 193.739 258.204C193.675 258.207 193.675 258.25 193.738 258.254C201.549 258.689 228.494 258.765 236.382 258.598C236.549 258.595 236.55 258.475 236.383 258.469Z" fill="#212227"/>
<path d="M218.262 244.387C214.33 243.301 209.436 243.308 206.244 245.468C206.12 245.552 206.269 245.715 206.399 245.693C210.387 245.033 214.093 244.734 218.219 244.827C218.509 244.834 218.543 244.465 218.262 244.387Z" fill="#212227"/>
<path d="M221.034 246.219C217.102 245.133 212.208 245.14 209.016 247.301C208.893 247.384 209.041 247.547 209.172 247.525C213.16 246.865 216.865 246.566 220.991 246.659C221.282 246.666 221.317 246.298 221.034 246.219Z" fill="#212227"/>
<path d="M223.808 248.055C219.875 246.969 214.981 246.976 211.789 249.136C211.665 249.22 211.814 249.383 211.945 249.361C215.933 248.701 219.638 248.402 223.764 248.495C224.055 248.501 224.089 248.133 223.808 248.055Z" fill="#212227"/>
<path d="M169.291 86.946C169.291 86.946 173.4 111.99 173.68 112.796C173.68 112.796 175.207 113.52 177.963 114.793L189.197 242.714L221.325 242.844L204.354 86.946H169.291Z" fill="#212227"/>
<path d="M190.298 237.001C195.206 236.92 193.796 236.874 198.705 236.848C201.107 236.834 216.892 236.764 219.134 237.145V237.245C216.888 237.607 201.105 237.403 198.703 237.37C193.794 237.301 195.204 237.268 190.298 237.144C190.205 237.142 190.206 237.002 190.298 237.001Z" fill="#212227"/>
<path d="M172.344 112.019C175.544 113.289 178.606 115.024 181.529 116.83C181.643 116.901 181.557 117.08 181.433 117.019C178.333 115.513 175.169 114.062 172.156 112.388C171.919 112.257 172.099 111.921 172.344 112.019Z" fill="#212227"/>
<path d="M173.526 97.6726C174.031 100.669 174.312 103.714 174.65 106.734C174.731 107.458 174.817 108.182 174.895 108.906C174.967 109.57 175.045 110.24 175.416 110.813C176.069 111.822 177.235 112.297 178.292 112.758C178.414 112.811 178.365 113.005 178.23 112.963C177.156 112.626 175.967 112.184 175.176 111.347C174.214 110.327 174.243 108.785 174.094 107.473C173.726 104.233 173.375 100.952 173.389 97.6876C173.389 97.6109 173.513 97.594 173.526 97.6726Z" fill="#212227"/>
<path d="M177.17 98.5908C177.276 100.749 177.517 102.909 177.697 105.062C177.786 106.125 177.861 107.19 177.927 108.255C177.992 109.337 178.118 110.446 178.083 111.53C178.081 111.603 177.965 111.62 177.952 111.544C177.775 110.519 177.75 109.453 177.665 108.417C177.575 107.326 177.502 106.232 177.441 105.14C177.319 102.959 177.26 100.764 177.063 98.5882C177.057 98.5207 177.167 98.5213 177.17 98.5908Z" fill="#212227"/>
<path d="M178.618 118.004L180.34 132.702L182.133 147.391L185.83 176.755L192.393 234.086L186.512 176.667L182.656 147.324L180.672 132.659L178.618 118.004Z" fill="#212227"/>
<path d="M171.577 47.4866C156.121 60.1745 138.602 83.495 142.244 92.2856C144.7 98.2153 161.885 81.1689 161.937 80.1819C161.976 79.436 171.213 61.7709 176.792 51.022C182.367 40.2827 174.813 44.8311 171.577 47.4866Z" fill="#FFA8A7"/>
<path d="M171.577 47.4866C156.121 60.1745 138.602 83.495 142.244 92.2856C144.7 98.2153 161.885 81.1689 161.937 80.1819C161.976 79.436 171.213 61.7709 176.792 51.022C182.367 40.2827 174.813 44.8311 171.577 47.4866Z" fill="#036B84"/>
<path d="M151.966 89.6172L171.492 56.2488C170.241 59.8231 169.099 63.7879 168.097 67.7794C164.702 74.3621 161.958 79.7759 161.933 80.182C161.907 80.7155 156.944 85.8674 151.966 89.6172Z" fill="#036B84"/>
<path d="M165.376 98.2148H205.581C205.695 98.0738 207.105 94.9329 206.9 93.5353C206.171 88.5627 194.286 51.5166 188.767 45.249C185.631 41.687 178.448 42.919 176.713 45.2737C169.291 55.3456 163.697 86.5971 163.601 93.8062C163.58 95.3124 165.272 98.1011 165.376 98.2148Z" fill="#036B84"/>
<path d="M181.287 55.2074L179.03 51.379L176.582 54.3874L177.388 57.1905L179.99 57.3711L181.287 55.2074Z" fill="#212227"/>
<path d="M179.99 57.3697L181.32 86.0833L176.29 94.6211L172.923 85.7623L177.388 57.1891L179.99 57.3697Z" fill="#212227"/>
<path d="M179.029 51.3782C178.754 53.3378 178.511 55.3014 178.281 57.2663C178.04 59.2292 177.81 61.1941 177.603 63.1603C177.187 67.0926 176.796 71.0282 176.543 74.9723C176.254 78.9137 176.086 82.8649 176.115 86.8135C176.123 88.7881 176.198 90.7627 176.393 92.727C176.577 94.6892 176.86 96.6554 177.476 98.5391C176.136 94.7951 175.87 90.766 175.74 86.82C175.633 82.8552 175.806 78.8916 176.058 74.9391C176.352 70.9886 176.736 67.0452 177.232 63.1167C177.486 61.1532 177.755 59.1922 178.047 57.2345C178.354 55.2787 178.677 53.3255 179.029 51.3782Z" fill="#212227"/>
<path d="M188.452 71.8398L188.375 71.8126L183.664 70.1654L182.979 63.2175L190.959 62.8569L191.647 69.6612L188.452 71.8398ZM190.667 63.1954L183.335 63.5268L183.967 69.9276L188.404 71.4786L191.304 69.502L190.667 63.1954Z" fill="#036B84"/>
<path d="M171.347 71.8594L169.124 69.6463L169.593 62.855L175.161 63.2228L174.692 70.1512L171.347 71.8594ZM169.896 63.2013L169.458 69.5209L171.409 71.463L174.381 69.9458L174.814 63.5256L169.896 63.2013Z" fill="#036B84"/>
<path d="M175.19 62.625L169.91 62.1325L170.143 61.0448L175.19 61.5717V62.625Z" fill="white"/>
<path d="M185.223 59.1882C185.223 59.1882 185.307 61.0316 185.497 61.5131C185.688 61.9946 187.054 62.1992 187.054 62.1992C187.054 62.1992 188.25 61.8347 188.362 61.4618C188.475 61.0881 188.183 58.9972 188.183 58.9972C188.183 58.9972 187.186 59.1285 186.512 58.3423C186.512 58.3423 186.228 59.1493 185.223 59.1882Z" fill="white"/>
<path d="M205.994 101.41H164.451V98.2146H205.994V101.41Z" fill="#212227"/>
<path d="M173.757 101.056H180.285V98.5674H173.757V101.056ZM181.584 102.355H172.458V97.2678H181.584V102.355Z" fill="#EAF2F4"/>
<path d="M194.353 47.5818C210.575 59.2748 229.521 81.4505 226.438 90.4523C224.358 96.5243 206.138 80.5896 206.025 79.6078C205.939 78.8658 195.612 61.8147 189.369 51.4368C183.132 41.0686 190.958 45.1341 194.353 47.5818Z" fill="#FFA8A7"/>
<path d="M194.353 47.5818C210.575 59.2748 229.521 81.4505 226.438 90.4523C224.358 96.5243 206.138 80.5896 206.025 79.6078C205.939 78.8658 195.612 61.8147 189.369 51.4368C183.132 41.0686 190.958 45.1341 194.353 47.5818Z" fill="#036B84"/>
<path d="M191.983 55.7749C193.269 57.693 194.493 59.6468 195.707 61.6052C196.927 63.5596 198.104 65.5401 199.281 67.5206C200.444 69.5089 201.606 71.4984 202.726 73.5146L204.404 76.5412C204.943 77.5626 205.501 78.5724 206.025 79.6055C205.378 78.6523 204.766 77.6763 204.135 76.7121L202.303 73.781C201.082 71.8259 199.904 69.8428 198.727 67.8604C197.563 65.8689 196.399 63.8774 195.28 61.8605C194.154 59.8469 193.037 57.8288 191.983 55.7749Z" fill="#212227"/>
<path d="M192.246 57.9267C192.726 58.3581 193.15 58.8194 193.579 59.2775L194.213 59.9734C194.423 60.208 194.64 60.4354 194.848 60.6836C194.267 60.3951 193.778 59.9617 193.341 59.4978C192.913 59.0228 192.524 58.5108 192.246 57.9267Z" fill="#212227"/>
<path d="M220.003 55.4544L149.783 102.309L147.175 98.3996L217.395 51.5454L220.003 55.4544Z" fill="#212227"/>
<path d="M168.879 108.891L159.958 95.5205L163.867 92.9124L172.787 106.282L168.879 108.891Z" fill="#212227"/>
<path d="M143.576 94.3559C147.757 95.9004 150.396 94.7191 166.569 87.6049C168.807 86.6205 167.857 69.9567 165.243 69.8853C161.121 69.7722 148.902 76.2347 148.094 76.724C141.288 80.8467 140.739 93.3085 143.576 94.3559Z" fill="#FFA8A7"/>
<path d="M185.365 80.246C184.98 82.2966 182.872 81.8652 182.872 81.8652C182.872 81.8652 183.663 83.0913 183.386 84.4662C183.07 86.0399 180.467 86.2316 180.467 86.2316C180.467 86.2316 181.01 87.639 180.572 89.0606C180.118 90.5369 177.519 91.1054 177.519 91.1054C177.519 91.1054 177.306 92.6941 176.047 93.6512C173.895 95.2879 170.026 93.8455 167.573 92.9118C163.929 91.5239 158.974 87.1178 157.71 86.305L162.057 70.5126C162.057 70.5126 164.19 69.6854 166.567 69.9161C170.766 70.3228 176.525 71.9966 178.331 72.8342C181.22 74.1733 185.743 78.2298 185.365 80.246Z" fill="#FFA8A7"/>
<path d="M182.854 81.5704C180.714 79.6549 178.124 78.4775 175.605 77.1546L175.561 77.2423C178.08 78.5288 180.312 80.2988 182.776 81.6828C182.844 81.7211 182.912 81.6223 182.854 81.5704Z" fill="#212227"/>
<path d="M180.49 86.0043C179.992 85.5852 179.359 85.3318 178.774 85.0615C178.145 84.7698 177.511 84.4897 176.872 84.2188C175.593 83.6769 174.301 83.1649 172.996 82.6905C172.938 82.6691 172.892 82.7523 172.951 82.7776C174.225 83.3201 175.49 83.8816 176.74 84.4767C177.365 84.7743 177.988 85.0784 178.609 85.3857C179.187 85.6716 179.772 86.0212 180.403 86.1732C180.497 86.1953 180.565 86.0673 180.49 86.0043Z" fill="#212227"/>
<path d="M177.466 91.0808C177.048 90.6994 176.394 90.5214 175.876 90.3148C175.288 90.0796 174.702 89.8417 174.116 89.6007C172.946 89.1186 171.777 88.6358 170.624 88.1121L170.579 88.2005C171.748 88.7378 172.908 89.2908 174.082 89.8177C174.657 90.0763 175.235 90.3323 175.815 90.5844C176.306 90.7988 176.897 91.1231 177.443 91.1406L177.466 91.0808Z" fill="#212227"/>
<path d="M159.413 70.7986L155.491 93.5337C155.491 93.5337 144.526 96.7279 142.77 94.0541C141.015 91.3804 141.621 83.1564 145.876 78.3079C149.334 74.3684 159.413 70.7986 159.413 70.7986Z" fill="#036B84"/>
<path d="M155.743 71.6092L162.801 69.0888L159.117 93.0513L152.358 94.6211L155.743 71.6092Z" fill="#036B84"/>
<path d="M155.534 73.0305C155.412 74.781 155.219 76.5217 155.016 78.2605C154.821 80.0005 154.574 81.7328 154.327 83.465C154.066 85.1954 153.802 86.925 153.489 88.6475L153.018 91.231C152.837 92.0893 152.678 92.9503 152.478 93.8047C152.533 92.9288 152.629 92.0581 152.702 91.1848L152.995 88.5748C153.191 86.8354 153.437 85.1031 153.685 83.3708C153.947 81.6405 154.211 79.9102 154.524 78.1883C154.83 76.4645 155.147 74.742 155.534 73.0305Z" fill="#212227"/>
<path d="M162.612 70.3154C162.637 69.9002 162.671 69.487 162.71 69.0744L162.832 69.1757C161.688 69.6858 160.519 70.127 159.362 70.6C158.198 71.0548 157.027 71.4889 155.852 71.9132L156.062 71.6565L155.959 72.3557L155.934 72.5265L155.774 72.6019L151.876 74.4375C150.583 75.0658 149.295 75.7013 148.038 76.4141C148.588 75.9423 149.193 75.5401 149.792 75.1321C150.399 74.737 151.025 74.3732 151.651 74.0086C152.903 73.2809 154.195 72.6351 155.506 72.0158L155.322 72.2615L155.424 71.5623L155.452 71.37L155.635 71.3057C156.812 70.8892 157.994 70.4837 159.182 70.0971C160.378 69.73 161.562 69.3317 162.769 69.001L162.923 68.9587L162.893 69.103C162.806 69.5078 162.714 69.9119 162.612 70.3154Z" fill="#212227"/>
<path d="M149.261 74.707C149.639 74.4062 150.09 74.2249 150.55 74.1112C151.012 74.0066 151.491 73.9637 151.966 74.0501C151.741 74.1391 151.515 74.195 151.292 74.258L150.625 74.427L149.953 74.5771C149.727 74.6226 149.502 74.6784 149.261 74.707Z" fill="#212227"/>
<path d="M225.667 91.7521C222.024 94.0652 214.991 94.3238 200.771 83.8374C198.803 82.3864 203.383 66.3361 205.948 66.8396C209.994 67.633 220.501 76.6166 221.181 77.2709C226.919 82.7848 228.219 90.1309 225.667 91.7521Z" fill="#FFA8A7"/>
<path d="M191.049 57.3915C189.538 58.83 191.047 60.3648 191.047 60.3648C191.047 60.3648 189.588 60.3687 188.585 61.3479C187.436 62.47 188.692 64.7584 188.692 64.7584C188.692 64.7584 187.215 65.0677 186.26 66.2094C185.269 67.3926 186.206 69.8831 186.206 69.8831C186.206 69.8831 184.988 70.926 184.87 72.5029C184.668 75.1988 187.982 77.6614 190.1 79.2111C193.247 81.5145 199.64 83.276 201.009 83.8945L211.896 71.6569C211.896 71.6569 211.429 69.4159 209.942 67.5472C207.317 64.2445 202.78 60.3232 201.095 59.2621C198.399 57.5662 192.535 55.9776 191.049 57.3915Z" fill="#FFA8A7"/>
<path d="M191.303 60.219C194.075 60.9734 196.472 62.5055 198.951 63.8993L198.902 63.9844C196.452 62.5698 193.753 61.6595 191.251 60.3451C191.182 60.3093 191.229 60.1989 191.303 60.219Z" fill="#212227"/>
<path d="M188.868 64.6165C189.489 64.8055 190.047 65.1999 190.593 65.543C191.18 65.9127 191.76 66.2928 192.334 66.6814C193.485 67.4598 194.617 68.2649 195.725 69.1017L195.676 69.1875C194.528 68.4136 193.369 67.6573 192.19 66.9322C191.599 66.569 191.006 66.2116 190.41 65.8581C189.856 65.5287 189.244 65.2279 188.774 64.7808C188.704 64.7152 188.775 64.5872 188.868 64.6165Z" fill="#212227"/>
<path d="M186.255 69.9132C186.802 70.0562 187.307 70.5084 187.762 70.8307C188.279 71.1959 188.797 71.5591 189.319 71.9191C190.359 72.6383 191.401 73.3576 192.466 74.0399L192.417 74.125C191.331 73.4376 190.236 72.7638 189.155 72.0659C188.625 71.7235 188.096 71.3778 187.569 71.0295C187.122 70.7326 186.529 70.4136 186.216 69.9639L186.255 69.9132Z" fill="#212227"/>
<path d="M203.421 86.1788L216.492 73.2694C216.492 73.2694 222.11 77.1419 224.199 80.6429C226.287 84.1451 228.231 88.5621 226.467 91.143C224.703 93.7238 216.853 95.56 203.421 86.1788Z" fill="#036B84"/>
<path d="M203.622 87.4688L198.213 83.8307L213.576 69.2254L218.427 73.5294L203.622 87.4688Z" fill="#036B84"/>
<path d="M203.962 87.1484C205.023 85.9659 206.131 84.8353 207.247 83.7125C208.359 82.5852 209.505 81.4936 210.652 80.4033C211.809 79.324 212.967 78.2454 214.159 77.2032L215.95 75.6425C216.562 75.1389 217.16 74.6198 217.786 74.1305C217.261 74.727 216.707 75.2923 216.168 75.8738L214.502 77.5671C213.39 78.6951 212.244 79.786 211.097 80.8763C209.939 81.9549 208.781 83.0335 207.589 84.0751C206.401 85.1218 205.206 86.1615 203.962 87.1484Z" fill="#212227"/>
<path d="M212.482 70.2448C212.82 69.8777 213.169 69.5222 213.515 69.1636L213.568 69.1096L213.634 69.1629C214.482 69.8341 215.302 70.5398 216.137 71.2266L218.585 73.3532L218.78 73.5222L218.59 73.7073C218.381 73.912 218.165 74.1095 217.949 74.3077L217.931 73.9451C218.948 74.769 219.923 75.6209 220.83 76.5526C221.743 77.4747 222.606 78.4454 223.39 79.4766C222.466 78.5688 221.54 77.6735 220.583 76.8112C219.619 75.9614 218.66 75.0926 217.642 74.324L217.421 74.157L217.623 73.9614C217.834 73.758 218.045 73.5547 218.262 73.3578L218.266 73.7119L215.864 71.5339C215.083 70.7867 214.285 70.057 213.517 69.2942L213.635 69.2929C213.253 69.6119 212.873 69.9342 212.482 70.2448Z" fill="#212227"/>
<path d="M220.695 76.6662C221.071 76.6824 221.413 76.815 221.73 76.9845C222.04 77.1658 222.339 77.3965 222.524 77.7266C222.175 77.5921 221.878 77.4342 221.571 77.2678C221.271 77.0931 220.974 76.9163 220.695 76.6662Z" fill="#212227"/>
<path d="M198.936 83.1463C198.724 83.4062 198.499 83.6518 198.279 83.9026L198.266 83.7545C200.172 84.8155 201.976 86.026 203.712 87.3386L203.519 87.3483C203.792 87.1469 204.067 86.9474 204.349 86.7557L204.408 86.7161L204.449 86.7518C204.648 86.9227 204.846 87.0916 205.036 87.2716C204.804 87.1495 204.579 87.0169 204.354 86.885L204.455 86.8818C204.217 87.1261 203.971 87.3606 203.726 87.5952L203.645 87.6719L203.533 87.6049C201.663 86.4919 199.86 85.2769 198.159 83.9124L198.061 83.8331L198.148 83.7642C198.409 83.557 198.665 83.3445 198.936 83.1463Z" fill="#212227"/>
<path d="M177.939 50.4375C180.324 51.264 184.898 47.956 186.863 45.0984C186.996 44.9015 186.9 42.6819 186.912 39.9789C186.925 38.3396 186.979 36.5138 187.148 34.851C187.184 34.5106 176.464 36.324 176.464 36.324C176.464 36.324 177.135 39.9127 176.822 42.8093C176.793 43.051 176.746 43.2739 176.681 43.4844L176.655 43.5955C176.311 44.8703 175.633 49.637 177.939 50.4375Z" fill="#FFA8A7"/>
<path d="M186.502 34.8261C185.733 37.5876 183.293 44.2002 177.718 43.7603C177.33 43.7298 176.976 43.6746 176.657 43.594L176.682 43.4809C176.745 43.2685 176.794 43.0488 176.825 42.8084C177.137 39.9066 176.465 36.318 176.465 36.318C176.465 36.318 184.197 35.0094 186.502 34.8261Z" fill="#212227"/>
<path d="M188.333 21.4947C189.6 25.1678 188.029 35.9668 185.475 38.4541C181.771 42.0609 175.514 42.6197 172.402 38.124C169.384 33.7655 171.681 19.728 174.553 17.4474C178.782 14.0881 186.46 16.0699 188.333 21.4947Z" fill="#FFA8A7"/>
<path d="M179.777 28.1498L179.824 28.2219C179.699 28.9464 179.678 29.7976 180.302 30.1316L180.29 30.1719C179.502 29.9458 179.543 28.8165 179.777 28.1498Z" fill="#212227"/>
<path d="M180.534 27.4797C181.717 27.5551 181.479 29.9163 180.383 29.8461C179.304 29.7772 179.543 27.416 180.534 27.4797Z" fill="#212227"/>
<path d="M175.577 27.7211L175.514 27.7796C175.464 28.5131 175.282 29.3455 174.596 29.5209L174.598 29.5625C175.416 29.5307 175.647 28.4241 175.577 27.7211Z" fill="#212227"/>
<path d="M175.001 26.8929C173.834 26.6843 173.503 29.0345 174.585 29.2275C175.65 29.4165 175.979 27.067 175.001 26.8929Z" fill="#212227"/>
<path d="M182.025 26.0452C181.703 26.1336 181.392 26.1615 181.066 26.2167C180.697 26.2785 180.41 26.3662 180.054 26.2057C179.864 26.1193 179.758 25.8308 179.824 25.6378C179.979 25.1875 180.411 24.9997 180.852 24.9068C181.331 24.8068 181.724 24.8516 182.158 25.0751C182.579 25.2921 182.448 25.9282 182.025 26.0452Z" fill="#212227"/>
<path d="M173.956 25.589C174.266 25.7118 174.572 25.7729 174.891 25.8626C175.251 25.9639 175.527 26.0815 175.898 25.96C176.097 25.895 176.232 25.6189 176.187 25.4201C176.082 24.9561 175.672 24.7229 175.244 24.5838C174.779 24.4324 174.382 24.435 173.927 24.6105C173.486 24.7814 173.547 25.4272 173.956 25.589Z" fill="#212227"/>
<path d="M179.475 35.0018C179.282 35.1558 179.083 35.3741 178.816 35.3689C178.559 35.365 178.273 35.2201 178.048 35.1058L178.013 35.1402C178.174 35.4404 178.556 35.6561 178.902 35.6308C179.238 35.6061 179.43 35.3364 179.542 35.0421L179.475 35.0018Z" fill="#212227"/>
<path d="M178.84 34.0727C177.408 33.7146 175.705 33.5652 175.699 33.4827L176.002 31.8044C175.786 31.8862 174.689 32.2527 174.735 31.9596C175.127 29.5393 175.562 26.8473 176.463 24.5212C176.489 24.4432 176.609 24.4738 176.595 24.5537C176.31 26.8948 175.616 29.1702 175.294 31.5171C175.642 31.4242 176.211 31.2436 176.505 31.2793C176.582 31.3105 176.203 33.1844 176.207 33.2013C177.055 33.3443 177.489 33.3748 178.868 33.8927C178.956 33.9551 178.911 34.0902 178.84 34.0727Z" fill="#212227"/>
<path d="M188.086 31.8164C186.488 31.4201 185.67 29.1004 185.67 26.014C185.67 23.7068 185 20.2897 182.667 19.8348C180.068 19.328 178.918 21.1344 177.294 21.0304C175.806 20.9394 175.676 19.2955 174.578 19.3209C173.487 19.3475 172.72 20.647 172.077 22.7263C172.726 20.2052 173.515 17.8284 174.458 17.0812C178.687 13.7219 186.738 15.4977 188.61 20.9167C189.331 23.0024 188.859 27.9633 188.086 31.8164Z" fill="#212227"/>
<path d="M186.357 30.3182C186.357 30.3182 188.728 26.8076 190.317 27.6484C191.906 28.4879 190.163 33.5489 188.324 34.2675C186.486 34.9855 185.789 33.2974 185.789 33.2974L186.357 30.3182Z" fill="#FFA8A7"/>
<path d="M189.781 29.0869L189.792 29.1363C188.504 29.6828 187.84 30.8959 187.382 32.1499C187.76 31.6639 188.282 31.3929 188.931 31.8413L188.898 31.9108C188.365 31.8055 187.983 31.9043 187.631 32.3351C187.382 32.6405 187.214 33.0238 187.038 33.3747C186.979 33.4917 186.769 33.4332 186.811 33.2987L186.821 33.2688C186.761 31.6158 188.009 29.2825 189.781 29.0869Z" fill="#212227"/>
<path d="M176.523 43.8124L179.259 50.1885L187.045 41.9294L189.35 44.481C189.35 44.481 181.836 57.5022 181.775 56.9226L179.026 51.4614L175.298 55.3762L175.41 45.737L176.523 43.8124Z" fill="#036B84"/>
<path d="M175.084 50.6101C175.156 49.0195 175.184 47.4152 175.329 45.8292C175.334 45.7733 175.421 45.746 175.437 45.8123C175.787 47.3398 175.479 53.4222 175.516 54.8784L175.533 54.8615C175.688 54.6919 178.991 51.4125 179.026 51.4632C179.615 52.3267 181.633 56.3039 181.773 56.6665C182.961 54.5983 187.523 47.0741 188.939 45.1125C188.979 45.0566 189.066 45.1001 189.035 45.1657C187.993 47.3457 181.96 57.4754 181.863 57.4488C181.799 57.5008 179.293 52.6029 178.986 51.6744C178.431 52.3859 175.104 56.0778 175.087 55.842C174.976 54.2494 175.012 52.2033 175.084 50.6101Z" fill="#212227"/>
<path d="M192.447 23.7366C192.197 24.1277 190.554 23.836 190.321 23.9075L189.114 24.8555C189.114 24.8555 182.552 19.2311 180.936 18.699C179.313 18.1668 172.032 18.5164 172.032 18.5164L171.231 15.0305C171.231 15.0305 168.133 12.818 167.974 11.219C167.88 10.2625 175.789 7.83955 181.958 10.102C189.782 12.9727 193.824 21.5774 192.447 23.7366Z" fill="#212227"/>
<path d="M190.323 23.9088L189.115 24.8555C189.115 24.8555 182.554 19.2344 180.934 18.7016C179.312 18.1701 172.032 18.5177 172.032 18.5177C172.032 18.5177 171.259 15.3124 171.231 15.0318C171.231 15.0318 179.717 14.0747 182.388 16.0187C185.058 17.9602 188.795 20.8939 190.323 23.9088Z" fill="#212227"/>
<path d="M173.789 14.5248C173.789 14.5248 174.034 16.2902 174.224 16.7717C174.414 17.2532 175.62 17.5352 175.62 17.5352C175.62 17.5352 176.816 17.1706 176.928 16.7977C177.04 16.4247 176.749 14.3331 176.749 14.3331C176.749 14.3331 175.753 14.4644 175.079 13.6788C175.079 13.6788 174.794 14.4858 173.789 14.5248Z" fill="#036B84"/>
<path d="M189.114 24.8555C189.114 24.8555 185.416 23.0634 182.822 22.7905C180.621 22.5586 174.457 22.1954 172.745 22.2779C170.241 22.3994 166.312 19.3715 167.264 18.4943C168.853 17.0304 178.881 17.9921 180.966 18.6308C184.183 19.6165 189.114 24.8555 189.114 24.8555Z" fill="#212227"/>
<path d="M187.755 23.5037C187.791 23.8702 188.118 24.1386 188.485 24.1022C188.853 24.0658 189.12 23.7389 189.084 23.3712C189.047 23.0047 188.721 22.7364 188.353 22.7728C187.986 22.8091 187.718 23.1366 187.755 23.5037Z" fill="#EAF2F4"/>
</g>
<defs>
<clipPath id="clip0">
<rect width="268" height="268" fill="white"/>
</clipPath>
</defs>
</svg>
