<svg width="26" height="30" viewBox="0 0 26 30" fill="none" xmlns="http://www.w3.org/2000/svg">
<path fill-rule="evenodd" clip-rule="evenodd" d="M8.64447 21.0889H16.2748C16.8499 21.0889 17.3268 20.594 17.3268 19.9972C17.3268 19.4004 16.8499 18.9201 16.2748 18.9201H8.64447C8.06938 18.9201 7.59249 19.4004 7.59249 19.9972C7.59249 20.594 8.06938 21.0889 8.64447 21.0889ZM13.3854 11.6425H8.64447C8.06938 11.6425 7.59249 12.1373 7.59249 12.7341C7.59249 13.3309 8.06938 13.8112 8.64447 13.8112H13.3854C13.9605 13.8112 14.4374 13.3309 14.4374 12.7341C14.4374 12.1373 13.9605 11.6425 13.3854 11.6425ZM23.3953 10.3698C23.725 10.3659 24.084 10.3616 24.4102 10.3616C24.7608 10.3616 25.0413 10.6527 25.0413 11.0166V22.7191C25.0413 26.3288 22.222 29.2544 18.7435 29.2544H7.57847C3.93161 29.2544 0.958008 26.1832 0.958008 22.3989V6.70824C0.958008 3.09853 3.79134 0.143799 7.28392 0.143799H14.774C15.1387 0.143799 15.4192 0.44946 15.4192 0.813343V5.50015C15.4192 8.16377 17.5372 10.3471 20.104 10.3616C20.7036 10.3616 21.2322 10.3662 21.6947 10.3703C22.0546 10.3734 22.3745 10.3762 22.6569 10.3762C22.8565 10.3762 23.1153 10.3731 23.3953 10.3698ZM23.782 8.24526C22.6291 8.24963 21.2699 8.24526 20.2923 8.23507C18.741 8.23507 17.4632 6.90908 17.4632 5.29927V1.46249C17.4632 0.835153 18.1967 0.523669 18.6161 0.976339C19.3755 1.79571 20.4192 2.92212 21.458 4.04326C22.4933 5.16069 23.5238 6.27289 24.2632 7.07065C24.6727 7.51167 24.3726 8.2438 23.782 8.24526Z" fill="#036B84"/>
</svg>
