<svg width="134" height="48" viewBox="0 0 134 48" fill="none" xmlns="http://www.w3.org/2000/svg">
<path d="M0 37.1876V0.710938H14.5907C17.1913 0.710938 19.2938 1.23445 20.8981 2.28146C22.5024 3.31159 23.6761 4.61192 24.4191 6.18244C25.1622 7.75297 25.5337 9.34038 25.5337 10.9447C25.5337 12.988 25.0693 14.6852 24.1405 16.0362C23.2286 17.3872 21.9705 18.2907 20.3662 18.7466V17.4801C22.6459 17.9529 24.3516 19.0084 25.483 20.6465C26.6314 22.2845 27.2055 24.1168 27.2055 26.1433C27.2055 28.3218 26.8002 30.2385 25.9896 31.8934C25.1959 33.5484 23.98 34.8487 22.342 35.7944C20.7039 36.7232 18.6436 37.1876 16.1612 37.1876H0ZM6.99137 30.7029H15.4519C16.3807 30.7029 17.2082 30.5087 17.9344 30.1203C18.6605 29.715 19.2263 29.1577 19.6316 28.4484C20.0537 27.7223 20.2648 26.8695 20.2648 25.89C20.2648 25.0287 20.0875 24.2604 19.7329 23.5849C19.3782 22.9094 18.8378 22.3774 18.1117 21.989C17.4024 21.5837 16.5158 21.3811 15.4519 21.3811H6.99137V30.7029ZM6.99137 14.947H14.4894C15.2662 14.947 15.9586 14.8119 16.5665 14.5417C17.1744 14.2715 17.6557 13.8577 18.0104 13.3005C18.365 12.7263 18.5423 11.9917 18.5423 11.0967C18.5423 9.9821 18.1961 9.04485 17.5037 8.28492C16.8114 7.52498 15.8066 7.14502 14.4894 7.14502H6.99137V14.947Z" fill="white"/>
<path d="M62.1897 37.1876V0.710938H77.5909C77.9456 0.710938 78.4184 0.727825 79.0095 0.761599C79.6174 0.778487 80.1578 0.829149 80.6307 0.913586C82.8091 1.25133 84.5907 1.96904 85.9755 3.06672C87.3772 4.1644 88.4073 5.54916 89.0659 7.22101C89.7245 8.87597 90.0538 10.7251 90.0538 12.7685C90.0538 15.8251 89.2939 18.4427 87.774 20.6211C86.2542 22.7827 83.873 24.1168 80.6307 24.6234L77.5909 24.8261H69.0797V37.1876H62.1897ZM82.7585 37.1876L75.5645 22.3436L82.6571 20.9758L90.5604 37.1876H82.7585ZM69.0797 18.392H77.287C77.6416 18.392 78.03 18.3751 78.4522 18.3413C78.8744 18.3076 79.2628 18.24 79.6174 18.1387C80.5462 17.8854 81.2639 17.4632 81.7706 16.8721C82.2772 16.2642 82.6234 15.5971 82.8091 14.871C83.0118 14.1279 83.1131 13.4271 83.1131 12.7685C83.1131 12.1099 83.0118 11.4175 82.8091 10.6914C82.6234 9.94832 82.2772 9.28127 81.7706 8.69022C81.2639 8.08227 80.5462 7.65164 79.6174 7.39833C79.2628 7.29701 78.8744 7.22946 78.4522 7.19568C78.03 7.16191 77.6416 7.14502 77.287 7.14502H69.0797V18.392Z" fill="white"/>
<path d="M0.431641 47.9072V43.4675H2.16129C2.42644 43.4675 2.65253 43.522 2.83958 43.6309C3.02868 43.7398 3.17256 43.8837 3.27122 44.0625C3.37193 44.2393 3.42229 44.4305 3.42229 44.636C3.42229 44.8765 3.36063 45.0872 3.2373 45.2681C3.11398 45.4489 2.94749 45.5733 2.73783 45.6411L2.73167 45.49C3.01737 45.5661 3.23936 45.7059 3.39763 45.9093C3.5559 46.1128 3.63503 46.3554 3.63503 46.637C3.63503 46.896 3.58159 47.12 3.47471 47.3091C3.36988 47.4982 3.21778 47.6452 3.0184 47.75C2.82108 47.8548 2.58676 47.9072 2.31544 47.9072H0.431641ZM0.986607 47.3831H2.21062C2.37505 47.3831 2.52201 47.3533 2.65151 47.2937C2.781 47.232 2.88274 47.1457 2.95674 47.0347C3.03279 46.9237 3.07081 46.7901 3.07081 46.6339C3.07081 46.4838 3.0369 46.3492 2.96907 46.23C2.9033 46.1108 2.80977 46.0162 2.6885 45.9463C2.56929 45.8744 2.43055 45.8384 2.27228 45.8384H0.986607V47.3831ZM0.986607 45.3205H2.15512C2.28667 45.3205 2.40485 45.2927 2.50968 45.2372C2.61656 45.1797 2.70084 45.0995 2.7625 44.9967C2.82622 44.894 2.85808 44.7737 2.85808 44.636C2.85808 44.4449 2.79333 44.2886 2.66384 44.1674C2.53435 44.0461 2.36477 43.9855 2.15512 43.9855H0.986607V45.3205Z" fill="white"/>
<path d="M6.30898 47.9997C5.96573 47.9997 5.66255 47.9288 5.39946 47.787C5.13636 47.6452 4.92979 47.4468 4.77974 47.1919C4.63175 46.935 4.55776 46.6339 4.55776 46.2886V43.4706L5.11272 43.4675V46.2423C5.11272 46.452 5.14767 46.6349 5.21755 46.7911C5.28949 46.9453 5.38404 47.0737 5.5012 47.1765C5.61836 47.2793 5.74682 47.3564 5.88659 47.4078C6.02842 47.4571 6.16922 47.4818 6.30898 47.4818C6.45081 47.4818 6.59263 47.4561 6.73446 47.4047C6.87628 47.3533 7.00475 47.2772 7.11985 47.1765C7.23701 47.0737 7.33053 46.9443 7.40042 46.788C7.4703 46.6318 7.50525 46.4499 7.50525 46.2423V43.4675H8.06021V46.2886C8.06021 46.6318 7.98519 46.9319 7.83514 47.1889C7.68715 47.4458 7.48161 47.6452 7.21851 47.787C6.95542 47.9288 6.65224 47.9997 6.30898 47.9997Z" fill="white"/>
<path d="M10.6207 47.9997C10.3062 47.9997 10.0225 47.9463 9.76972 47.8394C9.51896 47.7325 9.31136 47.5804 9.14692 47.3831C8.98454 47.1837 8.87869 46.9484 8.82936 46.677L9.39666 46.5876C9.4686 46.8672 9.61762 47.0861 9.84372 47.2443C10.0719 47.4006 10.3401 47.4787 10.6484 47.4787C10.8478 47.4787 11.0276 47.4478 11.188 47.3862C11.3503 47.3225 11.4788 47.232 11.5734 47.1149C11.6679 46.9977 11.7152 46.859 11.7152 46.6986C11.7152 46.6 11.6977 46.5157 11.6628 46.4458C11.6299 46.3739 11.5836 46.3132 11.524 46.2639C11.4665 46.2125 11.4007 46.1694 11.3267 46.1344C11.2527 46.0995 11.1756 46.0707 11.0955 46.0481L9.96396 45.712C9.84063 45.675 9.72142 45.6288 9.60631 45.5733C9.49121 45.5157 9.38844 45.4448 9.298 45.3605C9.20756 45.2742 9.13562 45.1714 9.08218 45.0522C9.02874 44.931 9.00202 44.7881 9.00202 44.6237C9.00202 44.3606 9.06984 44.1365 9.2055 43.9515C9.34322 43.7645 9.52923 43.6217 9.76355 43.523C9.99787 43.4243 10.262 43.376 10.5559 43.3781C10.854 43.3801 11.1201 43.4336 11.3545 43.5384C11.5908 43.6412 11.7861 43.7892 11.9403 43.9824C12.0965 44.1756 12.2013 44.4068 12.2547 44.6761L11.672 44.7778C11.6412 44.597 11.5723 44.4418 11.4655 44.3123C11.3606 44.1807 11.2291 44.08 11.0708 44.0101C10.9125 43.9382 10.7389 43.9012 10.5498 43.8991C10.3689 43.8971 10.2055 43.9259 10.0595 43.9855C9.9136 44.0451 9.79747 44.1283 9.71114 44.2352C9.62481 44.34 9.58165 44.4613 9.58165 44.599C9.58165 44.7347 9.6207 44.8446 9.69881 44.9289C9.77691 45.0111 9.87249 45.0769 9.98554 45.1262C10.1006 45.1735 10.2127 45.2126 10.3216 45.2434L11.1664 45.487C11.263 45.5137 11.374 45.5507 11.4994 45.5979C11.6268 45.6452 11.7501 45.712 11.8693 45.7984C11.9886 45.8826 12.0872 45.9957 12.1653 46.1375C12.2434 46.2773 12.2825 46.454 12.2825 46.6678C12.2825 46.8816 12.2393 47.0717 12.153 47.2382C12.0687 47.4047 11.9505 47.5444 11.7984 47.6575C11.6463 47.7685 11.4696 47.8528 11.2681 47.9103C11.0667 47.9699 10.8509 47.9997 10.6207 47.9997Z" fill="white"/>
<path d="M13.2992 47.9072V43.4675H13.848V47.9072H13.2992Z" fill="white"/>
<path d="M15.0814 47.9072V43.4675H15.6364L17.9518 46.936V43.4675H18.5068V47.9072H17.9518L15.6364 44.4356V47.9072H15.0814Z" fill="white"/>
<path d="M19.6772 47.9072V43.4675H22.4829V43.9885H20.226V45.379H22.1129V45.9001H20.226V47.3862H22.4829V47.9072H19.6772Z" fill="white"/>
<path d="M24.9814 47.9997C24.6669 47.9997 24.3833 47.9463 24.1304 47.8394C23.8797 47.7325 23.6721 47.5804 23.5076 47.3831C23.3453 47.1837 23.2394 46.9484 23.1901 46.677L23.7574 46.5876C23.8293 46.8672 23.9783 47.0861 24.2044 47.2443C24.4326 47.4006 24.7008 47.4787 25.0091 47.4787C25.2085 47.4787 25.3884 47.4478 25.5487 47.3862C25.7111 47.3225 25.8395 47.232 25.9341 47.1149C26.0286 46.9977 26.0759 46.859 26.0759 46.6986C26.0759 46.6 26.0584 46.5157 26.0235 46.4458C25.9906 46.3739 25.9444 46.3132 25.8847 46.2639C25.8272 46.2125 25.7614 46.1694 25.6874 46.1344C25.6134 46.0995 25.5364 46.0707 25.4562 46.0481L24.3247 45.712C24.2013 45.675 24.0821 45.6288 23.967 45.5733C23.8519 45.5157 23.7492 45.4448 23.6587 45.3605C23.5683 45.2742 23.4963 45.1714 23.4429 45.0522C23.3895 44.931 23.3627 44.7881 23.3627 44.6237C23.3627 44.3606 23.4306 44.1365 23.5662 43.9515C23.7039 43.7645 23.89 43.6217 24.1243 43.523C24.3586 43.4243 24.6227 43.376 24.9166 43.3781C25.2147 43.3801 25.4809 43.4336 25.7152 43.5384C25.9515 43.6412 26.1468 43.7892 26.301 43.9824C26.4572 44.1756 26.562 44.4068 26.6155 44.6761L26.0327 44.7778C26.0019 44.597 25.9331 44.4418 25.8262 44.3123C25.7213 44.1807 25.5898 44.08 25.4315 44.0101C25.2733 43.9382 25.0996 43.9012 24.9105 43.8991C24.7296 43.8971 24.5662 43.9259 24.4203 43.9855C24.2743 44.0451 24.1582 44.1283 24.0719 44.2352C23.9855 44.34 23.9424 44.4613 23.9424 44.599C23.9424 44.7347 23.9814 44.8446 24.0595 44.9289C24.1376 45.0111 24.2332 45.0769 24.3463 45.1262C24.4614 45.1735 24.5734 45.2126 24.6823 45.2434L25.5271 45.487C25.6237 45.5137 25.7347 45.5507 25.8601 45.5979C25.9875 45.6452 26.1108 45.712 26.2301 45.7984C26.3493 45.8826 26.4479 45.9957 26.526 46.1375C26.6041 46.2773 26.6432 46.454 26.6432 46.6678C26.6432 46.8816 26.6 47.0717 26.5137 47.2382C26.4294 47.4047 26.3112 47.5444 26.1591 47.6575C26.007 47.7685 25.8303 47.8528 25.6288 47.9103C25.4274 47.9699 25.2116 47.9997 24.9814 47.9997Z" fill="white"/>
<path d="M29.2641 47.9997C28.9496 47.9997 28.6659 47.9463 28.4131 47.8394C28.1624 47.7325 27.9548 47.5804 27.7903 47.3831C27.6279 47.1837 27.5221 46.9484 27.4728 46.677L28.0401 46.5876C28.112 46.8672 28.261 47.0861 28.4871 47.2443C28.7153 47.4006 28.9835 47.4787 29.2918 47.4787C29.4912 47.4787 29.671 47.4478 29.8314 47.3862C29.9937 47.3225 30.1222 47.232 30.2168 47.1149C30.3113 46.9977 30.3586 46.859 30.3586 46.6986C30.3586 46.6 30.3411 46.5157 30.3062 46.4458C30.2733 46.3739 30.227 46.3132 30.1674 46.2639C30.1099 46.2125 30.0441 46.1694 29.9701 46.1344C29.8961 46.0995 29.819 46.0707 29.7389 46.0481L28.6074 45.712C28.484 45.675 28.3648 45.6288 28.2497 45.5733C28.1346 45.5157 28.0318 45.4448 27.9414 45.3605C27.851 45.2742 27.779 45.1714 27.7256 45.0522C27.6721 44.931 27.6454 44.7881 27.6454 44.6237C27.6454 44.3606 27.7132 44.1365 27.8489 43.9515C27.9866 43.7645 28.1726 43.6217 28.407 43.523C28.6413 43.4243 28.9054 43.376 29.1993 43.3781C29.4974 43.3801 29.7635 43.4336 29.9979 43.5384C30.2342 43.6412 30.4295 43.7892 30.5837 43.9824C30.7399 44.1756 30.8447 44.4068 30.8981 44.6761L30.3154 44.7778C30.2846 44.597 30.2157 44.4418 30.1088 44.3123C30.004 44.1807 29.8725 44.08 29.7142 44.0101C29.5559 43.9382 29.3823 43.9012 29.1932 43.8991C29.0123 43.8971 28.8489 43.9259 28.7029 43.9855C28.557 44.0451 28.4409 44.1283 28.3545 44.2352C28.2682 44.34 28.225 44.4613 28.225 44.599C28.225 44.7347 28.2641 44.8446 28.3422 44.9289C28.4203 45.0111 28.5159 45.0769 28.6289 45.1262C28.744 45.1735 28.8561 45.2126 28.965 45.2434L29.8098 45.487C29.9064 45.5137 30.0174 45.5507 30.1428 45.5979C30.2702 45.6452 30.3935 45.712 30.5127 45.7984C30.632 45.8826 30.7306 45.9957 30.8087 46.1375C30.8868 46.2773 30.9259 46.454 30.9259 46.6678C30.9259 46.8816 30.8827 47.0717 30.7964 47.2382C30.7121 47.4047 30.5939 47.5444 30.4418 47.6575C30.2897 47.7685 30.113 47.8528 29.9115 47.9103C29.7101 47.9699 29.4943 47.9997 29.2641 47.9997Z" fill="white"/>
<path d="M34.5676 47.9072V43.9885H33.0537V43.4675H36.6302V43.9885H35.1164V47.9072H34.5676Z" fill="white"/>
<path d="M37.4294 47.9072V43.4675H40.2351V43.9885H37.9782V45.379H39.8651V45.9001H37.9782V47.3862H40.2351V47.9072H37.4294Z" fill="white"/>
<path d="M40.9762 47.9072L42.4623 43.4675H43.2269L44.713 47.9072H44.1426L42.7521 43.7881H42.9248L41.5466 47.9072H40.9762ZM41.6915 46.8682V46.3533H43.9977V46.8682H41.6915Z" fill="white"/>
<path d="M45.5732 47.9072V43.4675H46.0727L47.7499 47.0039L49.4179 43.4675H49.9236V47.9041H49.4025V44.673L47.8948 47.9072H47.6019L46.0943 44.673V47.9072H45.5732Z" fill="white"/>
<path d="M52.6392 47.9072V43.4675H54.3935C54.4367 43.4675 54.488 43.4695 54.5476 43.4737C54.6073 43.4757 54.6648 43.4819 54.7203 43.4922C54.9608 43.5292 55.1622 43.6114 55.3246 43.7388C55.489 43.8662 55.6124 44.0276 55.6946 44.2229C55.7768 44.4161 55.8179 44.6309 55.8179 44.8672C55.8179 45.2105 55.7285 45.5085 55.5497 45.7614C55.3708 46.0121 55.1088 46.1694 54.7635 46.2331L54.5538 46.267H53.188V47.9072H52.6392ZM55.2814 47.9072L54.4058 46.1005L54.9485 45.934L55.9104 47.9072H55.2814ZM53.188 45.7459H54.375C54.414 45.7459 54.4582 45.7439 54.5076 45.7398C54.559 45.7357 54.6073 45.7285 54.6525 45.7182C54.7943 45.6853 54.9094 45.6257 54.9978 45.5394C55.0882 45.451 55.154 45.3482 55.1951 45.2311C55.2362 45.1118 55.2568 44.9906 55.2568 44.8672C55.2568 44.7439 55.2362 44.6237 55.1951 44.5065C55.154 44.3873 55.0882 44.2835 54.9978 44.1951C54.9094 44.1067 54.7943 44.0471 54.6525 44.0163C54.6073 44.004 54.559 43.9968 54.5076 43.9947C54.4582 43.9906 54.414 43.9885 54.375 43.9885H53.188V45.7459Z" fill="white"/>
<path d="M56.8978 47.9072V43.4675H59.7034V43.9885H57.4466V45.379H59.3335V45.9001H57.4466V47.3862H59.7034V47.9072H56.8978Z" fill="white"/>
<path d="M62.2019 47.9997C61.8875 47.9997 61.6038 47.9463 61.351 47.8394C61.1002 47.7325 60.8926 47.5804 60.7282 47.3831C60.5658 47.1837 60.46 46.9484 60.4106 46.677L60.9779 46.5876C61.0499 46.8672 61.1989 47.0861 61.425 47.2443C61.6531 47.4006 61.9214 47.4787 62.2297 47.4787C62.4291 47.4787 62.6089 47.4478 62.7692 47.3862C62.9316 47.3225 63.0601 47.232 63.1546 47.1149C63.2492 46.9977 63.2965 46.859 63.2965 46.6986C63.2965 46.6 63.279 46.5157 63.244 46.4458C63.2112 46.3739 63.1649 46.3132 63.1053 46.2639C63.0478 46.2125 62.982 46.1694 62.908 46.1344C62.834 46.0995 62.7569 46.0707 62.6768 46.0481L61.5452 45.712C61.4219 45.675 61.3027 45.6288 61.1876 45.5733C61.0725 45.5157 60.9697 45.4448 60.8793 45.3605C60.7888 45.2742 60.7169 45.1714 60.6635 45.0522C60.61 44.931 60.5833 44.7881 60.5833 44.6237C60.5833 44.3606 60.6511 44.1365 60.7868 43.9515C60.9245 43.7645 61.1105 43.6217 61.3448 43.523C61.5792 43.4243 61.8433 43.376 62.1372 43.3781C62.4352 43.3801 62.7014 43.4336 62.9357 43.5384C63.1721 43.6412 63.3674 43.7892 63.5215 43.9824C63.6777 44.1756 63.7826 44.4068 63.836 44.6761L63.2533 44.7778C63.2225 44.597 63.1536 44.4418 63.0467 44.3123C62.9419 44.1807 62.8104 44.08 62.6521 44.0101C62.4938 43.9382 62.3201 43.9012 62.131 43.8991C61.9502 43.8971 61.7867 43.9259 61.6408 43.9855C61.4949 44.0451 61.3787 44.1283 61.2924 44.2352C61.2061 44.34 61.1629 44.4613 61.1629 44.599C61.1629 44.7347 61.202 44.8446 61.2801 44.9289C61.3582 45.0111 61.4538 45.0769 61.5668 45.1262C61.6819 45.1735 61.7939 45.2126 61.9029 45.2434L62.7477 45.487C62.8443 45.5137 62.9553 45.5507 63.0806 45.5979C63.2081 45.6452 63.3314 45.712 63.4506 45.7984C63.5698 45.8826 63.6685 45.9957 63.7466 46.1375C63.8247 46.2773 63.8638 46.454 63.8638 46.6678C63.8638 46.8816 63.8206 47.0717 63.7343 47.2382C63.65 47.4047 63.5318 47.5444 63.3797 47.6575C63.2276 47.7685 63.0508 47.8528 62.8494 47.9103C62.648 47.9699 62.4322 47.9997 62.2019 47.9997Z" fill="white"/>
<path d="M66.644 47.9997C66.2021 47.9997 65.827 47.9021 65.5187 47.7068C65.2104 47.5116 64.975 47.2402 64.8126 46.8929C64.6523 46.5455 64.5722 46.1437 64.5722 45.6874C64.5722 45.2311 64.6523 44.8292 64.8126 44.4818C64.975 44.1345 65.2104 43.8632 65.5187 43.6679C65.827 43.4726 66.2021 43.375 66.644 43.375C67.088 43.375 67.4642 43.4726 67.7725 43.6679C68.0808 43.8632 68.3151 44.1345 68.4754 44.4818C68.6357 44.8292 68.7159 45.2311 68.7159 45.6874C68.7159 46.1437 68.6357 46.5455 68.4754 46.8929C68.3151 47.2402 68.0808 47.5116 67.7725 47.7068C67.4642 47.9021 67.088 47.9997 66.644 47.9997ZM66.644 47.4756C66.975 47.4776 67.2504 47.4036 67.4703 47.2536C67.6923 47.1015 67.8578 46.8908 67.9667 46.6216C68.0777 46.3523 68.1332 46.0409 68.1332 45.6874C68.1332 45.3318 68.0777 45.0204 67.9667 44.7532C67.8578 44.486 67.6923 44.2773 67.4703 44.1273C67.2504 43.9772 66.975 43.9012 66.644 43.8991C66.3131 43.8971 66.0377 43.9711 65.8178 44.1211C65.5999 44.2712 65.4354 44.4808 65.3244 44.7501C65.2135 45.0193 65.1569 45.3318 65.1549 45.6874C65.1528 46.0409 65.2073 46.3513 65.3183 46.6185C65.4293 46.8857 65.5947 47.0953 65.8147 47.2474C66.0367 47.3975 66.3131 47.4735 66.644 47.4756Z" fill="white"/>
<path d="M71.3947 47.9997C71.0514 47.9997 70.7483 47.9288 70.4852 47.787C70.2221 47.6452 70.0155 47.4468 69.8654 47.1919C69.7175 46.935 69.6435 46.6339 69.6435 46.2886V43.4706L70.1984 43.4675V46.2423C70.1984 46.452 70.2334 46.6349 70.3033 46.7911C70.3752 46.9453 70.4697 47.0737 70.5869 47.1765C70.7041 47.2793 70.8325 47.3564 70.9723 47.4078C71.1141 47.4571 71.2549 47.4818 71.3947 47.4818C71.5365 47.4818 71.6783 47.4561 71.8202 47.4047C71.962 47.3533 72.0904 47.2772 72.2056 47.1765C72.3227 47.0737 72.4162 46.9443 72.4861 46.788C72.556 46.6318 72.5909 46.4499 72.5909 46.2423V43.4675H73.1459V46.2886C73.1459 46.6318 73.0709 46.9319 72.9208 47.1889C72.7728 47.4458 72.5673 47.6452 72.3042 47.787C72.0411 47.9288 71.7379 47.9997 71.3947 47.9997Z" fill="white"/>
<path d="M74.3176 47.9072V43.4675H76.0719C76.115 43.4675 76.1664 43.4695 76.226 43.4737C76.2856 43.4757 76.3432 43.4819 76.3987 43.4922C76.6392 43.5292 76.8406 43.6114 77.003 43.7388C77.1674 43.8662 77.2907 44.0276 77.373 44.2229C77.4552 44.4161 77.4963 44.6309 77.4963 44.8672C77.4963 45.2105 77.4069 45.5085 77.228 45.7614C77.0492 46.0121 76.7872 46.1694 76.4418 46.2331L76.2322 46.267H74.8664V47.9072H74.3176ZM76.9598 47.9072L76.0842 46.1005L76.6268 45.934L77.5888 47.9072H76.9598ZM74.8664 45.7459H76.0534C76.0924 45.7459 76.1366 45.7439 76.1859 45.7398C76.2373 45.7357 76.2856 45.7285 76.3309 45.7182C76.4727 45.6853 76.5878 45.6257 76.6762 45.5394C76.7666 45.451 76.8324 45.3482 76.8735 45.2311C76.9146 45.1118 76.9351 44.9906 76.9351 44.8672C76.9351 44.7439 76.9146 44.6237 76.8735 44.5065C76.8324 44.3873 76.7666 44.2835 76.6762 44.1951C76.5878 44.1067 76.4727 44.0471 76.3309 44.0163C76.2856 44.004 76.2373 43.9968 76.1859 43.9947C76.1366 43.9906 76.0924 43.9885 76.0534 43.9885H74.8664V45.7459Z" fill="white"/>
<path d="M80.311 47.9997C79.8691 47.9997 79.494 47.9021 79.1857 47.7068C78.8774 47.5116 78.642 47.2402 78.4797 46.8929C78.3193 46.5455 78.2392 46.1437 78.2392 45.6874C78.2392 45.2311 78.3193 44.8292 78.4797 44.4818C78.642 44.1345 78.8774 43.8632 79.1857 43.6679C79.494 43.4726 79.8691 43.375 80.311 43.375C80.8249 43.375 81.2473 43.5055 81.5782 43.7666C81.9112 44.0276 82.1404 44.3791 82.2658 44.821L81.7077 44.969C81.6173 44.6381 81.4559 44.377 81.2237 44.1859C80.9914 43.9947 80.6872 43.8991 80.311 43.8991C79.9801 43.8991 79.7047 43.9742 79.4848 44.1242C79.2648 44.2743 79.0994 44.4839 78.9884 44.7532C78.8774 45.0204 78.8209 45.3318 78.8188 45.6874C78.8167 46.0409 78.8712 46.3523 78.9822 46.6216C79.0932 46.8888 79.2597 47.0984 79.4817 47.2505C79.7037 47.4006 79.9801 47.4756 80.311 47.4756C80.6872 47.4756 80.9914 47.38 81.2237 47.1889C81.4559 46.9956 81.6173 46.7346 81.7077 46.4057L82.2658 46.5537C82.1404 46.9936 81.9112 47.3451 81.5782 47.6082C81.2473 47.8692 80.8249 47.9997 80.311 47.9997Z" fill="white"/>
<path d="M83.2502 47.9072V43.4675H86.0559V43.9885H83.799V45.379H85.6859V45.9001H83.799V47.3862H86.0559V47.9072H83.2502Z" fill="white"/>
<path d="M88.6482 47.9072V43.4675H89.1476L90.8249 47.0039L92.4928 43.4675H92.9985V47.9041H92.4774V44.673L90.9698 47.9072H90.6769L89.1692 44.673V47.9072H88.6482Z" fill="white"/>
<path d="M93.863 47.9072L95.3491 43.4675H96.1137L97.5998 47.9072H97.0294L95.6389 43.7881H95.8116L94.4334 47.9072H93.863ZM94.5783 46.8682V46.3533H96.8845V46.8682H94.5783Z" fill="white"/>
<path d="M98.46 47.9072V43.4675H99.015L101.33 46.936V43.4675H101.885V47.9072H101.33L99.015 44.4356V47.9072H98.46Z" fill="white"/>
<path d="M102.748 47.9072L104.234 43.4675H104.998L106.484 47.9072H105.914L104.523 43.7881H104.696L103.318 47.9072H102.748ZM103.463 46.8682V46.3533H105.769V46.8682H103.463Z" fill="white"/>
<path d="M109.022 47.9997C108.717 47.9997 108.44 47.9463 108.189 47.8394C107.938 47.7325 107.723 47.5794 107.542 47.38C107.361 47.1786 107.221 46.936 107.122 46.6524C107.026 46.3667 106.977 46.045 106.977 45.6874C106.977 45.2146 107.062 44.8056 107.23 44.4603C107.399 44.115 107.636 43.8488 107.942 43.6617C108.249 43.4726 108.608 43.3781 109.022 43.3781C109.519 43.3781 109.92 43.4942 110.224 43.7265C110.528 43.9567 110.738 44.2722 110.853 44.673L110.298 44.7871C110.206 44.5178 110.053 44.303 109.842 44.1427C109.63 43.9824 109.366 43.9022 109.049 43.9022C108.718 43.9002 108.443 43.9742 108.223 44.1242C108.005 44.2722 107.841 44.4808 107.73 44.7501C107.619 45.0193 107.562 45.3318 107.56 45.6874C107.558 46.0409 107.613 46.3513 107.724 46.6185C107.835 46.8857 108 47.0953 108.22 47.2474C108.442 47.3975 108.718 47.4735 109.049 47.4756C109.335 47.4776 109.576 47.4232 109.771 47.3122C109.966 47.2012 110.117 47.0409 110.224 46.8312C110.331 46.6216 110.396 46.3698 110.418 46.0758H109.475V45.6226H110.998C111.004 45.6637 111.007 45.7131 111.007 45.7706C111.009 45.8261 111.01 45.8641 111.01 45.8847C111.01 46.2896 110.934 46.6524 110.782 46.973C110.632 47.2916 110.409 47.5424 110.113 47.7253C109.819 47.9083 109.455 47.9997 109.022 47.9997Z" fill="white"/>
<path d="M111.934 47.9072V43.4675H114.74V43.9885H112.483V45.379H114.37V45.9001H112.483V47.3862H114.74V47.9072H111.934Z" fill="white"/>
<path d="M115.789 47.9072V43.4675H116.289L117.966 47.0039L119.634 43.4675H120.14V47.9041H119.619V44.673L118.111 47.9072H117.818L116.311 44.673V47.9072H115.789Z" fill="white"/>
<path d="M121.313 47.9072V43.4675H124.118V43.9885H121.861V45.379H123.748V45.9001H121.861V47.3862H124.118V47.9072H121.313Z" fill="white"/>
<path d="M125.168 47.9072V43.4675H125.723L128.038 46.936V43.4675H128.593V47.9072H128.038L125.723 44.4356V47.9072H125.168Z" fill="white"/>
<path d="M130.907 47.9072V43.9885H129.394V43.4675H132.97V43.9885H131.456V47.9072H130.907Z" fill="white"/>
<path d="M31.0508 0L43.314 1.42299L55.5771 0V3.94173H31.0508V0Z" fill="white"/>
<path d="M45.4576 10.9867H40.5546L39.0656 7.7883L43.169 4.58984C43.169 4.58984 44.8253 5.92946 45.0625 6.16662C45.2996 6.40379 47.2725 7.78833 47.2725 7.78833L45.4576 10.9867Z" fill="#34AADC"/>
<path d="M55.4632 0L55.9446 0.618907L58.3438 3.66948L50.7307 9.2878L43.5344 3.72275L55.4632 0Z" fill="white"/>
<path d="M30.8682 0L42.8779 3.72275L35.593 9.28789L27.9871 3.66957L30.8682 0Z" fill="white"/>
<path d="M41.9763 11.7969H45.4571L48.8857 31.7771L43.8649 36.9472L43.1685 37.6647L37.1254 31.7442L40.5541 11.7973L41.9763 11.7969Z" fill="#34AADC"/>
<path d="M96.7637 36.998V0.474609H102.952L115.025 24.7221L127.098 0.474609H133.287V36.998H126.845V15.1854L116.243 36.998H113.808L103.206 15.1854V36.998H96.7637Z" fill="white"/>
<path fill-rule="evenodd" clip-rule="evenodd" d="M47.7993 20.3599L48.6186 22.052L51.0129 23.1868L51.0455 22.9563L51.1772 20.6032L46.3125 13.3652L47.7993 20.3599Z" fill="white"/>
</svg>
