<svg width="19" height="19" viewBox="0 0 19 19" fill="none" xmlns="http://www.w3.org/2000/svg">
<path fill-rule="evenodd" clip-rule="evenodd" d="M8.36631 2.07911C7.77976 2.07911 7.28077 2.4867 7.1407 3.03606H11.8505C11.7105 2.4867 11.2115 2.07911 10.6249 2.07911H8.36631ZM13.1812 3.03606H14.9146C16.753 3.03606 18.25 4.55125 18.25 6.412C18.25 6.412 18.1975 7.19971 18.18 8.29667C18.1782 8.38351 18.1362 8.46857 18.067 8.51996C17.646 8.83097 17.2608 9.08793 17.2257 9.10565C15.7725 10.0803 14.0838 10.7662 12.2848 11.1073C12.1675 11.1303 12.0519 11.0692 11.9924 10.9646C11.4881 10.091 10.5461 9.52211 9.49562 9.52211C8.4521 9.52211 7.50138 10.0848 6.98224 10.9593C6.92184 11.0621 6.80803 11.1215 6.6916 11.0993C4.90745 10.7573 3.21873 10.0724 1.77426 9.11451L0.933842 8.52971C0.863807 8.4854 0.820035 8.40566 0.820035 8.31705C0.793772 7.86515 0.75 6.412 0.75 6.412C0.75 4.55125 2.247 3.03606 4.08542 3.03606H5.81003C5.97636 1.75126 7.05315 0.75 8.36631 0.75H10.6249C11.9381 0.75 13.0149 1.75126 13.1812 3.03606ZM17.9524 10.2133L17.9173 10.231C16.1489 11.4184 14.0216 12.207 11.7893 12.5348C11.4741 12.5791 11.159 12.3753 11.0714 12.0564C10.8788 11.3298 10.2573 10.8513 9.51313 10.8513H9.50438H9.48687C8.74274 10.8513 8.12118 11.3298 7.92859 12.0564C7.84104 12.3753 7.52589 12.5791 7.21073 12.5348C4.97836 12.207 2.85105 11.4184 1.08267 10.231C1.07391 10.2222 0.986367 10.169 0.916332 10.2133C0.837543 10.2576 0.837543 10.364 0.837543 10.364L0.898823 14.8829C0.898823 16.7437 2.38707 18.25 4.22549 18.25H14.7658C16.6042 18.25 18.0924 16.7437 18.0924 14.8829L18.1625 10.364C18.1625 10.364 18.1625 10.2576 18.0837 10.2133C18.0399 10.1867 17.9874 10.1956 17.9524 10.2133ZM10.1522 13.926C10.1522 14.2981 9.86331 14.5905 9.49562 14.5905C9.13669 14.5905 8.83905 14.2981 8.83905 13.926V12.7829C8.83905 12.4196 9.13669 12.1184 9.49562 12.1184C9.86331 12.1184 10.1522 12.4196 10.1522 12.7829V13.926Z" fill="#34AADC"/>
</svg>
