<svg width="20" height="20" viewBox="0 0 20 20" fill="none" xmlns="http://www.w3.org/2000/svg">
<path fill-rule="evenodd" clip-rule="evenodd" d="M6.03075 0.833374H13.9783C17.0858 0.833374 19.1666 3.01412 19.1666 6.25912V13.7483C19.1666 16.985 17.0858 19.1667 13.9783 19.1667H6.03075C2.92325 19.1667 0.833252 16.985 0.833252 13.7483V6.25912C0.833252 3.01412 2.92325 0.833374 6.03075 0.833374ZM13.2816 13.4925C13.5107 13.4925 13.7399 13.3734 13.8682 13.1534C14.0699 12.8316 13.9599 12.41 13.6299 12.2092L10.3666 10.2659V6.02996C10.3666 5.65505 10.0641 5.34246 9.67908 5.34246C9.30325 5.34246 8.99158 5.65505 8.99158 6.02996V10.66C8.99158 10.8984 9.11992 11.1275 9.33075 11.2467L12.9241 13.3917C13.0341 13.465 13.1624 13.4925 13.2816 13.4925Z" fill="#036B84"/>
</svg>
