<svg width="94" height="94" viewBox="0 0 94 94" fill="none" xmlns="http://www.w3.org/2000/svg">
<rect opacity="0.05" width="94" height="94" rx="47" fill="#F35550"/>
<rect opacity="0.1" x="10.2168" y="10.217" width="73.5652" height="73.5652" rx="36.7826" fill="#F35550"/>
<path d="M58.6486 41.6135C58.9547 41.6135 59.2323 41.747 59.4518 41.9727C59.6563 42.2137 59.7593 42.513 59.7295 42.8292C59.7295 42.9336 58.9114 53.2794 58.4441 57.6341C58.1515 60.3065 56.4287 61.929 53.8446 61.9735C51.8576 62.0181 49.9153 62.0334 48.003 62.0334C45.9727 62.0334 43.9871 62.0181 42.0599 61.9735C39.5623 61.9137 37.838 60.262 37.5603 57.6341C37.0796 53.264 36.2765 42.9336 36.2615 42.8292C36.2466 42.513 36.3481 42.2137 36.5541 41.9727C36.7572 41.747 37.0498 41.6135 37.3573 41.6135H58.6486ZM51.1665 31.3334C52.5235 31.3334 53.7357 32.2805 54.0866 33.6312L54.3374 34.7518C54.5404 35.6651 55.3316 36.3113 56.2423 36.3113H60.7179C61.315 36.3113 61.8122 36.8071 61.8122 37.438V38.0213C61.8122 38.6368 61.315 39.148 60.7179 39.148H35.2779C34.6793 39.148 34.1821 38.6368 34.1821 38.0213V37.438C34.1821 36.8071 34.6793 36.3113 35.2779 36.3113H39.7535C40.6627 36.3113 41.4539 35.6651 41.6584 34.7533L41.8928 33.7065C42.2571 32.2805 43.4558 31.3334 44.8278 31.3334H51.1665Z" fill="#F35550"/>
</svg>
