<svg width="20" height="18" viewBox="0 0 20 18" fill="none" xmlns="http://www.w3.org/2000/svg">
<path d="M17.4566 0.373901H2.54345C1.14086 0.373901 0 1.51468 0 2.91739V12.8961C0 14.2987 1.14086 15.4396 2.54345 15.4396H10.504V13.4191H3.40644V2.39446H17.4565C17.7449 2.39446 17.9794 2.62889 17.9794 2.91739V3.09464H18.7414C19.2002 3.09464 19.625 3.22414 20 3.43337V2.91739C20 1.51468 18.8591 0.373901 17.4566 0.373901ZM1.74434 6.94924C2.27286 6.94924 2.70171 7.37809 2.70171 7.90694C2.70171 8.43504 2.27286 8.86392 1.74434 8.86392C1.23987 8.86392 0.786692 8.44426 0.786692 7.90694C0.786651 7.37118 1.23722 6.94924 1.74434 6.94924Z" fill="white"/>
<path d="M18.7414 4.44165H13.108C12.4151 4.44165 11.8511 5.00567 11.8511 5.69856V16.3692C11.8511 17.0621 12.4151 17.6261 13.108 17.6261H18.7414C19.4343 17.6261 19.9984 17.0622 19.9984 16.3692V5.69856C19.9983 5.00567 19.4343 4.44165 18.7414 4.44165ZM13.1981 5.78868H18.6513V14.2107H13.1981V5.78868ZM15.311 16.3386C15.311 15.9996 15.5856 15.725 15.924 15.725C16.2637 15.725 16.5387 15.9996 16.5387 16.3386C16.5387 16.6774 16.2637 16.9526 15.924 16.9526C15.5856 16.9526 15.311 16.6773 15.311 16.3386Z" fill="white"/>
</svg>
