<svg width="11" height="11" viewBox="0 0 11 11" fill="none" xmlns="http://www.w3.org/2000/svg">
<path fill-rule="evenodd" clip-rule="evenodd" d="M4.07888 9.84845L8.83817 3.69378C9.09683 3.36188 9.1888 2.97816 9.10258 2.58745C9.02786 2.23226 8.80943 1.89454 8.4818 1.63834L7.68284 1.00366C6.98734 0.450496 6.12515 0.508724 5.63083 1.14341L5.09627 1.8369C5.02729 1.92366 5.04454 2.05176 5.13075 2.12163C5.13075 2.12163 6.48152 3.20467 6.51026 3.22796C6.60223 3.3153 6.6712 3.43175 6.68845 3.5715C6.71719 3.84517 6.5275 4.10137 6.24585 4.13631C6.11365 4.15378 5.9872 4.11302 5.89523 4.03732L4.47549 2.90771C4.40651 2.85588 4.30305 2.86695 4.24557 2.93682L0.871533 7.3039C0.653112 7.57757 0.578388 7.93276 0.653112 8.2763L1.08421 10.1454C1.1072 10.2444 1.19342 10.3143 1.29688 10.3143L3.1937 10.291C3.53858 10.2852 3.86046 10.1279 4.07888 9.84845ZM6.7348 9.26628H9.82777C10.1295 9.26628 10.375 9.51491 10.375 9.82061C10.375 10.1269 10.1295 10.3749 9.82777 10.3749H6.7348C6.43304 10.3749 6.1876 10.1269 6.1876 9.82061C6.1876 9.51491 6.43304 9.26628 6.7348 9.26628Z" fill="#FFFFFF"/>
</svg>
