<svg width="167" height="151" viewBox="0 0 167 151" fill="none" xmlns="http://www.w3.org/2000/svg">
<g opacity="0.47">
<path d="M77.2839 150.638C107.873 150.638 132.67 148.546 132.67 145.965C132.67 143.384 107.873 141.291 77.2839 141.291C46.6948 141.291 21.8975 143.384 21.8975 145.965C21.8975 148.546 46.6948 150.638 77.2839 150.638Z" fill="#E6F1F3"/>
</g>
<path d="M166.999 25.0777L163.401 42.5294L161.052 40.2727L157.075 43.0936L154.045 39.3324L147.227 44.2595L141.432 34.5934L134.955 38.3545L132.379 34.8567L124.122 39.4453L121.66 34.1797L127.417 6.42249L158.401 12.7788L166.999 25.0777Z" fill="#EAF2F4"/>
<path d="M158.401 12.7788L167 25.0777L156.28 22.8963L158.401 12.7788Z" fill="#DEEBEE"/>
<path d="M162.605 45.9896L157.302 71.5654L115.6 63.0276L120.902 37.6775L123.364 42.9431L131.622 38.3169L134.159 41.8524L140.674 38.0912L146.47 47.7197L153.287 42.8302L156.318 46.5538L160.295 43.7329L162.605 45.9896Z" fill="#EAF2F4"/>
<path d="M132.683 131.067H17.2705L33.9744 37.1134H149.387L132.683 131.067Z" fill="#E0EDF0"/>
<path d="M73.4428 27.3721H35.6791L33.9746 37.1134H74.3897L73.4428 27.3721Z" fill="#E0EDF0"/>
<g opacity="0.1">
<path opacity="0.1" d="M132.683 131.067H17.2705L33.9744 37.1134H149.387L132.683 131.067Z" fill="black"/>
<path opacity="0.1" d="M73.4428 27.3721H35.6791L33.9746 37.1134H74.3897L73.4428 27.3721Z" fill="black"/>
</g>
<path d="M31.6259 31.3213C31.4744 30.7571 31.4365 30.2305 31.4365 29.6664C31.4365 29.1022 31.4744 28.5756 31.6259 28.0115C31.7774 28.5756 31.8153 29.1022 31.8153 29.6664C31.8153 30.2305 31.7774 30.7947 31.6259 31.3213Z" fill="#036B84"/>
<path d="M28.2547 32.2991C27.838 31.8854 27.535 31.4341 27.2699 30.9827C27.0047 30.4938 26.7396 30.0048 26.626 29.4783C27.0426 29.892 27.3456 30.3433 27.6108 30.7947C27.8759 31.2836 28.1032 31.7726 28.2547 32.2991Z" fill="#036B84"/>
<path d="M25.83 34.8191C25.2619 34.6686 24.7695 34.443 24.315 34.1797C23.8604 33.9164 23.368 33.6155 22.9893 33.2018C23.5574 33.3522 24.0498 33.5779 24.5043 33.8412C24.9967 34.1045 25.4513 34.4053 25.83 34.8191Z" fill="#036B84"/>
<path d="M24.9973 38.1666C24.4291 38.317 23.8988 38.3546 23.3307 38.3546C22.7625 38.3546 22.2322 38.317 21.6641 38.1666C22.2322 38.0161 22.7625 37.9785 23.3307 37.9785C23.8988 37.9785 24.467 38.0161 24.9973 38.1666Z" fill="#036B84"/>
<path d="M25.9814 41.514C25.5648 41.9278 25.1103 42.2287 24.6557 42.4919C24.1633 42.7552 23.6709 43.0185 23.1406 43.1313C23.5573 42.7176 24.0118 42.4167 24.4663 42.1534C24.9209 41.8902 25.4133 41.6645 25.9814 41.514Z" fill="#036B84"/>
<path d="M28.4822 43.921C28.3307 44.4852 28.1035 44.9741 27.8383 45.4255C27.5732 45.8768 27.2702 46.3658 26.8535 46.7419C27.005 46.1777 27.2323 45.6888 27.4974 45.2374C27.8004 44.7485 28.1035 44.2971 28.4822 43.921Z" fill="#036B84"/>
<path d="M31.8906 44.7485C32.0421 45.3127 32.0799 45.8393 32.0799 46.4034C32.0799 46.9676 32.0421 47.4942 31.8906 48.0583C31.739 47.4942 31.7012 46.9676 31.7012 46.4034C31.7012 45.8393 31.739 45.2751 31.8906 44.7485Z" fill="#036B84"/>
<path d="M35.2246 43.7706C35.6413 44.1844 35.9443 44.6357 36.2094 45.087C36.4746 45.576 36.7397 46.0649 36.8534 46.5915C36.4367 46.1778 36.1337 45.7264 35.8685 45.2751C35.6413 44.8237 35.3761 44.3348 35.2246 43.7706Z" fill="#036B84"/>
<path d="M37.6484 41.2883C38.2166 41.4388 38.709 41.6644 39.1635 41.9277C39.618 42.191 40.1104 42.4919 40.4892 42.9056C39.9211 42.7552 39.4287 42.5295 38.9741 42.2662C38.5196 41.9653 38.0651 41.6644 37.6484 41.2883Z" fill="#036B84"/>
<path d="M38.4814 37.9032C39.0496 37.7527 39.5799 37.7151 40.148 37.7151C40.7162 37.7151 41.2465 37.7527 41.8146 37.9032C41.2465 38.0536 40.7162 38.0912 40.148 38.0912C39.5799 38.0912 39.0496 38.0536 38.4814 37.9032Z" fill="#036B84"/>
<path d="M37.5342 34.5935C37.9508 34.1798 38.4054 33.8789 38.8599 33.6156C39.3523 33.3523 39.8447 33.089 40.375 32.9762C39.9583 33.3899 39.5038 33.6908 39.0493 33.9541C38.5569 34.1798 38.0645 34.443 37.5342 34.5935Z" fill="#036B84"/>
<path d="M34.9971 32.1865C35.1486 31.6223 35.3758 31.1333 35.641 30.682C35.9061 30.2307 36.2092 29.7417 36.6258 29.3656C36.4743 29.9298 36.247 30.4187 35.9819 30.8701C35.7167 31.3214 35.4137 31.7727 34.9971 32.1865Z" fill="#036B84"/>
<path d="M132.531 131.067H16.854L0.453125 40.4984H116.092L132.531 131.067Z" fill="#EAF2F4"/>
<path d="M40.5272 95.8625C43.1839 95.8625 45.3376 93.7239 45.3376 91.0859C45.3376 88.4478 43.1839 86.3092 40.5272 86.3092C37.8705 86.3092 35.7168 88.4478 35.7168 91.0859C35.7168 93.7239 37.8705 95.8625 40.5272 95.8625Z" fill="#036B84"/>
<path d="M78.5184 95.8625C81.1751 95.8625 83.3288 93.7239 83.3288 91.0859C83.3288 88.4478 81.1751 86.3092 78.5184 86.3092C75.8617 86.3092 73.708 88.4478 73.708 91.0859C73.708 93.7239 75.8617 95.8625 78.5184 95.8625Z" fill="#036B84"/>
<path d="M67.288 103.469L67.0228 102.98C66.985 102.943 64.5229 98.3916 59.5231 98.3916C54.9779 98.3916 53.8415 102.679 53.8037 102.867L53.6521 103.432L52.5537 103.168L52.6673 102.604C52.6673 102.567 54.0309 97.2633 59.4853 97.2633C65.1668 97.2633 67.894 102.266 68.0076 102.454L68.2728 102.943L67.288 103.469Z" fill="#036B84"/>
<path d="M124.843 90.5593C125.108 90.5216 125.335 90.4464 125.562 90.3712" stroke="#036B84" stroke-miterlimit="10"/>
<path d="M127.04 89.9574C132.835 88.0016 137.683 83.4882 138.138 78.185C139.16 66.5255 124.843 60.094 126.32 46.6291C127.721 33.766 141.319 32.8633 146.736 34.631C152.758 36.5868 150.675 42.3414 145.259 41.5891C135.827 40.3104 129.88 30.1177 134.388 18.571C137.721 9.92036 146.092 6.68578 149.463 5.70789" stroke="#036B84" stroke-miterlimit="10" stroke-dasharray="4 4"/>
<path d="M150.183 5.48225C150.637 5.36941 150.902 5.29419 150.902 5.29419" stroke="#036B84" stroke-miterlimit="10"/>
<path d="M156.925 3.22562C155.94 0.254319 149.501 1.30744 150.751 5.21902C152.001 9.09299 157.91 6.19692 156.925 3.22562Z" fill="#212227"/>
<path d="M147.228 2.02197C147.266 0.705574 149.084 -0.272322 151.698 0.179014C154.273 0.630351 156.697 2.36047 156.697 2.36047C156.697 2.36047 154.16 3.90254 151.546 4.20343C148.933 4.46671 147.19 3.33837 147.228 2.02197Z" fill="#EAF2F4"/>
<path d="M156.697 2.39818C155.371 2.39818 154.008 2.36057 152.682 2.32296C151.356 2.24773 149.993 2.21012 148.667 2.09729C149.993 2.09729 151.356 2.1349 152.682 2.17251C154.046 2.21012 155.371 2.28535 156.697 2.39818Z" fill="#212227"/>
<path d="M149.841 0.893677C150.22 1.08173 150.598 1.26979 150.939 1.49546C151.28 1.72113 151.659 1.94679 151.962 2.21007C151.583 2.02202 151.204 1.83396 150.863 1.60829C150.523 1.38262 150.144 1.15696 149.841 0.893677Z" fill="#212227"/>
<path d="M153.326 2.2478C152.985 2.54869 152.606 2.77436 152.265 3.00003C151.886 3.2257 151.508 3.45137 151.129 3.63942C151.47 3.33853 151.849 3.11286 152.189 2.8872C152.568 2.69914 152.947 2.43586 153.326 2.2478Z" fill="#212227"/>
<path d="M153.743 1.53308C153.933 1.6083 154.122 1.75875 154.273 1.87158C154.425 2.02203 154.577 2.13486 154.728 2.32292C154.539 2.2477 154.349 2.09725 154.198 1.98442C154.008 1.83397 153.857 1.72114 153.743 1.53308Z" fill="#212227"/>
<path d="M149.69 9.76994C150.486 10.7854 152.569 10.5598 154.387 8.67921C156.205 6.79864 157.152 3.97778 157.152 3.97778C157.152 3.97778 154.16 4.20345 151.887 5.48224C149.615 6.79864 148.895 8.75443 149.69 9.76994Z" fill="#EAF2F4"/>
<path d="M157.191 3.97778C156.092 4.76762 155.032 5.55746 153.971 6.38491C152.91 7.21236 151.85 8.03981 150.827 8.90487C151.926 8.15264 152.986 7.32519 154.047 6.49774C155.107 5.67029 156.168 4.84284 157.191 3.97778Z" fill="#212227"/>
<path d="M152.494 9.2058C152.721 8.82969 152.873 8.45358 153.024 8.07746C153.176 7.70135 153.327 7.28763 153.441 6.8739C153.214 7.25001 153.062 7.62613 152.911 8.00224C152.721 8.41597 152.57 8.79208 152.494 9.2058Z" fill="#212227"/>
<path d="M154.501 6.04638C154.046 6.00877 153.63 6.04638 153.175 6.04638C152.721 6.08399 152.304 6.1216 151.85 6.19682C152.304 6.23443 152.721 6.19682 153.175 6.19682C153.63 6.15921 154.084 6.1216 154.501 6.04638Z" fill="#212227"/>
<path d="M155.259 6.42257C155.372 6.23452 155.448 6.04646 155.486 5.82079C155.524 5.63273 155.6 5.40706 155.6 5.1814C155.486 5.36945 155.41 5.55751 155.372 5.78318C155.297 6.00885 155.259 6.1969 155.259 6.42257Z" fill="#212227"/>
<path d="M156.932 3.24029C157.529 3.0488 157.857 2.41283 157.664 1.81983C157.471 1.22682 156.831 0.901337 156.234 1.09284C155.636 1.28433 155.309 1.9203 155.502 2.5133C155.694 3.10631 156.335 3.43179 156.932 3.24029Z" fill="#036B84"/>
<path d="M157.614 5.38568C158.211 5.19418 158.539 4.55822 158.346 3.96521C158.153 3.37221 157.512 3.04672 156.915 3.23822C156.318 3.42972 155.99 4.06569 156.183 4.65869C156.376 5.2517 157.016 5.57718 157.614 5.38568Z" fill="#036B84"/>
</svg>
