<svg width="10" height="8" viewBox="0 0 10 8" fill="none" xmlns="http://www.w3.org/2000/svg">
<path fill-rule="evenodd" clip-rule="evenodd" d="M7.05808 0.25C7.61683 0.25 8.15433 0.470833 8.54975 0.867083C8.94558 1.2625 9.16683 1.79583 9.16683 2.35417V5.64583C9.16683 6.80833 8.221 7.75 7.05808 7.75H2.94183C1.77891 7.75 0.833496 6.80833 0.833496 5.64583V2.35417C0.833496 1.19167 1.77475 0.25 2.94183 0.25H7.05808ZM7.72102 2.975L7.75435 2.94166C7.85393 2.82083 7.85393 2.64583 7.74977 2.525C7.69185 2.46291 7.61227 2.425 7.52935 2.41666C7.44185 2.41208 7.35852 2.44166 7.2956 2.5L5.41685 4C5.17518 4.20041 4.82893 4.20041 4.58352 4L2.70852 2.5C2.57893 2.40416 2.39977 2.41666 2.29185 2.52916C2.17935 2.64166 2.16685 2.82083 2.26227 2.94583L2.31685 3L4.21268 4.47916C4.44602 4.6625 4.72893 4.7625 5.02518 4.7625C5.3206 4.7625 5.60852 4.6625 5.84143 4.47916L7.72102 2.975Z" fill="#036B84"/>
</svg>
