<svg width="16" height="14" viewBox="0 0 16 14" fill="none" xmlns="http://www.w3.org/2000/svg">
<path fill-rule="evenodd" clip-rule="evenodd" d="M14.3131 0.414813C14.5328 0.634563 14.5328 0.990813 14.3131 1.21056L2.48255 13.0403C2.37305 13.1506 2.22905 13.2053 2.08505 13.2053C1.94105 13.2053 1.79705 13.1506 1.68755 13.0403C1.4678 12.8206 1.4678 12.4651 1.68755 12.2453L3.16651 10.7673C2.10615 9.79738 1.20666 8.48997 0.546125 6.95046C0.484625 6.80796 0.484625 6.64746 0.546125 6.50571C1.31188 4.73271 2.39037 3.26496 3.66537 2.26221C6.135 0.307749 9.38173 0.204006 11.9515 1.98121L13.5181 0.414813C13.7378 0.195063 14.0933 0.195063 14.3131 0.414813ZM14.0354 4.03056C14.5784 4.75131 15.0554 5.58456 15.4536 6.50406C15.5159 6.64656 15.5159 6.80856 15.4536 6.95031C13.8816 10.5931 11.0954 12.7673 8.00015 12.7673C7.2974 12.7673 6.5984 12.6533 5.9234 12.4291C5.62865 12.3308 5.4689 12.0121 5.56715 11.7173C5.6654 11.4218 5.98265 11.2651 6.2789 11.3611C6.83915 11.5478 7.41815 11.6423 8.00015 11.6423C10.5711 11.6423 12.9209 9.81081 14.3227 6.72756C13.9807 5.97831 13.5824 5.29956 13.1369 4.70706C12.9501 4.45881 12.9997 4.10556 13.2479 3.91881C13.4954 3.73206 13.8486 3.78306 14.0354 4.03056ZM4.36212 3.14571C3.28513 3.99321 2.36038 5.22771 1.67788 6.72921C2.27296 8.04355 3.05474 9.15198 3.96279 9.97053L5.56614 8.36734C5.23995 7.88739 5.06442 7.32152 5.06442 6.72891C5.06442 5.10891 6.38142 3.79116 7.99992 3.79116C8.58716 3.79116 9.16159 3.96997 9.63985 4.29314L11.141 2.79209C9.00137 1.40892 6.39724 1.5351 4.36212 3.14571ZM10.4281 6.59616C10.7341 6.65091 10.9374 6.94341 10.8826 7.24941C10.6674 8.44416 9.72087 9.39216 8.52688 9.60966C8.49313 9.61566 8.45863 9.61866 8.42562 9.61866C8.15938 9.61866 7.92237 9.42816 7.87287 9.15666C7.81737 8.85141 8.01987 8.55816 8.32587 8.50266C9.06087 8.36916 9.64287 7.78566 9.77487 7.04991C9.83037 6.74466 10.1229 6.54366 10.4281 6.59616ZM7.99992 4.91616C7.00168 4.91616 6.18942 5.72916 6.18942 6.72891C6.18942 7.01795 6.25747 7.29695 6.38574 7.54751L8.81997 5.11299C8.56936 4.98528 8.28748 4.91616 7.99992 4.91616Z" fill="#8F93B5"/>
</svg>
