<svg width="18" height="20" viewBox="0 0 18 20" fill="none" xmlns="http://www.w3.org/2000/svg">
<path fill-rule="evenodd" clip-rule="evenodd" d="M16.702 11.4484C17.0299 11.6225 17.2828 11.8975 17.4608 12.1725C17.8074 12.7409 17.7793 13.4375 17.4421 14.0517L16.7863 15.1517C16.4397 15.7384 15.7933 16.105 15.1282 16.105C14.8003 16.105 14.4349 16.0134 14.1352 15.83C13.8916 15.6742 13.6106 15.6192 13.3108 15.6192C12.3834 15.6192 11.6058 16.38 11.5777 17.2875C11.5777 18.3417 10.7159 19.1667 9.63856 19.1667H8.36452C7.27784 19.1667 6.41599 18.3417 6.41599 17.2875C6.39725 16.38 5.61971 15.6192 4.69228 15.6192C4.38314 15.6192 4.1021 15.6742 3.86791 15.83C3.56813 16.0134 3.19341 16.105 2.8749 16.105C2.20041 16.105 1.55402 15.7384 1.20741 15.1517L0.561022 14.0517C0.214408 13.4559 0.195672 12.7409 0.542286 12.1725C0.692173 11.8975 0.973212 11.6225 1.29172 11.4484C1.55402 11.32 1.72265 11.1092 1.8819 10.8617C2.3503 10.0734 2.06926 9.03754 1.27299 8.57004C0.345559 8.04754 0.0457852 6.88337 0.579758 5.97587L1.20741 4.89421C1.75075 3.98671 2.91238 3.66587 3.84917 4.19754C4.66418 4.63754 5.72276 4.34421 6.20052 3.56504C6.35041 3.30837 6.43472 3.03337 6.41599 2.75837C6.39725 2.40087 6.5003 2.06171 6.67829 1.78671C7.0249 1.21837 7.65255 0.851707 8.33641 0.833374H9.65729C10.3505 0.833374 10.9782 1.21837 11.3248 1.78671C11.4934 2.06171 11.6058 2.40087 11.5777 2.75837C11.559 3.03337 11.6433 3.30837 11.7932 3.56504C12.271 4.34421 13.3295 4.63754 14.1539 4.19754C15.0813 3.66587 16.2523 3.98671 16.7863 4.89421L17.4139 5.97587C17.9573 6.88337 17.6575 8.04754 16.7207 8.57004C15.9244 9.03754 15.6434 10.0734 16.1212 10.8617C16.2711 11.1092 16.4397 11.32 16.702 11.4484ZM6.3504 10.0092C6.3504 11.4484 7.54013 12.5942 9.01089 12.5942C10.4817 12.5942 11.6433 11.4484 11.6433 10.0092C11.6433 8.57004 10.4817 7.41504 9.01089 7.41504C7.54013 7.41504 6.3504 8.57004 6.3504 10.0092Z" fill="white"/>
</svg>
