<svg width="14" height="12" viewBox="0 0 14 12" fill="none" xmlns="http://www.w3.org/2000/svg">
<path d="M11.0989 6.35303V9.00934C11.0989 9.43581 10.7518 9.78287 10.3254 9.78287H3.67295C3.24647 9.78287 2.89941 9.43581 2.89941 9.00934V6.35303C3.26326 6.51797 5.92454 7.72442 6.34449 7.91479C6.76143 8.10379 7.23715 8.10379 7.65383 7.91479C8.01775 7.7498 10.6448 6.55889 11.0989 6.35303Z" fill="#036B84"/>
<path d="M13.5965 3.80303C13.5808 3.50241 13.4053 3.24036 13.1293 3.11159L7.34264 0.411123C7.12437 0.309274 6.87403 0.309222 6.65581 0.411123L0.869033 3.11159C0.239915 3.40515 0.245769 4.3008 0.877155 4.58704C5.65978 6.75519 6.39601 7.08897 6.66399 7.21046C6.8773 7.30705 7.12097 7.3071 7.33439 7.21046C10.532 5.7608 9.63066 6.16941 12.8265 4.72065V11.2785C12.8265 11.4921 12.9997 11.6653 13.2133 11.6653C13.4269 11.6653 13.6 11.4921 13.6 11.2785C13.6 3.30214 13.602 3.84571 13.5965 3.80303Z" fill="#036B84"/>
</svg>
