<svg width="13" height="13" viewBox="0 0 13 13" fill="none" xmlns="http://www.w3.org/2000/svg">
<path fill-rule="evenodd" clip-rule="evenodd" d="M1.8375 0.25H3.95C4.83125 0.25 5.5375 0.96875 5.5375 1.85063V3.98125C5.5375 4.86875 4.83125 5.58125 3.95 5.58125H1.8375C0.9625 5.58125 0.25 4.86875 0.25 3.98125V1.85063C0.25 0.96875 0.9625 0.25 1.8375 0.25ZM1.8375 7.41855H3.95C4.83125 7.41855 5.5375 8.13168 5.5375 9.01918V11.1498C5.5375 12.0311 4.83125 12.7498 3.95 12.7498H1.8375C0.9625 12.7498 0.25 12.0311 0.25 11.1498V9.01918C0.25 8.13168 0.9625 7.41855 1.8375 7.41855ZM11.1626 0.25H9.05009C8.16884 0.25 7.46259 0.96875 7.46259 1.85063V3.98125C7.46259 4.86875 8.16884 5.58125 9.05009 5.58125H11.1626C12.0376 5.58125 12.7501 4.86875 12.7501 3.98125V1.85063C12.7501 0.96875 12.0376 0.25 11.1626 0.25ZM9.05009 7.41855H11.1626C12.0376 7.41855 12.7501 8.13168 12.7501 9.01918V11.1498C12.7501 12.0311 12.0376 12.7498 11.1626 12.7498H9.05009C8.16884 12.7498 7.46259 12.0311 7.46259 11.1498V9.01918C7.46259 8.13168 8.16884 7.41855 9.05009 7.41855Z" fill="#8F93B5"/>
</svg>
