<svg width="20" height="18" viewBox="0 0 20 18" fill="none" xmlns="http://www.w3.org/2000/svg">
<path fill-rule="evenodd" clip-rule="evenodd" d="M17.1142 9.00091C17.1142 9.74661 17.7265 10.3534 18.4791 10.3534C18.8586 10.3534 19.1666 10.6585 19.1666 11.0346V13.4879C19.1666 15.5624 17.4634 17.25 15.3698 17.25H4.631C2.53734 17.25 0.833252 15.5624 0.833252 13.4879V11.0346C0.833252 10.6585 1.14125 10.3534 1.52075 10.3534C2.27425 10.3534 2.88659 9.74661 2.88659 9.00091C2.88659 8.27428 2.299 7.72749 1.52075 7.72749C1.33834 7.72749 1.16417 7.65573 1.03492 7.52766C0.905669 7.39959 0.833252 7.22611 0.833252 7.04627L0.835085 4.51305C0.835085 2.43851 2.53825 0.75 4.63192 0.75H15.3679C17.4616 0.75 19.1657 2.43851 19.1657 4.51305L19.1666 6.96725C19.1666 7.14709 19.0942 7.32148 18.9658 7.44864C18.8366 7.57671 18.6624 7.64846 18.4791 7.64846C17.7265 7.64846 17.1142 8.2552 17.1142 9.00091ZM12.0642 9.59402L13.145 8.55131C13.3329 8.37147 13.398 8.10625 13.3164 7.86101C13.2357 7.61577 13.0249 7.44138 12.7701 7.40595L11.2768 7.18978L10.6086 5.84914C10.494 5.61844 10.2612 5.47493 10.0017 5.47402H9.99992C9.74142 5.47402 9.50858 5.61753 9.39217 5.84824L8.72392 7.18978L7.23342 7.40505C6.97583 7.44138 6.765 7.61577 6.68342 7.86101C6.60275 8.10625 6.66783 8.37147 6.85483 8.55131L7.93558 9.59402L7.68075 11.0682C7.63675 11.3225 7.74033 11.575 7.95117 11.7267C8.07033 11.8112 8.20875 11.8548 8.349 11.8548C8.45625 11.8548 8.56442 11.8284 8.66342 11.7766L9.99992 11.0809L11.3337 11.7748C11.5647 11.8974 11.8387 11.8784 12.0487 11.7258C12.2604 11.575 12.364 11.3225 12.32 11.0682L12.0642 9.59402Z" fill="#036B84"/>
</svg>
