<svg width="20" height="20" viewBox="0 0 20 20" fill="none" xmlns="http://www.w3.org/2000/svg">
<path fill-rule="evenodd" clip-rule="evenodd" d="M14.3025 0C15.9105 0 17.2975 0.537 18.3125 1.554C19.3735 2.616 19.9555 4.161 19.9535 5.905L19.955 12.9014C19.9567 12.9283 19.957 12.9553 19.9559 12.9822L19.9535 14.05C19.9535 17.581 17.6805 19.954 14.2975 19.954H5.65149C2.27149 19.954 0.000488281 17.581 0.000488281 14.05V5.904C0.000488281 2.373 2.27149 0 5.65149 0H14.3025ZM14.5791 10.8323C13.9911 10.8323 13.3011 11.8053 12.6901 12.6643C11.8521 13.8443 10.9851 15.0653 9.67909 15.0653C8.79609 15.0653 7.98709 14.7253 7.27409 14.4243C6.14009 13.9463 5.62609 13.7933 5.12309 14.2073C4.11619 15.037 3.12127 16.5479 2.66411 17.2914C3.38566 18.0354 4.41065 18.454 5.65149 18.454H14.2975C16.8225 18.454 18.4535 16.726 18.4535 14.05L18.4535 13.251L18.4304 13.2267C17.555 12.3248 16.0434 10.8323 14.5791 10.8323ZM14.3025 1.5H5.65149C3.13049 1.5 1.50049 3.229 1.50049 5.904V14.05C1.50049 14.7186 1.60224 15.328 1.79421 15.8661C2.3729 14.9923 3.24688 13.8094 4.17009 13.0493C5.42209 12.0193 6.77009 12.5853 7.85609 13.0423C8.49509 13.3113 9.09909 13.5653 9.67909 13.5653C10.2111 13.5653 10.8781 12.6253 11.4681 11.7963C12.2871 10.6403 13.2171 9.3323 14.5791 9.3323C16.0738 9.3323 17.4276 10.2509 18.4546 11.1624L18.4535 5.904C18.4555 4.541 18.0395 3.403 17.2515 2.614C16.5235 1.885 15.5045 1.5 14.3025 1.5ZM6.85749 4.1895C8.28849 4.1905 9.45249 5.3545 9.45349 6.7845V6.7855C9.45349 8.2165 8.28949 9.3805 6.85749 9.3805C5.42549 9.3805 4.26149 8.2165 4.26149 6.7855C4.26149 5.3535 5.42549 4.1895 6.85749 4.1895ZM6.85649 5.6895C6.25249 5.6895 5.76149 6.1805 5.76149 6.7855C5.76149 7.3895 6.25249 7.8805 6.85749 7.8805C7.46149 7.8805 7.95349 7.3895 7.95349 6.7865C7.95249 6.1815 7.46049 5.6905 6.85649 5.6895Z" fill="#036B84"/>
</svg>
