<svg width="10" height="10" viewBox="0 0 10 10" fill="none" xmlns="http://www.w3.org/2000/svg">
<path fill-rule="evenodd" clip-rule="evenodd" d="M0.75 4.15888C0.75 1.85895 2.67194 0 4.99672 0C7.32806 0 9.25 1.85895 9.25 4.15888C9.25 5.31785 8.8285 6.39381 8.13475 7.30579C7.3694 8.31176 6.42608 9.18823 5.36427 9.87621C5.12126 10.0352 4.90194 10.0472 4.63522 9.87621C3.56737 9.18823 2.62404 8.31176 1.86525 7.30579C1.17099 6.39381 0.75 5.31785 0.75 4.15888ZM3.59706 4.28836C3.59706 5.05884 4.22578 5.66482 4.99667 5.66482C5.76807 5.66482 6.40283 5.05884 6.40283 4.28836C6.40283 3.52389 5.76807 2.8884 4.99667 2.8884C4.22578 2.8884 3.59706 3.52389 3.59706 4.28836Z" fill="#036B84"/>
</svg>
