<svg width="18" height="20" viewBox="0 0 18 20" fill="none" xmlns="http://www.w3.org/2000/svg">
<path fill-rule="evenodd" clip-rule="evenodd" d="M10.9756 0C11.0185 0 11.0606 0.00361613 11.1016 0.0105603L11.2385 0.0114C11.4425 0.0114 11.6375 0.0944 11.7795 0.2414L16.8445 5.5184C16.9785 5.6574 17.0536 5.8444 17.0536 6.0374V15.2034C17.0715 17.7124 15.1175 19.7624 12.6045 19.8644L4.58546 19.8654H4.47646C2.02652 19.81 0.0616273 17.8286 0.00176667 15.4026L0.00146484 4.4904C0.0594648 2.0094 2.10846 0.0114 4.57147 0.0114L10.8495 0.0105603C10.8905 0.00361613 10.9326 0 10.9756 0ZM10.2255 1.511L4.57346 1.5114C2.91646 1.5114 1.54046 2.8534 1.50146 4.5084V15.2034C1.46446 16.9164 2.81446 18.3274 4.51046 18.3654H12.5745C14.2435 18.2964 15.5655 16.9094 15.5535 15.2094L15.5535 6.983L13.5436 6.984C11.7136 6.979 10.2256 5.487 10.2256 3.659L10.2255 1.511ZM10.7888 12.6081C11.2028 12.6081 11.5388 12.9441 11.5388 13.3581C11.5388 13.7721 11.2028 14.1081 10.7888 14.1081H5.38876C4.97476 14.1081 4.63876 13.7721 4.63876 13.3581C4.63876 12.9441 4.97476 12.6081 5.38876 12.6081H10.7888ZM8.74387 8.8561C9.15786 8.8561 9.49387 9.1921 9.49387 9.6061C9.49387 10.0201 9.15786 10.3561 8.74387 10.3561H5.38787C4.97387 10.3561 4.63787 10.0201 4.63787 9.6061C4.63787 9.1921 4.97387 8.8561 5.38787 8.8561H8.74387ZM11.7255 2.352L11.7256 3.659C11.7256 4.663 12.5426 5.481 13.5456 5.484L14.7315 5.483L11.7255 2.352Z" fill="#036B84"/>
</svg>
