<svg width="14" height="16" viewBox="0 0 14 16" fill="none" xmlns="http://www.w3.org/2000/svg">
<path fill-rule="evenodd" clip-rule="evenodd" d="M4.6943 11.2925H8.7339C9.03836 11.2925 9.29083 11.0375 9.29083 10.73C9.29083 10.4225 9.03836 10.175 8.7339 10.175H4.6943C4.38984 10.175 4.13737 10.4225 4.13737 10.73C4.13737 11.0375 4.38984 11.2925 4.6943 11.2925ZM7.2042 6.42499H4.6943C4.38984 6.42499 4.13737 6.67999 4.13737 6.98749C4.13737 7.29499 4.38984 7.54249 4.6943 7.54249H7.2042C7.50865 7.54249 7.76113 7.29499 7.76113 6.98749C7.76113 6.67999 7.50865 6.42499 7.2042 6.42499ZM12.5036 5.76921C12.6781 5.76719 12.8682 5.765 13.0408 5.765C13.2265 5.765 13.375 5.915 13.375 6.1025V12.1325C13.375 13.9925 11.8824 15.5 10.0408 15.5H4.12995C2.19926 15.5 0.625 13.9175 0.625 11.9675V3.8825C0.625 2.0225 2.125 0.5 3.97401 0.5H7.93936C8.13243 0.5 8.28094 0.6575 8.28094 0.845V3.26C8.28094 4.6325 9.40223 5.7575 10.7611 5.765C11.0786 5.765 11.3584 5.76737 11.6033 5.76945C11.7938 5.77107 11.9632 5.7725 12.1126 5.7725C12.2183 5.7725 12.3553 5.77092 12.5036 5.76921ZM12.7083 4.6745C12.0979 4.67675 11.3783 4.6745 10.8608 4.66925C10.0395 4.66925 9.36298 3.986 9.36298 3.1565V1.1795C9.36298 0.856252 9.75135 0.695752 9.97338 0.929002C10.3756 1.35145 10.9286 1.9323 11.4789 2.51034C12.0266 3.08578 12.5718 3.65843 12.963 4.06925C13.1798 4.2965 13.0209 4.67375 12.7083 4.6745Z" fill="#036B84"/>
</svg>
