<svg width="11" height="11" viewBox="0 0 11 11" fill="none" xmlns="http://www.w3.org/2000/svg">
<path d="M8.32581 6.59104C8.01795 6.52481 7.7744 6.66775 7.55875 6.79258C7.3379 6.92122 6.91796 7.26188 6.67725 7.17469C5.44484 6.66727 4.28574 5.58859 3.78399 4.35124C3.69555 4.10539 4.03463 3.68278 4.16231 3.45932C4.28622 3.24302 4.4262 2.99717 4.36235 2.687C4.30466 2.40827 3.55841 1.45871 3.29452 1.19904C3.12049 1.02752 2.94221 0.93318 2.75919 0.917933C2.07111 0.888393 1.30263 1.80652 1.16785 2.02616C0.83019 2.49451 0.832082 3.11771 1.17352 3.87336C1.99639 5.90304 5.10861 8.96615 7.1459 9.81995C7.52186 9.99576 7.86567 10.0839 8.17448 10.0839C8.47667 10.0839 8.74576 9.99957 8.97701 9.83234C9.15151 9.73181 10.1073 8.92517 10.0822 8.2186C10.0671 8.0385 9.97296 7.8584 9.80365 7.68402C9.54592 7.41768 8.60246 6.64917 8.32581 6.59104Z" fill="#036B84"/>
</svg>
