<svg width="36" height="52" viewBox="0 0 36 52" fill="none" xmlns="http://www.w3.org/2000/svg">
<path d="M23 29C19.4159 29 16.5 31.9159 16.5 35.5C16.5 37.3387 17.2687 39.0002 18.5 40.1837C18.646 40.3241 18.7985 40.4577 18.9571 40.584L18.958 40.5847C19.0367 40.6474 19.1167 40.7083 19.1983 40.7673L19.203 40.7707C19.2832 40.8287 19.3647 40.8849 19.4476 40.9393C19.4512 40.9417 19.455 40.944 19.4586 40.9464C19.5395 40.9992 19.6215 41.0504 19.7049 41.0996C19.7114 41.1034 19.718 41.1071 19.7245 41.1109C19.8054 41.1583 19.8871 41.2042 19.9702 41.2482C19.98 41.2534 19.9901 41.2583 19.9999 41.2634C20.08 41.3053 20.1608 41.3459 20.2428 41.3845C20.257 41.3911 20.2714 41.3973 20.2856 41.4039C20.364 41.4401 20.443 41.4753 20.5231 41.5085C20.542 41.5163 20.5612 41.5234 20.5802 41.5311C20.6564 41.5618 20.7329 41.5918 20.8105 41.6197C20.8346 41.6283 20.8592 41.6361 20.8834 41.6445C20.9568 41.6698 21.0303 41.6948 21.1049 41.7176C21.1348 41.7267 21.1653 41.7346 21.1954 41.7433C21.2653 41.7635 21.3351 41.7838 21.4059 41.8017C21.4424 41.811 21.4796 41.8186 21.5164 41.8273C21.5818 41.8426 21.6471 41.8584 21.7132 41.8717C21.7571 41.8806 21.8017 41.8875 21.846 41.8955C21.9062 41.9063 21.9661 41.9179 22.0268 41.9271C22.0794 41.9351 22.1327 41.9407 22.1858 41.9474C22.2392 41.9541 22.2922 41.9619 22.3459 41.9673C22.4113 41.9739 22.4775 41.9778 22.5434 41.9824C22.5858 41.9854 22.6279 41.9897 22.6705 41.9919C22.7796 41.9974 22.8894 42.0002 22.9998 42.0002C23.1102 42.0002 23.22 41.9973 23.3291 41.9919C23.3718 41.9898 23.4138 41.9854 23.4562 41.9824C23.5221 41.9778 23.5883 41.9739 23.6537 41.9673C23.7074 41.9619 23.7604 41.9541 23.8138 41.9474C23.8668 41.9407 23.9201 41.9351 23.9728 41.9271C24.0335 41.9179 24.0934 41.9063 24.1536 41.8955C24.1979 41.8875 24.2425 41.8806 24.2864 41.8717C24.3525 41.8584 24.4178 41.8426 24.4832 41.8273C24.52 41.8187 24.5572 41.811 24.5937 41.8017C24.6645 41.7838 24.7344 41.7635 24.8042 41.7433C24.8343 41.7346 24.8648 41.7267 24.8947 41.7176C24.9693 41.6948 25.0428 41.6698 25.1162 41.6445C25.1404 41.6361 25.165 41.6284 25.1891 41.6197C25.2667 41.5918 25.3432 41.5618 25.4194 41.5311C25.4384 41.5234 25.4576 41.5164 25.4765 41.5085C25.5566 41.4753 25.6355 41.4401 25.714 41.4039C25.7282 41.3973 25.7426 41.3912 25.7568 41.3845C25.8388 41.3459 25.9196 41.3053 25.9997 41.2634C26.0096 41.2582 26.0196 41.2533 26.0294 41.2482C26.1125 41.2042 26.1942 41.1583 26.2751 41.1109C26.2816 41.1071 26.2882 41.1034 26.2947 41.0996C26.378 41.0503 26.46 40.9992 26.541 40.9464C26.5447 40.944 26.5484 40.9417 26.552 40.9393C26.6349 40.885 26.7164 40.8287 26.7966 40.7707C26.7966 40.7707 26.7997 40.7685 26.8013 40.7673C26.8829 40.7083 26.9629 40.6474 27.0416 40.5847L27.0425 40.584C27.2011 40.4576 27.3535 40.324 27.4996 40.1837C28.7309 39.0002 29.4996 37.3387 29.4996 35.5C29.5 31.9159 26.5841 29 23 29Z" fill="#68A6B5"/>
<path d="M34 0H2C1.1716 0 0.5 0.6716 0.5 1.5V44C0.5 44.8284 1.1716 45.5 2 45.5H15.5V41.3394C14.2021 39.6844 13.5 37.6549 13.5 35.5C13.5 30.2617 17.7617 26 23 26C28.2383 26 32.5 30.2617 32.5 35.5C32.5 37.6549 31.7979 39.6844 30.5 41.3394V45.5H34C34.8284 45.5 35.5 44.8284 35.5 44V1.5C35.5 0.6716 34.8284 0 34 0ZM8 6.5H14C14.8284 6.5 15.5 7.1716 15.5 8C15.5 8.8284 14.8284 9.5 14 9.5H8C7.1716 9.5 6.5 8.8284 6.5 8C6.5 7.1716 7.1716 6.5 8 6.5ZM28 24.5H22C21.1716 24.5 20.5 23.8284 20.5 23C20.5 22.1716 21.1716 21.5 22 21.5H28C28.8284 21.5 29.5 22.1716 29.5 23C29.5 23.8284 28.8284 24.5 28 24.5ZM28 19.5H8C7.1716 19.5 6.5 18.8284 6.5 18C6.5 17.1716 7.1716 16.5 8 16.5H28C28.8284 16.5 29.5 17.1716 29.5 18C29.5 18.8284 28.8284 19.5 28 19.5ZM28 14.5H8C7.1716 14.5 6.5 13.8284 6.5 13C6.5 12.1716 7.1716 11.5 8 11.5H28C28.8284 11.5 29.5 12.1716 29.5 13C29.5 13.8284 28.8284 14.5 28 14.5Z" fill="#036B84"/>
<path d="M18.5 43.8645V50.4998C18.5 51.053 18.8045 51.5613 19.2922 51.8224C19.7799 52.0833 20.3718 52.0549 20.832 51.7479L23 50.3025L25.168 51.7478C25.419 51.9152 25.7091 51.9998 26.0001 51.9998C26.2428 51.9998 26.486 51.941 26.7078 51.8224C27.1955 51.5614 27.5 51.0531 27.5 50.4998V43.8645C26.1598 44.5884 24.6271 44.9998 23 44.9998C21.3729 44.9998 19.8402 44.5884 18.5 43.8645Z" fill="#68A6B5"/>
</svg>
