<svg width="12" height="13" viewBox="0 0 12 13" fill="none" xmlns="http://www.w3.org/2000/svg">
<path d="M0.117182 6.48143C1.32521 6.78944 2.81431 7.23367 3.71135 8.12807C4.80575 9.22386 5.20643 10.8883 5.55927 12.5468C5.59515 12.7067 5.81642 12.7067 5.85231 12.5468C6.13936 11.214 6.51014 9.62071 7.28758 8.63154C8.28032 7.37583 9.8053 6.86052 11.3004 6.48143C11.4559 6.43997 11.4559 6.22673 11.3004 6.1912C9.99069 5.8595 8.48963 5.41526 7.55072 4.39647C6.57593 3.3303 6.18122 1.66589 5.84633 0.119944C5.81044 -0.0399814 5.58917 -0.0399814 5.55329 0.119944C5.24231 1.57112 4.71007 3.21776 3.82498 4.2484C2.86215 5.36788 1.50461 5.82988 0.1112 6.18527C-0.0383072 6.22674 -0.0383072 6.43997 0.117182 6.48143Z" fill="#F35550"/>
</svg>
