<svg width="4" height="5" viewBox="0 0 4 5" fill="none" xmlns="http://www.w3.org/2000/svg">
<path d="M0.0405347 2.20195C0.447198 2.30856 0.955528 2.45664 1.26053 2.75873C1.63131 3.13189 1.76885 3.69459 1.88846 4.25729C1.90042 4.3106 1.97817 4.3106 1.98415 4.25729C2.07983 3.80713 2.20542 3.2622 2.47453 2.9305C2.80943 2.50403 3.32972 2.32633 3.83805 2.20195C3.89187 2.1901 3.89187 2.11902 3.83805 2.10125C3.39551 1.98871 2.8812 1.84063 2.56424 1.49116C2.23532 1.12985 2.09777 0.561222 1.98415 0.0399815C1.97218 -0.0133272 1.89444 -0.0133272 1.88846 0.0399815C1.78082 0.531606 1.60141 1.08838 1.30239 1.44377C0.97347 1.82286 0.512982 1.98279 0.0405347 2.10125C-0.0132883 2.1131 -0.0132883 2.1901 0.0405347 2.20195Z" fill="#F35550"/>
</svg>
