<svg width="19" height="17" viewBox="0 0 19 17" fill="none" xmlns="http://www.w3.org/2000/svg">
<path fill-rule="evenodd" clip-rule="evenodd" d="M14.5478 5.33408H18.25C18.25 2.36152 16.4689 0.625 13.4511 0.625H5.54889C2.53111 0.625 0.75 2.36152 0.75 5.29616V11.7038C0.75 14.6385 2.53111 16.375 5.54889 16.375H13.4511C16.4689 16.375 18.25 14.6385 18.25 11.7038V11.4309H14.5478C12.8296 11.4309 11.4367 10.0728 11.4367 8.39763C11.4367 6.72243 12.8296 5.36441 14.5478 5.36441V5.33408ZM14.5478 6.63836H17.5967C17.9575 6.63836 18.25 6.92354 18.25 7.27534V9.48959C18.2458 9.83967 17.9557 10.1225 17.5967 10.1266H14.6178C13.7479 10.138 12.9873 9.55733 12.79 8.73128C12.6912 8.21851 12.8299 7.68937 13.1689 7.28569C13.508 6.88201 14.0127 6.64506 14.5478 6.63836ZM14.68 8.96636H14.9678C15.3372 8.96636 15.6367 8.67438 15.6367 8.31421C15.6367 7.95405 15.3372 7.66207 14.9678 7.66207H14.68C14.5033 7.66005 14.3332 7.72706 14.2075 7.84816C14.0818 7.96926 14.0111 8.13436 14.0111 8.30663C14.0111 8.66805 14.3093 8.9622 14.68 8.96636ZM4.89556 5.33408H9.83444C10.2039 5.33408 10.5033 5.0421 10.5033 4.68194C10.5033 4.32177 10.2039 4.02979 9.83444 4.02979H4.89556C4.52916 4.02977 4.23093 4.31715 4.22667 4.67435C4.22664 5.03577 4.52488 5.32992 4.89556 5.33408Z" fill="white"/>
</svg>
