<svg width="16" height="20" viewBox="0 0 16 20" fill="none" xmlns="http://www.w3.org/2000/svg">
<path fill-rule="evenodd" clip-rule="evenodd" d="M7.75067 19.0876C7.85219 19.1406 7.96569 19.1676 8.0792 19.1667C8.19271 19.1658 8.3053 19.1379 8.40774 19.084L11.6783 17.3356C12.6058 16.8412 13.332 16.2884 13.8987 15.6448C15.1307 14.2426 15.8034 12.4529 15.7914 10.6075L15.7526 4.52019C15.749 3.81906 15.2885 3.19343 14.6074 2.96601L8.52309 0.924641C8.15672 0.800595 7.75529 0.803291 7.39538 0.930933L1.33414 3.04512C0.656776 3.28152 0.204583 3.91164 0.208274 4.61368L0.247034 10.6964C0.259031 12.5446 0.954855 14.3262 2.20715 15.714C2.77932 16.3487 3.51205 16.8934 4.44966 17.3797L7.75067 19.0876ZM6.88486 11.9332C7.02144 12.0645 7.19863 12.1292 7.37581 12.1274C7.553 12.1265 7.72926 12.06 7.864 11.9269L11.4382 8.4033C11.7067 8.13812 11.7039 7.71205 11.4326 7.45047C11.1604 7.1889 10.722 7.1907 10.4535 7.45587L7.36566 10.4995L6.10136 9.2842C5.82913 9.02263 5.3917 9.02532 5.12223 9.2905C4.85368 9.55567 4.85645 9.98174 5.12869 10.2433L6.88486 11.9332Z" fill="white"/>
</svg>
