<svg width="56" height="53" viewBox="0 0 56 53" fill="none" xmlns="http://www.w3.org/2000/svg">
<rect x="35" y="28" width="20.8669" height="24.7311" rx="3" fill="#BDDEE6"/>
<rect width="20.8669" height="24.7311" rx="3" fill="#68A6B5"/>
<path d="M47.7479 37.4563C47.7479 38.8128 46.5875 39.9125 45.1562 39.9125C43.7248 39.9125 42.5645 38.8128 42.5645 37.4563C42.5645 36.0997 43.7248 35 45.1562 35C46.5875 35 47.7479 36.0997 47.7479 37.4563Z" fill="white"/>
<path d="M45.1562 40.3252C43.4194 40.3252 41.8552 41.0261 40.7615 42.1457C39.084 43.863 41.1703 46 43.6395 46H46.673C49.1422 46 51.2285 43.863 49.551 42.1457C48.4573 41.0261 46.8931 40.3252 45.1562 40.3252Z" fill="white"/>
<path d="M12.7479 9.45625C12.7479 10.8128 11.5875 11.9125 10.1562 11.9125C8.72484 11.9125 7.5645 10.8128 7.5645 9.45625C7.5645 8.0997 8.72484 7 10.1562 7C11.5875 7 12.7479 8.0997 12.7479 9.45625Z" fill="white"/>
<path d="M10.1562 12.3252C8.41937 12.3252 6.85522 13.0261 5.7615 14.1457C4.084 15.863 6.17029 18 8.63952 18H11.673C14.1422 18 16.2285 15.863 14.551 14.1457C13.4573 13.0261 11.8931 12.3252 10.1562 12.3252Z" fill="white"/>
<rect x="14.4688" y="12" width="27.617" height="32.7313" rx="3" fill="#036B84"/>
<path d="M31.1099 24.9028C31.1099 26.506 29.7175 27.8057 27.9999 27.8057C26.2823 27.8057 24.8899 26.506 24.8899 24.9028C24.8899 23.2996 26.2823 22 27.9999 22C29.7175 22 31.1099 23.2996 31.1099 24.9028Z" fill="white"/>
<path d="M28 28.2934C25.9157 28.2934 24.0388 29.1218 22.7263 30.445C20.7133 32.4744 23.2169 35 26.1799 35H29.8201C32.7831 35 35.2867 32.4744 33.2737 30.445C31.9612 29.1218 30.0843 28.2934 28 28.2934Z" fill="white"/>
</svg>
