<svg width="20" height="18" viewBox="0 0 20 18" fill="none" xmlns="http://www.w3.org/2000/svg">
<path d="M10.8949 0.854167L12.9358 4.95559C13.0862 5.25274 13.3731 5.45909 13.7041 5.50495L18.2884 6.17262C18.5562 6.21022 18.7991 6.35146 18.9633 6.56699C19.1255 6.77976 19.1952 7.0494 19.1558 7.31445C19.1237 7.53456 19.0201 7.73817 18.8615 7.89408L15.5397 11.1141C15.2967 11.3388 15.1867 11.6718 15.2454 11.9973L16.0632 16.5243C16.1503 17.0709 15.7882 17.5863 15.2454 17.69C15.0217 17.7257 14.7924 17.6881 14.5907 17.5854L10.5015 15.4549C10.198 15.3018 9.83955 15.3018 9.53607 15.4549L5.44686 17.5854C4.94442 17.8523 4.32187 17.6707 4.04222 17.1755C3.93862 16.9783 3.90194 16.7536 3.93587 16.5344L4.75371 12.0065C4.81239 11.6818 4.70145 11.3471 4.4594 11.1224L1.1376 7.90417C0.742432 7.52264 0.730513 6.8944 1.11101 6.49912C1.11926 6.49087 1.12843 6.48169 1.1376 6.47252C1.2953 6.31203 1.50251 6.21022 1.72623 6.18363L6.31054 5.51504C6.64061 5.46826 6.92759 5.26374 7.07888 4.96476L9.04646 0.854167C9.22159 0.501988 9.58466 0.282793 9.97892 0.291964H10.1018C10.4438 0.333235 10.7417 0.545093 10.8949 0.854167Z" fill="white"/>
<path d="M9.9926 15.3407C9.81504 15.3462 9.64205 15.3939 9.48646 15.4792L5.41725 17.6049C4.91935 17.8425 4.32352 17.6581 4.04437 17.182C3.94094 16.9875 3.90342 16.7645 3.9382 16.5462L4.75094 12.0279C4.80586 11.6995 4.69603 11.3655 4.45715 11.1343L1.13386 7.91696C0.739387 7.53072 0.732065 6.89679 1.1183 6.50138C1.12379 6.49588 1.12837 6.49129 1.13386 6.4867C1.29128 6.33074 1.49447 6.22799 1.71322 6.19588L6.30138 5.52066C6.63362 5.47846 6.92192 5.27112 7.06836 4.97021L9.0627 0.807879C9.25216 0.472103 9.61551 0.272106 9.99992 0.293207C9.9926 0.56568 9.9926 15.1554 9.9926 15.3407Z" fill="white"/>
</svg>
