<svg width="14" height="14" viewBox="0 0 14 14" fill="none" xmlns="http://www.w3.org/2000/svg">
<path d="M13.4163 6.99992C13.4163 7.81889 12.5268 8.45494 12.2315 9.16706C11.9253 9.90518 12.0928 10.9815 11.5364 11.5377C10.9802 12.0939 9.90432 11.9257 9.16624 12.2317C8.45434 12.5268 7.81829 13.4166 6.99964 13.4166C6.18099 13.4166 5.54495 12.5268 4.83305 12.2317C4.09497 11.9257 3.01919 12.0939 2.46289 11.5377C1.90653 10.9815 2.07402 9.90518 1.76787 9.16706C1.47247 8.45494 0.583008 7.81883 0.583008 6.99992C0.583008 6.18094 1.47253 5.54489 1.76793 4.83278C2.07409 4.09465 1.90666 3.01833 2.46302 2.46212C3.01925 1.90598 4.09509 2.07417 4.83317 1.76814C5.54507 1.473 6.18112 0.583252 6.99977 0.583252C7.81842 0.583252 8.45447 1.473 9.16636 1.76814C9.90444 2.07411 10.9802 1.90598 11.5365 2.46212C12.0929 3.01833 11.9254 4.09465 12.2315 4.83278C12.5268 5.54489 13.4163 6.18094 13.4163 6.99992Z" fill="#036B84"/>
<path d="M7.111 3.84601L8.18304 5.31617C8.20065 5.34028 8.22697 5.35791 8.25742 5.36578L10.1117 5.84752C10.2029 5.87121 10.2387 5.97237 10.18 6.04075L8.98837 7.4311C8.96879 7.45389 8.95871 7.4824 8.95995 7.51139L9.03388 9.27925C9.03755 9.36621 8.94378 9.42876 8.85486 9.39869L7.04631 8.78783C7.01665 8.77779 6.98404 8.77779 6.95438 8.78783L5.14583 9.39869C5.05684 9.42876 4.96314 9.36621 4.96674 9.27925L5.04067 7.51139C5.04191 7.4824 5.03183 7.45389 5.01225 7.4311L3.82058 6.04075C3.76198 5.97237 3.79773 5.87121 3.88895 5.84752L5.7432 5.36578C5.77365 5.35791 5.80004 5.34028 5.81759 5.31617L6.88962 3.84601C6.94246 3.77366 7.05829 3.77366 7.111 3.84601Z" fill="#F9F9FC"/>
</svg>
