<svg width="10" height="10" viewBox="0 0 10 10" fill="none" xmlns="http://www.w3.org/2000/svg">
<path fill-rule="evenodd" clip-rule="evenodd" d="M5.00016 9.16671C2.70016 9.16671 0.833496 7.30421 0.833496 5.00004C0.833496 2.70004 2.70016 0.833374 5.00016 0.833374C7.30433 0.833374 9.16683 2.70004 9.16683 5.00004C9.16683 7.30421 7.30433 9.16671 5.00016 9.16671ZM6.32902 6.54587C6.37902 6.57504 6.43319 6.59171 6.49152 6.59171C6.59569 6.59171 6.69985 6.53754 6.75819 6.43754C6.84569 6.29171 6.79985 6.10004 6.64985 6.00837L5.16652 5.12504V3.20004C5.16652 3.02504 5.02485 2.88754 4.85402 2.88754C4.68319 2.88754 4.54152 3.02504 4.54152 3.20004V5.30421C4.54152 5.41254 4.59985 5.51254 4.69569 5.57087L6.32902 6.54587Z" fill="#036B84"/>
</svg>
