<svg width="68" height="68" viewBox="0 0 68 68" fill="none" xmlns="http://www.w3.org/2000/svg">
<rect width="68" height="68" rx="10" fill="#5399AB" fill-opacity="0.05"/>
<rect x="0.5" y="0.5" width="67" height="67" rx="9.5" stroke="#036B84" stroke-opacity="0.3" stroke-dasharray="4 2"/>
<path fill-rule="evenodd" clip-rule="evenodd" d="M31.0415 39.4387H37.1009C37.5575 39.4387 37.9363 39.0562 37.9363 38.595C37.9363 38.1337 37.5575 37.7625 37.1009 37.7625H31.0415C30.5848 37.7625 30.2061 38.1337 30.2061 38.595C30.2061 39.0562 30.5848 39.4387 31.0415 39.4387ZM34.8063 32.1375H31.0415C30.5848 32.1375 30.2061 32.52 30.2061 32.9812C30.2061 33.4425 30.5848 33.8137 31.0415 33.8137H34.8063C35.263 33.8137 35.6417 33.4425 35.6417 32.9812C35.6417 32.52 35.263 32.1375 34.8063 32.1375ZM42.7553 31.1538C43.0171 31.1508 43.3022 31.1475 43.5613 31.1475C43.8397 31.1475 44.0625 31.3725 44.0625 31.6537V40.6987C44.0625 43.4888 41.8236 45.75 39.0613 45.75H30.1949C27.2989 45.75 24.9375 43.3762 24.9375 40.4513V28.3238C24.9375 25.5338 27.1875 23.25 29.961 23.25H35.909C36.1986 23.25 36.4214 23.4863 36.4214 23.7675V27.39C36.4214 29.4488 38.1033 31.1363 40.1417 31.1475C40.6178 31.1475 41.0376 31.1511 41.4049 31.1542C41.6907 31.1566 41.9447 31.1588 42.1689 31.1588C42.3275 31.1588 42.533 31.1564 42.7553 31.1538ZM43.0625 29.5118C42.1469 29.5151 41.0676 29.5118 40.2912 29.5039C39.0593 29.5039 38.0446 28.479 38.0446 27.2348V24.2693C38.0446 23.7844 38.6271 23.5436 38.9601 23.8935C39.563 24.5266 40.3913 25.3967 41.2159 26.263C42.0384 27.127 42.8572 27.987 43.4446 28.6039C43.7698 28.9448 43.5314 29.5106 43.0625 29.5118Z" fill="#8ABAC6"/>
</svg>
