<svg width="20" height="18" viewBox="0 0 20 18" fill="none" xmlns="http://www.w3.org/2000/svg">
<path d="M7.57014 11.6196C3.93665 11.6196 0.833252 12.1809 0.833252 14.4242C0.833252 16.6694 3.91692 17.25 7.57014 17.25C11.2036 17.25 14.307 16.6887 14.307 14.4453C14.307 12.2002 11.2234 11.6196 7.57014 11.6196Z" fill="white"/>
<path d="M7.57008 9.48109C10.0447 9.48109 12.0279 7.53899 12.0279 5.11554C12.0279 2.6921 10.0447 0.75 7.57008 0.75C5.09633 0.75 3.1123 2.6921 3.1123 5.11554C3.1123 7.53899 5.09633 9.48109 7.57008 9.48109Z" fill="white"/>
<path d="M13.8255 5.19467C13.8255 6.42879 13.447 7.58035 12.7832 8.5369C12.7142 8.63528 12.7752 8.76792 12.8953 8.789C13.0622 8.81623 13.2335 8.83292 13.4084 8.83643C15.1484 8.88123 16.71 7.78413 17.1414 6.1319C17.781 3.68034 15.9046 1.47913 13.5142 1.47913C13.255 1.47913 13.0066 1.50548 12.7644 1.55379C12.7312 1.56082 12.6953 1.57663 12.6774 1.60473C12.6541 1.64075 12.6711 1.6873 12.6944 1.71805C13.4129 2.70446 13.8255 3.90521 13.8255 5.19467Z" fill="white"/>
<path d="M18.9642 11.9052C18.6457 11.2403 17.8771 10.7844 16.7075 10.5604C16.1559 10.4287 14.6616 10.2416 13.2722 10.2679C13.2516 10.2706 13.2399 10.2846 13.2381 10.2934C13.2354 10.3075 13.2417 10.3286 13.2686 10.3435C13.9108 10.6544 16.3926 12.0071 16.0805 14.8601C16.0671 14.9848 16.1684 15.0902 16.2949 15.0727C16.9057 14.9875 18.4771 14.6563 18.9642 13.6269C19.2341 13.0823 19.2341 12.4498 18.9642 11.9052Z" fill="white"/>
</svg>
